G04 #@! TF.GenerationSoftware,KiCad,Pcbnew,(5.1.2-1)-1*
G04 #@! TF.CreationDate,2020-07-06T20:22:29+09:00*
G04 #@! TF.ProjectId,usb_7seg,7573625f-3773-4656-972e-6b696361645f,rev?*
G04 #@! TF.SameCoordinates,Original*
G04 #@! TF.FileFunction,Soldermask,Top*
G04 #@! TF.FilePolarity,Negative*
%FSLAX46Y46*%
G04 Gerber Fmt 4.6, Leading zero omitted, Abs format (unit mm)*
G04 Created by KiCad (PCBNEW (5.1.2-1)-1) date 2020-07-06 20:22:29*
%MOMM*%
%LPD*%
G04 APERTURE LIST*
%ADD10C,0.100000*%
G04 APERTURE END LIST*
D10*
G36*
X132248228Y-81731703D02*
G01*
X132403100Y-81795853D01*
X132542481Y-81888985D01*
X132661015Y-82007519D01*
X132754147Y-82146900D01*
X132818297Y-82301772D01*
X132851000Y-82466184D01*
X132851000Y-82633816D01*
X132818297Y-82798228D01*
X132754147Y-82953100D01*
X132661015Y-83092481D01*
X132542481Y-83211015D01*
X132403100Y-83304147D01*
X132248228Y-83368297D01*
X132083816Y-83401000D01*
X131916184Y-83401000D01*
X131751772Y-83368297D01*
X131596900Y-83304147D01*
X131457519Y-83211015D01*
X131380228Y-83133724D01*
X131361292Y-83118184D01*
X131339681Y-83106633D01*
X131316232Y-83099520D01*
X131291846Y-83097118D01*
X131267460Y-83099520D01*
X131244011Y-83106633D01*
X131222400Y-83118184D01*
X131203458Y-83133729D01*
X131187913Y-83152671D01*
X131181019Y-83165569D01*
X131180905Y-83165508D01*
X131156534Y-83211103D01*
X131131548Y-83241548D01*
X131101103Y-83266534D01*
X131066367Y-83285101D01*
X131028674Y-83296535D01*
X130983339Y-83301000D01*
X130146661Y-83301000D01*
X130101326Y-83296535D01*
X130063633Y-83285101D01*
X130028897Y-83266534D01*
X129998452Y-83241548D01*
X129973466Y-83211103D01*
X129954899Y-83176367D01*
X129943465Y-83138674D01*
X129939000Y-83093339D01*
X129939000Y-82006661D01*
X129943465Y-81961326D01*
X129954899Y-81923633D01*
X129973466Y-81888897D01*
X129998452Y-81858452D01*
X130028897Y-81833466D01*
X130063633Y-81814899D01*
X130101326Y-81803465D01*
X130146661Y-81799000D01*
X130983339Y-81799000D01*
X131028674Y-81803465D01*
X131066367Y-81814899D01*
X131101103Y-81833466D01*
X131131548Y-81858452D01*
X131156534Y-81888897D01*
X131179755Y-81932341D01*
X131181594Y-81936783D01*
X131195203Y-81957160D01*
X131212526Y-81974491D01*
X131232898Y-81988109D01*
X131255535Y-81997492D01*
X131279567Y-82002277D01*
X131304071Y-82002283D01*
X131328105Y-81997507D01*
X131350746Y-81988135D01*
X131371123Y-81974526D01*
X131380223Y-81966281D01*
X131457519Y-81888985D01*
X131596900Y-81795853D01*
X131751772Y-81731703D01*
X131916184Y-81699000D01*
X132083816Y-81699000D01*
X132248228Y-81731703D01*
X132248228Y-81731703D01*
G37*
G36*
X127248228Y-81731703D02*
G01*
X127403100Y-81795853D01*
X127542481Y-81888985D01*
X127661015Y-82007519D01*
X127661017Y-82007522D01*
X127665550Y-82014306D01*
X127681095Y-82033248D01*
X127700037Y-82048794D01*
X127721648Y-82060345D01*
X127745097Y-82067458D01*
X127769483Y-82069860D01*
X127793869Y-82067458D01*
X127817318Y-82060345D01*
X127838928Y-82048794D01*
X127857870Y-82033249D01*
X127873416Y-82014307D01*
X127884967Y-81992696D01*
X127889876Y-81973100D01*
X127889892Y-81973105D01*
X127904899Y-81923633D01*
X127923466Y-81888897D01*
X127948452Y-81858452D01*
X127978897Y-81833466D01*
X128013633Y-81814899D01*
X128051326Y-81803465D01*
X128096661Y-81799000D01*
X128933339Y-81799000D01*
X128978674Y-81803465D01*
X129016367Y-81814899D01*
X129051103Y-81833466D01*
X129081548Y-81858452D01*
X129106534Y-81888897D01*
X129125101Y-81923633D01*
X129136535Y-81961326D01*
X129141000Y-82006661D01*
X129141000Y-83093339D01*
X129136535Y-83138674D01*
X129125101Y-83176367D01*
X129106534Y-83211103D01*
X129081548Y-83241548D01*
X129051103Y-83266534D01*
X129016367Y-83285101D01*
X128978674Y-83296535D01*
X128933339Y-83301000D01*
X128096661Y-83301000D01*
X128051326Y-83296535D01*
X128013633Y-83285101D01*
X127978897Y-83266534D01*
X127948452Y-83241548D01*
X127923466Y-83211103D01*
X127904899Y-83176367D01*
X127892236Y-83134622D01*
X127889099Y-83118853D01*
X127879722Y-83096214D01*
X127866108Y-83075840D01*
X127848781Y-83058513D01*
X127828407Y-83044900D01*
X127805768Y-83035522D01*
X127781735Y-83030742D01*
X127757230Y-83030742D01*
X127733197Y-83035523D01*
X127710558Y-83044900D01*
X127690184Y-83058514D01*
X127665550Y-83085694D01*
X127661015Y-83092481D01*
X127542481Y-83211015D01*
X127403100Y-83304147D01*
X127248228Y-83368297D01*
X127083816Y-83401000D01*
X126916184Y-83401000D01*
X126751772Y-83368297D01*
X126596900Y-83304147D01*
X126457519Y-83211015D01*
X126338985Y-83092481D01*
X126245853Y-82953100D01*
X126181703Y-82798228D01*
X126149000Y-82633816D01*
X126149000Y-82466184D01*
X126181703Y-82301772D01*
X126245853Y-82146900D01*
X126338985Y-82007519D01*
X126457519Y-81888985D01*
X126596900Y-81795853D01*
X126751772Y-81731703D01*
X126916184Y-81699000D01*
X127083816Y-81699000D01*
X127248228Y-81731703D01*
X127248228Y-81731703D01*
G37*
G36*
X122086823Y-81711313D02*
G01*
X122247242Y-81759976D01*
X122359011Y-81819718D01*
X122395078Y-81838996D01*
X122524659Y-81945341D01*
X122631004Y-82074922D01*
X122631005Y-82074924D01*
X122710024Y-82222758D01*
X122758687Y-82383177D01*
X122775117Y-82550000D01*
X122758687Y-82716823D01*
X122710024Y-82877242D01*
X122669477Y-82953100D01*
X122631004Y-83025078D01*
X122524659Y-83154659D01*
X122395078Y-83261004D01*
X122395076Y-83261005D01*
X122247242Y-83340024D01*
X122086823Y-83388687D01*
X121961804Y-83401000D01*
X121878196Y-83401000D01*
X121753177Y-83388687D01*
X121592758Y-83340024D01*
X121444924Y-83261005D01*
X121444922Y-83261004D01*
X121315341Y-83154659D01*
X121208996Y-83025078D01*
X121170523Y-82953100D01*
X121129976Y-82877242D01*
X121081313Y-82716823D01*
X121064883Y-82550000D01*
X121081313Y-82383177D01*
X121129976Y-82222758D01*
X121208995Y-82074924D01*
X121208996Y-82074922D01*
X121315341Y-81945341D01*
X121444922Y-81838996D01*
X121480989Y-81819718D01*
X121592758Y-81759976D01*
X121753177Y-81711313D01*
X121878196Y-81699000D01*
X121961804Y-81699000D01*
X122086823Y-81711313D01*
X122086823Y-81711313D01*
G37*
G36*
X112008228Y-81731703D02*
G01*
X112163100Y-81795853D01*
X112302481Y-81888985D01*
X112421015Y-82007519D01*
X112514147Y-82146900D01*
X112578297Y-82301772D01*
X112611000Y-82466184D01*
X112611000Y-82633816D01*
X112578297Y-82798228D01*
X112514147Y-82953100D01*
X112421015Y-83092481D01*
X112302481Y-83211015D01*
X112163100Y-83304147D01*
X112008228Y-83368297D01*
X111843816Y-83401000D01*
X111676184Y-83401000D01*
X111511772Y-83368297D01*
X111356900Y-83304147D01*
X111217519Y-83211015D01*
X111098985Y-83092481D01*
X111005853Y-82953100D01*
X110941703Y-82798228D01*
X110909000Y-82633816D01*
X110909000Y-82466184D01*
X110941703Y-82301772D01*
X111005853Y-82146900D01*
X111098985Y-82007519D01*
X111217519Y-81888985D01*
X111356900Y-81795853D01*
X111511772Y-81731703D01*
X111676184Y-81699000D01*
X111843816Y-81699000D01*
X112008228Y-81731703D01*
X112008228Y-81731703D01*
G37*
G36*
X118328674Y-81803465D02*
G01*
X118366367Y-81814899D01*
X118401103Y-81833466D01*
X118431548Y-81858452D01*
X118456534Y-81888897D01*
X118475101Y-81923633D01*
X118486535Y-81961326D01*
X118491000Y-82006661D01*
X118491000Y-83093339D01*
X118486535Y-83138674D01*
X118475101Y-83176367D01*
X118456534Y-83211103D01*
X118431548Y-83241548D01*
X118401103Y-83266534D01*
X118366367Y-83285101D01*
X118328674Y-83296535D01*
X118283339Y-83301000D01*
X117446661Y-83301000D01*
X117401326Y-83296535D01*
X117363633Y-83285101D01*
X117328897Y-83266534D01*
X117298452Y-83241548D01*
X117273466Y-83211103D01*
X117254899Y-83176367D01*
X117243465Y-83138674D01*
X117239000Y-83093339D01*
X117239000Y-82006661D01*
X117243465Y-81961326D01*
X117254899Y-81923633D01*
X117273466Y-81888897D01*
X117298452Y-81858452D01*
X117328897Y-81833466D01*
X117363633Y-81814899D01*
X117401326Y-81803465D01*
X117446661Y-81799000D01*
X118283339Y-81799000D01*
X118328674Y-81803465D01*
X118328674Y-81803465D01*
G37*
G36*
X116278674Y-81803465D02*
G01*
X116316367Y-81814899D01*
X116351103Y-81833466D01*
X116381548Y-81858452D01*
X116406534Y-81888897D01*
X116425101Y-81923633D01*
X116436535Y-81961326D01*
X116441000Y-82006661D01*
X116441000Y-83093339D01*
X116436535Y-83138674D01*
X116425101Y-83176367D01*
X116406534Y-83211103D01*
X116381548Y-83241548D01*
X116351103Y-83266534D01*
X116316367Y-83285101D01*
X116278674Y-83296535D01*
X116233339Y-83301000D01*
X115396661Y-83301000D01*
X115351326Y-83296535D01*
X115313633Y-83285101D01*
X115278897Y-83266534D01*
X115248452Y-83241548D01*
X115223466Y-83211103D01*
X115204899Y-83176367D01*
X115193465Y-83138674D01*
X115189000Y-83093339D01*
X115189000Y-82006661D01*
X115193465Y-81961326D01*
X115204899Y-81923633D01*
X115223466Y-81888897D01*
X115248452Y-81858452D01*
X115278897Y-81833466D01*
X115313633Y-81814899D01*
X115351326Y-81803465D01*
X115396661Y-81799000D01*
X116233339Y-81799000D01*
X116278674Y-81803465D01*
X116278674Y-81803465D01*
G37*
G36*
X131353748Y-74007740D02*
G01*
X131353751Y-74007741D01*
X131353752Y-74007741D01*
X131551770Y-74067809D01*
X131551773Y-74067811D01*
X131551774Y-74067811D01*
X131734263Y-74165353D01*
X131894223Y-74296627D01*
X132025497Y-74456587D01*
X132123040Y-74639078D01*
X132183110Y-74837101D01*
X132198310Y-74991430D01*
X132198310Y-75843931D01*
X132183110Y-75998258D01*
X132183109Y-75998261D01*
X132183109Y-75998262D01*
X132123041Y-76196280D01*
X132123039Y-76196283D01*
X132123039Y-76196284D01*
X132025497Y-76378773D01*
X131894223Y-76538733D01*
X131775932Y-76635810D01*
X131734264Y-76670006D01*
X131551769Y-76767551D01*
X131353751Y-76827619D01*
X131353750Y-76827619D01*
X131353747Y-76827620D01*
X131147820Y-76847902D01*
X130941892Y-76827620D01*
X130941889Y-76827619D01*
X130941888Y-76827619D01*
X130743870Y-76767551D01*
X130743866Y-76767549D01*
X130561377Y-76670007D01*
X130401417Y-76538733D01*
X130304340Y-76420442D01*
X130270144Y-76378774D01*
X130172599Y-76196279D01*
X130112531Y-75998261D01*
X130112531Y-75998260D01*
X130112530Y-75998257D01*
X130097330Y-75843930D01*
X130097330Y-74991429D01*
X130112530Y-74837102D01*
X130172601Y-74639077D01*
X130270144Y-74456587D01*
X130401418Y-74296627D01*
X130561378Y-74165353D01*
X130743867Y-74067811D01*
X130743868Y-74067811D01*
X130743871Y-74067809D01*
X130941889Y-74007741D01*
X130941890Y-74007741D01*
X130941893Y-74007740D01*
X131147820Y-73987458D01*
X131353748Y-74007740D01*
X131353748Y-74007740D01*
G37*
G36*
X128813748Y-74007740D02*
G01*
X128813751Y-74007741D01*
X128813752Y-74007741D01*
X129011770Y-74067809D01*
X129011773Y-74067811D01*
X129011774Y-74067811D01*
X129194263Y-74165353D01*
X129354223Y-74296627D01*
X129485497Y-74456587D01*
X129583040Y-74639078D01*
X129643110Y-74837101D01*
X129658310Y-74991430D01*
X129658310Y-75843931D01*
X129643110Y-75998258D01*
X129643109Y-75998261D01*
X129643109Y-75998262D01*
X129583041Y-76196280D01*
X129583039Y-76196283D01*
X129583039Y-76196284D01*
X129485497Y-76378773D01*
X129354223Y-76538733D01*
X129235932Y-76635810D01*
X129194264Y-76670006D01*
X129011769Y-76767551D01*
X128813751Y-76827619D01*
X128813750Y-76827619D01*
X128813747Y-76827620D01*
X128607820Y-76847902D01*
X128401892Y-76827620D01*
X128401889Y-76827619D01*
X128401888Y-76827619D01*
X128203870Y-76767551D01*
X128203866Y-76767549D01*
X128021377Y-76670007D01*
X127861417Y-76538733D01*
X127764340Y-76420442D01*
X127730144Y-76378774D01*
X127632599Y-76196279D01*
X127572531Y-75998261D01*
X127572531Y-75998260D01*
X127572530Y-75998257D01*
X127557330Y-75843930D01*
X127557330Y-74991429D01*
X127572530Y-74837102D01*
X127632601Y-74639077D01*
X127730144Y-74456587D01*
X127861418Y-74296627D01*
X128021378Y-74165353D01*
X128203867Y-74067811D01*
X128203868Y-74067811D01*
X128203871Y-74067809D01*
X128401889Y-74007741D01*
X128401890Y-74007741D01*
X128401893Y-74007740D01*
X128607820Y-73987458D01*
X128813748Y-74007740D01*
X128813748Y-74007740D01*
G37*
G36*
X126273748Y-74007740D02*
G01*
X126273751Y-74007741D01*
X126273752Y-74007741D01*
X126471770Y-74067809D01*
X126471773Y-74067811D01*
X126471774Y-74067811D01*
X126654263Y-74165353D01*
X126814223Y-74296627D01*
X126945497Y-74456587D01*
X127043040Y-74639078D01*
X127103110Y-74837101D01*
X127118310Y-74991430D01*
X127118310Y-75843931D01*
X127103110Y-75998258D01*
X127103109Y-75998261D01*
X127103109Y-75998262D01*
X127043041Y-76196280D01*
X127043039Y-76196283D01*
X127043039Y-76196284D01*
X126945497Y-76378773D01*
X126814223Y-76538733D01*
X126695932Y-76635810D01*
X126654264Y-76670006D01*
X126471769Y-76767551D01*
X126273751Y-76827619D01*
X126273750Y-76827619D01*
X126273747Y-76827620D01*
X126067820Y-76847902D01*
X125861892Y-76827620D01*
X125861889Y-76827619D01*
X125861888Y-76827619D01*
X125663870Y-76767551D01*
X125663866Y-76767549D01*
X125481377Y-76670007D01*
X125321417Y-76538733D01*
X125224340Y-76420442D01*
X125190144Y-76378774D01*
X125092599Y-76196279D01*
X125032531Y-75998261D01*
X125032531Y-75998260D01*
X125032530Y-75998257D01*
X125017330Y-75843930D01*
X125017330Y-74991429D01*
X125032530Y-74837102D01*
X125092601Y-74639077D01*
X125190144Y-74456587D01*
X125321418Y-74296627D01*
X125481378Y-74165353D01*
X125663867Y-74067811D01*
X125663868Y-74067811D01*
X125663871Y-74067809D01*
X125861889Y-74007741D01*
X125861890Y-74007741D01*
X125861893Y-74007740D01*
X126067820Y-73987458D01*
X126273748Y-74007740D01*
X126273748Y-74007740D01*
G37*
G36*
X123733748Y-74007740D02*
G01*
X123733751Y-74007741D01*
X123733752Y-74007741D01*
X123931770Y-74067809D01*
X123931773Y-74067811D01*
X123931774Y-74067811D01*
X124114263Y-74165353D01*
X124274223Y-74296627D01*
X124405497Y-74456587D01*
X124503040Y-74639078D01*
X124563110Y-74837101D01*
X124578310Y-74991430D01*
X124578310Y-75843931D01*
X124563110Y-75998258D01*
X124563109Y-75998261D01*
X124563109Y-75998262D01*
X124503041Y-76196280D01*
X124503039Y-76196283D01*
X124503039Y-76196284D01*
X124405497Y-76378773D01*
X124274223Y-76538733D01*
X124155932Y-76635810D01*
X124114264Y-76670006D01*
X123931769Y-76767551D01*
X123733751Y-76827619D01*
X123733750Y-76827619D01*
X123733747Y-76827620D01*
X123527820Y-76847902D01*
X123321892Y-76827620D01*
X123321889Y-76827619D01*
X123321888Y-76827619D01*
X123123870Y-76767551D01*
X123123866Y-76767549D01*
X122941377Y-76670007D01*
X122781417Y-76538733D01*
X122684340Y-76420442D01*
X122650144Y-76378774D01*
X122552599Y-76196279D01*
X122492531Y-75998261D01*
X122492531Y-75998260D01*
X122492530Y-75998257D01*
X122477330Y-75843930D01*
X122477330Y-74991429D01*
X122492530Y-74837102D01*
X122552601Y-74639077D01*
X122650144Y-74456587D01*
X122781418Y-74296627D01*
X122941378Y-74165353D01*
X123123867Y-74067811D01*
X123123868Y-74067811D01*
X123123871Y-74067809D01*
X123321889Y-74007741D01*
X123321890Y-74007741D01*
X123321893Y-74007740D01*
X123527820Y-73987458D01*
X123733748Y-74007740D01*
X123733748Y-74007740D01*
G37*
G36*
X121193748Y-74007740D02*
G01*
X121193751Y-74007741D01*
X121193752Y-74007741D01*
X121391770Y-74067809D01*
X121391773Y-74067811D01*
X121391774Y-74067811D01*
X121574263Y-74165353D01*
X121734223Y-74296627D01*
X121865497Y-74456587D01*
X121963040Y-74639078D01*
X122023110Y-74837101D01*
X122038310Y-74991430D01*
X122038310Y-75843931D01*
X122023110Y-75998258D01*
X122023109Y-75998261D01*
X122023109Y-75998262D01*
X121963041Y-76196280D01*
X121963039Y-76196283D01*
X121963039Y-76196284D01*
X121865497Y-76378773D01*
X121734223Y-76538733D01*
X121615932Y-76635810D01*
X121574264Y-76670006D01*
X121391769Y-76767551D01*
X121193751Y-76827619D01*
X121193750Y-76827619D01*
X121193747Y-76827620D01*
X120987820Y-76847902D01*
X120781892Y-76827620D01*
X120781889Y-76827619D01*
X120781888Y-76827619D01*
X120583870Y-76767551D01*
X120583866Y-76767549D01*
X120401377Y-76670007D01*
X120241417Y-76538733D01*
X120144340Y-76420442D01*
X120110144Y-76378774D01*
X120012599Y-76196279D01*
X119952531Y-75998261D01*
X119952531Y-75998260D01*
X119952530Y-75998257D01*
X119937330Y-75843930D01*
X119937330Y-74991429D01*
X119952530Y-74837102D01*
X120012601Y-74639077D01*
X120110144Y-74456587D01*
X120241418Y-74296627D01*
X120401378Y-74165353D01*
X120583867Y-74067811D01*
X120583868Y-74067811D01*
X120583871Y-74067809D01*
X120781889Y-74007741D01*
X120781890Y-74007741D01*
X120781893Y-74007740D01*
X120987820Y-73987458D01*
X121193748Y-74007740D01*
X121193748Y-74007740D01*
G37*
G36*
X118653748Y-74007740D02*
G01*
X118653751Y-74007741D01*
X118653752Y-74007741D01*
X118851770Y-74067809D01*
X118851773Y-74067811D01*
X118851774Y-74067811D01*
X119034263Y-74165353D01*
X119194223Y-74296627D01*
X119325497Y-74456587D01*
X119423040Y-74639078D01*
X119483110Y-74837101D01*
X119498310Y-74991430D01*
X119498310Y-75843931D01*
X119483110Y-75998258D01*
X119483109Y-75998261D01*
X119483109Y-75998262D01*
X119423041Y-76196280D01*
X119423039Y-76196283D01*
X119423039Y-76196284D01*
X119325497Y-76378773D01*
X119194223Y-76538733D01*
X119075932Y-76635810D01*
X119034264Y-76670006D01*
X118851769Y-76767551D01*
X118653751Y-76827619D01*
X118653750Y-76827619D01*
X118653747Y-76827620D01*
X118447820Y-76847902D01*
X118241892Y-76827620D01*
X118241889Y-76827619D01*
X118241888Y-76827619D01*
X118043870Y-76767551D01*
X118043866Y-76767549D01*
X117861377Y-76670007D01*
X117701417Y-76538733D01*
X117604340Y-76420442D01*
X117570144Y-76378774D01*
X117472599Y-76196279D01*
X117412531Y-75998261D01*
X117412531Y-75998260D01*
X117412530Y-75998257D01*
X117397330Y-75843930D01*
X117397330Y-74991429D01*
X117412530Y-74837102D01*
X117472601Y-74639077D01*
X117570144Y-74456587D01*
X117701418Y-74296627D01*
X117861378Y-74165353D01*
X118043867Y-74067811D01*
X118043868Y-74067811D01*
X118043871Y-74067809D01*
X118241889Y-74007741D01*
X118241890Y-74007741D01*
X118241893Y-74007740D01*
X118447820Y-73987458D01*
X118653748Y-74007740D01*
X118653748Y-74007740D01*
G37*
G36*
X116113748Y-74007740D02*
G01*
X116113751Y-74007741D01*
X116113752Y-74007741D01*
X116311770Y-74067809D01*
X116311773Y-74067811D01*
X116311774Y-74067811D01*
X116494263Y-74165353D01*
X116654223Y-74296627D01*
X116785497Y-74456587D01*
X116883040Y-74639078D01*
X116943110Y-74837101D01*
X116958310Y-74991430D01*
X116958310Y-75843931D01*
X116943110Y-75998258D01*
X116943109Y-75998261D01*
X116943109Y-75998262D01*
X116883041Y-76196280D01*
X116883039Y-76196283D01*
X116883039Y-76196284D01*
X116785497Y-76378773D01*
X116654223Y-76538733D01*
X116535932Y-76635810D01*
X116494264Y-76670006D01*
X116311769Y-76767551D01*
X116113751Y-76827619D01*
X116113750Y-76827619D01*
X116113747Y-76827620D01*
X115907820Y-76847902D01*
X115701892Y-76827620D01*
X115701889Y-76827619D01*
X115701888Y-76827619D01*
X115503870Y-76767551D01*
X115503866Y-76767549D01*
X115321377Y-76670007D01*
X115161417Y-76538733D01*
X115064340Y-76420442D01*
X115030144Y-76378774D01*
X114932599Y-76196279D01*
X114872531Y-75998261D01*
X114872531Y-75998260D01*
X114872530Y-75998257D01*
X114857330Y-75843930D01*
X114857330Y-74991429D01*
X114872530Y-74837102D01*
X114932601Y-74639077D01*
X115030144Y-74456587D01*
X115161418Y-74296627D01*
X115321378Y-74165353D01*
X115503867Y-74067811D01*
X115503868Y-74067811D01*
X115503871Y-74067809D01*
X115701889Y-74007741D01*
X115701890Y-74007741D01*
X115701893Y-74007740D01*
X115907820Y-73987458D01*
X116113748Y-74007740D01*
X116113748Y-74007740D01*
G37*
G36*
X75114056Y-73213249D02*
G01*
X75228891Y-73260815D01*
X75332239Y-73329870D01*
X75420130Y-73417761D01*
X75489185Y-73521109D01*
X75536751Y-73635944D01*
X75561000Y-73757852D01*
X75561000Y-73882148D01*
X75536751Y-74004056D01*
X75489185Y-74118891D01*
X75420130Y-74222239D01*
X75332239Y-74310130D01*
X75228891Y-74379185D01*
X75228890Y-74379186D01*
X75228889Y-74379186D01*
X75114056Y-74426751D01*
X74992149Y-74451000D01*
X74867851Y-74451000D01*
X74745944Y-74426751D01*
X74631111Y-74379186D01*
X74631110Y-74379186D01*
X74631109Y-74379185D01*
X74527761Y-74310130D01*
X74439870Y-74222239D01*
X74370815Y-74118891D01*
X74323249Y-74004056D01*
X74299000Y-73882148D01*
X74299000Y-73757852D01*
X74323249Y-73635944D01*
X74370815Y-73521109D01*
X74439870Y-73417761D01*
X74527761Y-73329870D01*
X74631109Y-73260815D01*
X74745944Y-73213249D01*
X74867851Y-73189000D01*
X74992149Y-73189000D01*
X75114056Y-73213249D01*
X75114056Y-73213249D01*
G37*
G36*
X72574056Y-73213249D02*
G01*
X72688891Y-73260815D01*
X72792239Y-73329870D01*
X72880130Y-73417761D01*
X72949185Y-73521109D01*
X72996751Y-73635944D01*
X73021000Y-73757852D01*
X73021000Y-73882148D01*
X72996751Y-74004056D01*
X72949185Y-74118891D01*
X72880130Y-74222239D01*
X72792239Y-74310130D01*
X72688891Y-74379185D01*
X72688890Y-74379186D01*
X72688889Y-74379186D01*
X72574056Y-74426751D01*
X72452149Y-74451000D01*
X72327851Y-74451000D01*
X72205944Y-74426751D01*
X72091111Y-74379186D01*
X72091110Y-74379186D01*
X72091109Y-74379185D01*
X71987761Y-74310130D01*
X71899870Y-74222239D01*
X71830815Y-74118891D01*
X71783249Y-74004056D01*
X71759000Y-73882148D01*
X71759000Y-73757852D01*
X71783249Y-73635944D01*
X71830815Y-73521109D01*
X71899870Y-73417761D01*
X71987761Y-73329870D01*
X72091109Y-73260815D01*
X72205944Y-73213249D01*
X72327851Y-73189000D01*
X72452149Y-73189000D01*
X72574056Y-73213249D01*
X72574056Y-73213249D01*
G37*
G36*
X70034056Y-73213249D02*
G01*
X70148891Y-73260815D01*
X70252239Y-73329870D01*
X70340130Y-73417761D01*
X70409185Y-73521109D01*
X70456751Y-73635944D01*
X70481000Y-73757852D01*
X70481000Y-73882148D01*
X70456751Y-74004056D01*
X70409185Y-74118891D01*
X70340130Y-74222239D01*
X70252239Y-74310130D01*
X70148891Y-74379185D01*
X70148890Y-74379186D01*
X70148889Y-74379186D01*
X70034056Y-74426751D01*
X69912149Y-74451000D01*
X69787851Y-74451000D01*
X69665944Y-74426751D01*
X69551111Y-74379186D01*
X69551110Y-74379186D01*
X69551109Y-74379185D01*
X69447761Y-74310130D01*
X69359870Y-74222239D01*
X69290815Y-74118891D01*
X69243249Y-74004056D01*
X69219000Y-73882148D01*
X69219000Y-73757852D01*
X69243249Y-73635944D01*
X69290815Y-73521109D01*
X69359870Y-73417761D01*
X69447761Y-73329870D01*
X69551109Y-73260815D01*
X69665944Y-73213249D01*
X69787851Y-73189000D01*
X69912149Y-73189000D01*
X70034056Y-73213249D01*
X70034056Y-73213249D01*
G37*
G36*
X67494056Y-73213249D02*
G01*
X67608891Y-73260815D01*
X67712239Y-73329870D01*
X67800130Y-73417761D01*
X67869185Y-73521109D01*
X67916751Y-73635944D01*
X67941000Y-73757852D01*
X67941000Y-73882148D01*
X67916751Y-74004056D01*
X67869185Y-74118891D01*
X67800130Y-74222239D01*
X67712239Y-74310130D01*
X67608891Y-74379185D01*
X67608890Y-74379186D01*
X67608889Y-74379186D01*
X67494056Y-74426751D01*
X67372149Y-74451000D01*
X67247851Y-74451000D01*
X67125944Y-74426751D01*
X67011111Y-74379186D01*
X67011110Y-74379186D01*
X67011109Y-74379185D01*
X66907761Y-74310130D01*
X66819870Y-74222239D01*
X66750815Y-74118891D01*
X66703249Y-74004056D01*
X66679000Y-73882148D01*
X66679000Y-73757852D01*
X66703249Y-73635944D01*
X66750815Y-73521109D01*
X66819870Y-73417761D01*
X66907761Y-73329870D01*
X67011109Y-73260815D01*
X67125944Y-73213249D01*
X67247851Y-73189000D01*
X67372149Y-73189000D01*
X67494056Y-73213249D01*
X67494056Y-73213249D01*
G37*
G36*
X64954056Y-73213249D02*
G01*
X65068891Y-73260815D01*
X65172239Y-73329870D01*
X65260130Y-73417761D01*
X65329185Y-73521109D01*
X65376751Y-73635944D01*
X65401000Y-73757852D01*
X65401000Y-73882148D01*
X65376751Y-74004056D01*
X65329185Y-74118891D01*
X65260130Y-74222239D01*
X65172239Y-74310130D01*
X65068891Y-74379185D01*
X65068890Y-74379186D01*
X65068889Y-74379186D01*
X64954056Y-74426751D01*
X64832149Y-74451000D01*
X64707851Y-74451000D01*
X64585944Y-74426751D01*
X64471111Y-74379186D01*
X64471110Y-74379186D01*
X64471109Y-74379185D01*
X64367761Y-74310130D01*
X64279870Y-74222239D01*
X64210815Y-74118891D01*
X64163249Y-74004056D01*
X64139000Y-73882148D01*
X64139000Y-73757852D01*
X64163249Y-73635944D01*
X64210815Y-73521109D01*
X64279870Y-73417761D01*
X64367761Y-73329870D01*
X64471109Y-73260815D01*
X64585944Y-73213249D01*
X64707851Y-73189000D01*
X64832149Y-73189000D01*
X64954056Y-73213249D01*
X64954056Y-73213249D01*
G37*
G36*
X62414056Y-73213249D02*
G01*
X62528891Y-73260815D01*
X62632239Y-73329870D01*
X62720130Y-73417761D01*
X62789185Y-73521109D01*
X62836751Y-73635944D01*
X62861000Y-73757852D01*
X62861000Y-73882148D01*
X62836751Y-74004056D01*
X62789185Y-74118891D01*
X62720130Y-74222239D01*
X62632239Y-74310130D01*
X62528891Y-74379185D01*
X62528890Y-74379186D01*
X62528889Y-74379186D01*
X62414056Y-74426751D01*
X62292149Y-74451000D01*
X62167851Y-74451000D01*
X62045944Y-74426751D01*
X61931111Y-74379186D01*
X61931110Y-74379186D01*
X61931109Y-74379185D01*
X61827761Y-74310130D01*
X61739870Y-74222239D01*
X61670815Y-74118891D01*
X61623249Y-74004056D01*
X61599000Y-73882148D01*
X61599000Y-73757852D01*
X61623249Y-73635944D01*
X61670815Y-73521109D01*
X61739870Y-73417761D01*
X61827761Y-73329870D01*
X61931109Y-73260815D01*
X62045944Y-73213249D01*
X62167851Y-73189000D01*
X62292149Y-73189000D01*
X62414056Y-73213249D01*
X62414056Y-73213249D01*
G37*
G36*
X59874056Y-73213249D02*
G01*
X59988891Y-73260815D01*
X60092239Y-73329870D01*
X60180130Y-73417761D01*
X60249185Y-73521109D01*
X60296751Y-73635944D01*
X60321000Y-73757852D01*
X60321000Y-73882148D01*
X60296751Y-74004056D01*
X60249185Y-74118891D01*
X60180130Y-74222239D01*
X60092239Y-74310130D01*
X59988891Y-74379185D01*
X59988890Y-74379186D01*
X59988889Y-74379186D01*
X59874056Y-74426751D01*
X59752149Y-74451000D01*
X59627851Y-74451000D01*
X59505944Y-74426751D01*
X59391111Y-74379186D01*
X59391110Y-74379186D01*
X59391109Y-74379185D01*
X59287761Y-74310130D01*
X59199870Y-74222239D01*
X59130815Y-74118891D01*
X59083249Y-74004056D01*
X59059000Y-73882148D01*
X59059000Y-73757852D01*
X59083249Y-73635944D01*
X59130815Y-73521109D01*
X59199870Y-73417761D01*
X59287761Y-73329870D01*
X59391109Y-73260815D01*
X59505944Y-73213249D01*
X59627851Y-73189000D01*
X59752149Y-73189000D01*
X59874056Y-73213249D01*
X59874056Y-73213249D01*
G37*
G36*
X57334056Y-73213249D02*
G01*
X57448891Y-73260815D01*
X57552239Y-73329870D01*
X57640130Y-73417761D01*
X57709185Y-73521109D01*
X57756751Y-73635944D01*
X57781000Y-73757852D01*
X57781000Y-73882148D01*
X57756751Y-74004056D01*
X57709185Y-74118891D01*
X57640130Y-74222239D01*
X57552239Y-74310130D01*
X57448891Y-74379185D01*
X57448890Y-74379186D01*
X57448889Y-74379186D01*
X57334056Y-74426751D01*
X57212149Y-74451000D01*
X57087851Y-74451000D01*
X56965944Y-74426751D01*
X56851111Y-74379186D01*
X56851110Y-74379186D01*
X56851109Y-74379185D01*
X56747761Y-74310130D01*
X56659870Y-74222239D01*
X56590815Y-74118891D01*
X56543249Y-74004056D01*
X56519000Y-73882148D01*
X56519000Y-73757852D01*
X56543249Y-73635944D01*
X56590815Y-73521109D01*
X56659870Y-73417761D01*
X56747761Y-73329870D01*
X56851109Y-73260815D01*
X56965944Y-73213249D01*
X57087851Y-73189000D01*
X57212149Y-73189000D01*
X57334056Y-73213249D01*
X57334056Y-73213249D01*
G37*
G36*
X54794056Y-73213249D02*
G01*
X54908891Y-73260815D01*
X55012239Y-73329870D01*
X55100130Y-73417761D01*
X55169185Y-73521109D01*
X55216751Y-73635944D01*
X55241000Y-73757852D01*
X55241000Y-73882148D01*
X55216751Y-74004056D01*
X55169185Y-74118891D01*
X55100130Y-74222239D01*
X55012239Y-74310130D01*
X54908891Y-74379185D01*
X54908890Y-74379186D01*
X54908889Y-74379186D01*
X54794056Y-74426751D01*
X54672149Y-74451000D01*
X54547851Y-74451000D01*
X54425944Y-74426751D01*
X54311111Y-74379186D01*
X54311110Y-74379186D01*
X54311109Y-74379185D01*
X54207761Y-74310130D01*
X54119870Y-74222239D01*
X54050815Y-74118891D01*
X54003249Y-74004056D01*
X53979000Y-73882148D01*
X53979000Y-73757852D01*
X54003249Y-73635944D01*
X54050815Y-73521109D01*
X54119870Y-73417761D01*
X54207761Y-73329870D01*
X54311109Y-73260815D01*
X54425944Y-73213249D01*
X54547851Y-73189000D01*
X54672149Y-73189000D01*
X54794056Y-73213249D01*
X54794056Y-73213249D01*
G37*
G36*
X52254056Y-73213249D02*
G01*
X52368891Y-73260815D01*
X52472239Y-73329870D01*
X52560130Y-73417761D01*
X52629185Y-73521109D01*
X52676751Y-73635944D01*
X52701000Y-73757852D01*
X52701000Y-73882148D01*
X52676751Y-74004056D01*
X52629185Y-74118891D01*
X52560130Y-74222239D01*
X52472239Y-74310130D01*
X52368891Y-74379185D01*
X52368890Y-74379186D01*
X52368889Y-74379186D01*
X52254056Y-74426751D01*
X52132149Y-74451000D01*
X52007851Y-74451000D01*
X51885944Y-74426751D01*
X51771111Y-74379186D01*
X51771110Y-74379186D01*
X51771109Y-74379185D01*
X51667761Y-74310130D01*
X51579870Y-74222239D01*
X51510815Y-74118891D01*
X51463249Y-74004056D01*
X51439000Y-73882148D01*
X51439000Y-73757852D01*
X51463249Y-73635944D01*
X51510815Y-73521109D01*
X51579870Y-73417761D01*
X51667761Y-73329870D01*
X51771109Y-73260815D01*
X51885944Y-73213249D01*
X52007851Y-73189000D01*
X52132149Y-73189000D01*
X52254056Y-73213249D01*
X52254056Y-73213249D01*
G37*
G36*
X80194056Y-73213249D02*
G01*
X80308891Y-73260815D01*
X80412239Y-73329870D01*
X80500130Y-73417761D01*
X80569185Y-73521109D01*
X80616751Y-73635944D01*
X80641000Y-73757852D01*
X80641000Y-73882148D01*
X80616751Y-74004056D01*
X80569185Y-74118891D01*
X80500130Y-74222239D01*
X80412239Y-74310130D01*
X80308891Y-74379185D01*
X80308890Y-74379186D01*
X80308889Y-74379186D01*
X80194056Y-74426751D01*
X80072149Y-74451000D01*
X79947851Y-74451000D01*
X79825944Y-74426751D01*
X79711111Y-74379186D01*
X79711110Y-74379186D01*
X79711109Y-74379185D01*
X79607761Y-74310130D01*
X79519870Y-74222239D01*
X79450815Y-74118891D01*
X79403249Y-74004056D01*
X79379000Y-73882148D01*
X79379000Y-73757852D01*
X79403249Y-73635944D01*
X79450815Y-73521109D01*
X79519870Y-73417761D01*
X79607761Y-73329870D01*
X79711109Y-73260815D01*
X79825944Y-73213249D01*
X79947851Y-73189000D01*
X80072149Y-73189000D01*
X80194056Y-73213249D01*
X80194056Y-73213249D01*
G37*
G36*
X77654056Y-73213249D02*
G01*
X77768891Y-73260815D01*
X77872239Y-73329870D01*
X77960130Y-73417761D01*
X78029185Y-73521109D01*
X78076751Y-73635944D01*
X78101000Y-73757852D01*
X78101000Y-73882148D01*
X78076751Y-74004056D01*
X78029185Y-74118891D01*
X77960130Y-74222239D01*
X77872239Y-74310130D01*
X77768891Y-74379185D01*
X77768890Y-74379186D01*
X77768889Y-74379186D01*
X77654056Y-74426751D01*
X77532149Y-74451000D01*
X77407851Y-74451000D01*
X77285944Y-74426751D01*
X77171111Y-74379186D01*
X77171110Y-74379186D01*
X77171109Y-74379185D01*
X77067761Y-74310130D01*
X76979870Y-74222239D01*
X76910815Y-74118891D01*
X76863249Y-74004056D01*
X76839000Y-73882148D01*
X76839000Y-73757852D01*
X76863249Y-73635944D01*
X76910815Y-73521109D01*
X76979870Y-73417761D01*
X77067761Y-73329870D01*
X77171109Y-73260815D01*
X77285944Y-73213249D01*
X77407851Y-73189000D01*
X77532149Y-73189000D01*
X77654056Y-73213249D01*
X77654056Y-73213249D01*
G37*
G36*
X69591000Y-70495500D02*
G01*
X68839000Y-70495500D01*
X68839000Y-68468500D01*
X69591000Y-68468500D01*
X69591000Y-70495500D01*
X69591000Y-70495500D01*
G37*
G36*
X63241000Y-70495500D02*
G01*
X62489000Y-70495500D01*
X62489000Y-68468500D01*
X63241000Y-68468500D01*
X63241000Y-70495500D01*
X63241000Y-70495500D01*
G37*
G36*
X68321000Y-70495500D02*
G01*
X67569000Y-70495500D01*
X67569000Y-68468500D01*
X68321000Y-68468500D01*
X68321000Y-70495500D01*
X68321000Y-70495500D01*
G37*
G36*
X67051000Y-70495500D02*
G01*
X66299000Y-70495500D01*
X66299000Y-68468500D01*
X67051000Y-68468500D01*
X67051000Y-70495500D01*
X67051000Y-70495500D01*
G37*
G36*
X65781000Y-70495500D02*
G01*
X65029000Y-70495500D01*
X65029000Y-68468500D01*
X65781000Y-68468500D01*
X65781000Y-70495500D01*
X65781000Y-70495500D01*
G37*
G36*
X64511000Y-70495500D02*
G01*
X63759000Y-70495500D01*
X63759000Y-68468500D01*
X64511000Y-68468500D01*
X64511000Y-70495500D01*
X64511000Y-70495500D01*
G37*
G36*
X61971000Y-70495500D02*
G01*
X61219000Y-70495500D01*
X61219000Y-68468500D01*
X61971000Y-68468500D01*
X61971000Y-70495500D01*
X61971000Y-70495500D01*
G37*
G36*
X60701000Y-70495500D02*
G01*
X59949000Y-70495500D01*
X59949000Y-68468500D01*
X60701000Y-68468500D01*
X60701000Y-70495500D01*
X60701000Y-70495500D01*
G37*
G36*
X70861000Y-70495500D02*
G01*
X70109000Y-70495500D01*
X70109000Y-68468500D01*
X70861000Y-68468500D01*
X70861000Y-70495500D01*
X70861000Y-70495500D01*
G37*
G36*
X72131000Y-70495500D02*
G01*
X71379000Y-70495500D01*
X71379000Y-68468500D01*
X72131000Y-68468500D01*
X72131000Y-70495500D01*
X72131000Y-70495500D01*
G37*
G36*
X73401000Y-70495500D02*
G01*
X72649000Y-70495500D01*
X72649000Y-68468500D01*
X73401000Y-68468500D01*
X73401000Y-70495500D01*
X73401000Y-70495500D01*
G37*
G36*
X74671000Y-70495500D02*
G01*
X73919000Y-70495500D01*
X73919000Y-68468500D01*
X74671000Y-68468500D01*
X74671000Y-70495500D01*
X74671000Y-70495500D01*
G37*
G36*
X129415631Y-68048264D02*
G01*
X129475764Y-68060225D01*
X129513526Y-68075867D01*
X129589053Y-68107151D01*
X129691005Y-68175273D01*
X129777717Y-68261985D01*
X129845839Y-68363937D01*
X129892765Y-68477227D01*
X129916687Y-68597491D01*
X129916687Y-68720115D01*
X129892765Y-68840379D01*
X129845839Y-68953669D01*
X129777717Y-69055621D01*
X129691005Y-69142333D01*
X129589053Y-69210455D01*
X129513526Y-69241739D01*
X129475764Y-69257381D01*
X129415631Y-69269342D01*
X129355499Y-69281303D01*
X129232875Y-69281303D01*
X129172743Y-69269342D01*
X129112610Y-69257381D01*
X129074848Y-69241739D01*
X128999321Y-69210455D01*
X128897369Y-69142333D01*
X128810657Y-69055621D01*
X128742535Y-68953669D01*
X128695609Y-68840379D01*
X128671687Y-68720115D01*
X128671687Y-68597491D01*
X128695609Y-68477227D01*
X128742535Y-68363937D01*
X128810657Y-68261985D01*
X128897369Y-68175273D01*
X128999321Y-68107151D01*
X129074848Y-68075867D01*
X129112610Y-68060225D01*
X129172743Y-68048264D01*
X129232875Y-68036303D01*
X129355499Y-68036303D01*
X129415631Y-68048264D01*
X129415631Y-68048264D01*
G37*
G36*
X131955631Y-68048264D02*
G01*
X132015764Y-68060225D01*
X132053526Y-68075867D01*
X132129053Y-68107151D01*
X132231005Y-68175273D01*
X132317717Y-68261985D01*
X132385839Y-68363937D01*
X132432765Y-68477227D01*
X132456687Y-68597491D01*
X132456687Y-68720115D01*
X132432765Y-68840379D01*
X132385839Y-68953669D01*
X132317717Y-69055621D01*
X132231005Y-69142333D01*
X132129053Y-69210455D01*
X132053526Y-69241739D01*
X132015764Y-69257381D01*
X131955631Y-69269342D01*
X131895499Y-69281303D01*
X131772875Y-69281303D01*
X131712743Y-69269342D01*
X131652610Y-69257381D01*
X131614848Y-69241739D01*
X131539321Y-69210455D01*
X131437369Y-69142333D01*
X131350657Y-69055621D01*
X131282535Y-68953669D01*
X131235609Y-68840379D01*
X131211687Y-68720115D01*
X131211687Y-68597491D01*
X131235609Y-68477227D01*
X131282535Y-68363937D01*
X131350657Y-68261985D01*
X131437369Y-68175273D01*
X131539321Y-68107151D01*
X131614848Y-68075867D01*
X131652610Y-68060225D01*
X131712743Y-68048264D01*
X131772875Y-68036303D01*
X131895499Y-68036303D01*
X131955631Y-68048264D01*
X131955631Y-68048264D01*
G37*
G36*
X115447579Y-68119088D02*
G01*
X115447582Y-68119089D01*
X115447583Y-68119089D01*
X115552955Y-68151053D01*
X115552958Y-68151055D01*
X115552959Y-68151055D01*
X115650065Y-68202959D01*
X115650067Y-68202960D01*
X115650066Y-68202960D01*
X115735185Y-68272815D01*
X115805040Y-68357934D01*
X115856947Y-68455045D01*
X115888911Y-68560417D01*
X115888912Y-68560421D01*
X115899704Y-68670000D01*
X115888912Y-68779579D01*
X115888911Y-68779582D01*
X115888911Y-68779583D01*
X115856947Y-68884955D01*
X115856945Y-68884958D01*
X115856945Y-68884959D01*
X115805041Y-68982065D01*
X115735185Y-69067185D01*
X115650065Y-69137041D01*
X115640164Y-69142333D01*
X115552955Y-69188947D01*
X115447583Y-69220911D01*
X115447582Y-69220911D01*
X115447579Y-69220912D01*
X115365458Y-69229000D01*
X114294542Y-69229000D01*
X114212421Y-69220912D01*
X114212418Y-69220911D01*
X114212417Y-69220911D01*
X114107045Y-69188947D01*
X114019836Y-69142333D01*
X114009935Y-69137041D01*
X113924815Y-69067185D01*
X113854959Y-68982065D01*
X113803055Y-68884959D01*
X113803055Y-68884958D01*
X113803053Y-68884955D01*
X113771089Y-68779583D01*
X113771089Y-68779582D01*
X113771088Y-68779579D01*
X113760296Y-68670000D01*
X113771088Y-68560421D01*
X113771089Y-68560417D01*
X113803053Y-68455045D01*
X113854960Y-68357934D01*
X113924815Y-68272815D01*
X114009934Y-68202960D01*
X114009933Y-68202960D01*
X114009935Y-68202959D01*
X114107041Y-68151055D01*
X114107042Y-68151055D01*
X114107045Y-68151053D01*
X114212417Y-68119089D01*
X114212418Y-68119089D01*
X114212421Y-68119088D01*
X114294542Y-68111000D01*
X115365458Y-68111000D01*
X115447579Y-68119088D01*
X115447579Y-68119088D01*
G37*
G36*
X129415631Y-65508264D02*
G01*
X129475764Y-65520225D01*
X129513526Y-65535867D01*
X129589053Y-65567151D01*
X129691005Y-65635273D01*
X129777717Y-65721985D01*
X129845839Y-65823937D01*
X129892765Y-65937227D01*
X129916687Y-66057491D01*
X129916687Y-66180115D01*
X129892765Y-66300379D01*
X129845839Y-66413669D01*
X129777717Y-66515621D01*
X129691005Y-66602333D01*
X129589053Y-66670455D01*
X129513526Y-66701739D01*
X129475764Y-66717381D01*
X129415631Y-66729342D01*
X129355499Y-66741303D01*
X129232875Y-66741303D01*
X129172743Y-66729342D01*
X129112610Y-66717381D01*
X129074848Y-66701739D01*
X128999321Y-66670455D01*
X128897369Y-66602333D01*
X128810657Y-66515621D01*
X128742535Y-66413669D01*
X128695609Y-66300379D01*
X128671687Y-66180115D01*
X128671687Y-66057491D01*
X128695609Y-65937227D01*
X128742535Y-65823937D01*
X128810657Y-65721985D01*
X128897369Y-65635273D01*
X128999321Y-65567151D01*
X129074848Y-65535867D01*
X129112610Y-65520225D01*
X129172743Y-65508264D01*
X129232875Y-65496303D01*
X129355499Y-65496303D01*
X129415631Y-65508264D01*
X129415631Y-65508264D01*
G37*
G36*
X131955631Y-65508264D02*
G01*
X132015764Y-65520225D01*
X132053526Y-65535867D01*
X132129053Y-65567151D01*
X132231005Y-65635273D01*
X132317717Y-65721985D01*
X132385839Y-65823937D01*
X132432765Y-65937227D01*
X132456687Y-66057491D01*
X132456687Y-66180115D01*
X132432765Y-66300379D01*
X132385839Y-66413669D01*
X132317717Y-66515621D01*
X132231005Y-66602333D01*
X132129053Y-66670455D01*
X132053526Y-66701739D01*
X132015764Y-66717381D01*
X131955631Y-66729342D01*
X131895499Y-66741303D01*
X131772875Y-66741303D01*
X131712743Y-66729342D01*
X131652610Y-66717381D01*
X131614848Y-66701739D01*
X131539321Y-66670455D01*
X131437369Y-66602333D01*
X131350657Y-66515621D01*
X131282535Y-66413669D01*
X131235609Y-66300379D01*
X131211687Y-66180115D01*
X131211687Y-66057491D01*
X131235609Y-65937227D01*
X131282535Y-65823937D01*
X131350657Y-65721985D01*
X131437369Y-65635273D01*
X131539321Y-65567151D01*
X131614848Y-65535867D01*
X131652610Y-65520225D01*
X131712743Y-65508264D01*
X131772875Y-65496303D01*
X131895499Y-65496303D01*
X131955631Y-65508264D01*
X131955631Y-65508264D01*
G37*
G36*
X115447579Y-65569088D02*
G01*
X115447582Y-65569089D01*
X115447583Y-65569089D01*
X115552955Y-65601053D01*
X115552958Y-65601055D01*
X115552959Y-65601055D01*
X115650065Y-65652959D01*
X115735185Y-65722815D01*
X115805041Y-65807935D01*
X115813594Y-65823937D01*
X115856947Y-65905045D01*
X115868202Y-65942149D01*
X115888912Y-66010421D01*
X115899704Y-66120000D01*
X115888912Y-66229579D01*
X115888911Y-66229582D01*
X115888911Y-66229583D01*
X115856947Y-66334955D01*
X115856945Y-66334958D01*
X115856945Y-66334959D01*
X115805041Y-66432065D01*
X115735185Y-66517185D01*
X115650065Y-66587041D01*
X115552959Y-66638945D01*
X115552955Y-66638947D01*
X115447583Y-66670911D01*
X115447582Y-66670911D01*
X115447579Y-66670912D01*
X115365458Y-66679000D01*
X114294542Y-66679000D01*
X114212421Y-66670912D01*
X114212418Y-66670911D01*
X114212417Y-66670911D01*
X114107045Y-66638947D01*
X114107041Y-66638945D01*
X114009935Y-66587041D01*
X113924815Y-66517185D01*
X113854959Y-66432065D01*
X113803055Y-66334959D01*
X113803055Y-66334958D01*
X113803053Y-66334955D01*
X113771089Y-66229583D01*
X113771089Y-66229582D01*
X113771088Y-66229579D01*
X113760296Y-66120000D01*
X113771088Y-66010421D01*
X113791798Y-65942149D01*
X113803053Y-65905045D01*
X113846406Y-65823937D01*
X113854959Y-65807935D01*
X113924815Y-65722815D01*
X114009935Y-65652959D01*
X114107041Y-65601055D01*
X114107042Y-65601055D01*
X114107045Y-65601053D01*
X114212417Y-65569089D01*
X114212418Y-65569089D01*
X114212421Y-65569088D01*
X114294542Y-65561000D01*
X115365458Y-65561000D01*
X115447579Y-65569088D01*
X115447579Y-65569088D01*
G37*
G36*
X57334056Y-65273249D02*
G01*
X57448891Y-65320815D01*
X57552239Y-65389870D01*
X57640130Y-65477761D01*
X57701153Y-65569089D01*
X57709186Y-65581111D01*
X57756751Y-65695944D01*
X57781000Y-65817851D01*
X57781000Y-65942149D01*
X57767420Y-66010421D01*
X57756751Y-66064056D01*
X57709185Y-66178891D01*
X57640130Y-66282239D01*
X57552239Y-66370130D01*
X57448891Y-66439185D01*
X57448890Y-66439186D01*
X57448889Y-66439186D01*
X57334056Y-66486751D01*
X57212149Y-66511000D01*
X57087851Y-66511000D01*
X56965944Y-66486751D01*
X56851111Y-66439186D01*
X56851110Y-66439186D01*
X56851109Y-66439185D01*
X56747761Y-66370130D01*
X56659870Y-66282239D01*
X56590815Y-66178891D01*
X56543249Y-66064056D01*
X56532580Y-66010421D01*
X56519000Y-65942149D01*
X56519000Y-65817851D01*
X56543249Y-65695944D01*
X56590814Y-65581111D01*
X56598847Y-65569089D01*
X56659870Y-65477761D01*
X56747761Y-65389870D01*
X56851109Y-65320815D01*
X56965944Y-65273249D01*
X57087851Y-65249000D01*
X57212149Y-65249000D01*
X57334056Y-65273249D01*
X57334056Y-65273249D01*
G37*
G36*
X77654056Y-65273249D02*
G01*
X77768891Y-65320815D01*
X77872239Y-65389870D01*
X77960130Y-65477761D01*
X78021153Y-65569089D01*
X78029186Y-65581111D01*
X78076751Y-65695944D01*
X78101000Y-65817851D01*
X78101000Y-65942149D01*
X78087420Y-66010421D01*
X78076751Y-66064056D01*
X78029185Y-66178891D01*
X77960130Y-66282239D01*
X77872239Y-66370130D01*
X77768891Y-66439185D01*
X77768890Y-66439186D01*
X77768889Y-66439186D01*
X77654056Y-66486751D01*
X77532149Y-66511000D01*
X77407851Y-66511000D01*
X77285944Y-66486751D01*
X77171111Y-66439186D01*
X77171110Y-66439186D01*
X77171109Y-66439185D01*
X77067761Y-66370130D01*
X76979870Y-66282239D01*
X76910815Y-66178891D01*
X76863249Y-66064056D01*
X76852580Y-66010421D01*
X76839000Y-65942149D01*
X76839000Y-65817851D01*
X76863249Y-65695944D01*
X76910814Y-65581111D01*
X76918847Y-65569089D01*
X76979870Y-65477761D01*
X77067761Y-65389870D01*
X77171109Y-65320815D01*
X77285944Y-65273249D01*
X77407851Y-65249000D01*
X77532149Y-65249000D01*
X77654056Y-65273249D01*
X77654056Y-65273249D01*
G37*
G36*
X52254056Y-65273249D02*
G01*
X52368891Y-65320815D01*
X52472239Y-65389870D01*
X52560130Y-65477761D01*
X52621153Y-65569089D01*
X52629186Y-65581111D01*
X52676751Y-65695944D01*
X52701000Y-65817851D01*
X52701000Y-65942149D01*
X52687420Y-66010421D01*
X52676751Y-66064056D01*
X52629185Y-66178891D01*
X52560130Y-66282239D01*
X52472239Y-66370130D01*
X52368891Y-66439185D01*
X52368890Y-66439186D01*
X52368889Y-66439186D01*
X52254056Y-66486751D01*
X52132149Y-66511000D01*
X52007851Y-66511000D01*
X51885944Y-66486751D01*
X51771111Y-66439186D01*
X51771110Y-66439186D01*
X51771109Y-66439185D01*
X51667761Y-66370130D01*
X51579870Y-66282239D01*
X51510815Y-66178891D01*
X51463249Y-66064056D01*
X51452580Y-66010421D01*
X51439000Y-65942149D01*
X51439000Y-65817851D01*
X51463249Y-65695944D01*
X51510814Y-65581111D01*
X51518847Y-65569089D01*
X51579870Y-65477761D01*
X51667761Y-65389870D01*
X51771109Y-65320815D01*
X51885944Y-65273249D01*
X52007851Y-65249000D01*
X52132149Y-65249000D01*
X52254056Y-65273249D01*
X52254056Y-65273249D01*
G37*
G36*
X75114056Y-65273249D02*
G01*
X75228891Y-65320815D01*
X75332239Y-65389870D01*
X75420130Y-65477761D01*
X75481153Y-65569089D01*
X75489186Y-65581111D01*
X75536751Y-65695944D01*
X75561000Y-65817851D01*
X75561000Y-65942149D01*
X75547420Y-66010421D01*
X75536751Y-66064056D01*
X75489185Y-66178891D01*
X75420130Y-66282239D01*
X75332239Y-66370130D01*
X75228891Y-66439185D01*
X75228890Y-66439186D01*
X75228889Y-66439186D01*
X75114056Y-66486751D01*
X74992149Y-66511000D01*
X74867851Y-66511000D01*
X74745944Y-66486751D01*
X74631111Y-66439186D01*
X74631110Y-66439186D01*
X74631109Y-66439185D01*
X74527761Y-66370130D01*
X74439870Y-66282239D01*
X74370815Y-66178891D01*
X74323249Y-66064056D01*
X74312580Y-66010421D01*
X74299000Y-65942149D01*
X74299000Y-65817851D01*
X74323249Y-65695944D01*
X74370814Y-65581111D01*
X74378847Y-65569089D01*
X74439870Y-65477761D01*
X74527761Y-65389870D01*
X74631109Y-65320815D01*
X74745944Y-65273249D01*
X74867851Y-65249000D01*
X74992149Y-65249000D01*
X75114056Y-65273249D01*
X75114056Y-65273249D01*
G37*
G36*
X72574056Y-65273249D02*
G01*
X72688891Y-65320815D01*
X72792239Y-65389870D01*
X72880130Y-65477761D01*
X72941153Y-65569089D01*
X72949186Y-65581111D01*
X72996751Y-65695944D01*
X73021000Y-65817851D01*
X73021000Y-65942149D01*
X73007420Y-66010421D01*
X72996751Y-66064056D01*
X72949185Y-66178891D01*
X72880130Y-66282239D01*
X72792239Y-66370130D01*
X72688891Y-66439185D01*
X72688890Y-66439186D01*
X72688889Y-66439186D01*
X72574056Y-66486751D01*
X72452149Y-66511000D01*
X72327851Y-66511000D01*
X72205944Y-66486751D01*
X72091111Y-66439186D01*
X72091110Y-66439186D01*
X72091109Y-66439185D01*
X71987761Y-66370130D01*
X71899870Y-66282239D01*
X71830815Y-66178891D01*
X71783249Y-66064056D01*
X71772580Y-66010421D01*
X71759000Y-65942149D01*
X71759000Y-65817851D01*
X71783249Y-65695944D01*
X71830814Y-65581111D01*
X71838847Y-65569089D01*
X71899870Y-65477761D01*
X71987761Y-65389870D01*
X72091109Y-65320815D01*
X72205944Y-65273249D01*
X72327851Y-65249000D01*
X72452149Y-65249000D01*
X72574056Y-65273249D01*
X72574056Y-65273249D01*
G37*
G36*
X54794056Y-65273249D02*
G01*
X54908891Y-65320815D01*
X55012239Y-65389870D01*
X55100130Y-65477761D01*
X55161153Y-65569089D01*
X55169186Y-65581111D01*
X55216751Y-65695944D01*
X55241000Y-65817851D01*
X55241000Y-65942149D01*
X55227420Y-66010421D01*
X55216751Y-66064056D01*
X55169185Y-66178891D01*
X55100130Y-66282239D01*
X55012239Y-66370130D01*
X54908891Y-66439185D01*
X54908890Y-66439186D01*
X54908889Y-66439186D01*
X54794056Y-66486751D01*
X54672149Y-66511000D01*
X54547851Y-66511000D01*
X54425944Y-66486751D01*
X54311111Y-66439186D01*
X54311110Y-66439186D01*
X54311109Y-66439185D01*
X54207761Y-66370130D01*
X54119870Y-66282239D01*
X54050815Y-66178891D01*
X54003249Y-66064056D01*
X53992580Y-66010421D01*
X53979000Y-65942149D01*
X53979000Y-65817851D01*
X54003249Y-65695944D01*
X54050814Y-65581111D01*
X54058847Y-65569089D01*
X54119870Y-65477761D01*
X54207761Y-65389870D01*
X54311109Y-65320815D01*
X54425944Y-65273249D01*
X54547851Y-65249000D01*
X54672149Y-65249000D01*
X54794056Y-65273249D01*
X54794056Y-65273249D01*
G37*
G36*
X70034056Y-65273249D02*
G01*
X70148891Y-65320815D01*
X70252239Y-65389870D01*
X70340130Y-65477761D01*
X70401153Y-65569089D01*
X70409186Y-65581111D01*
X70456751Y-65695944D01*
X70481000Y-65817851D01*
X70481000Y-65942149D01*
X70467420Y-66010421D01*
X70456751Y-66064056D01*
X70409185Y-66178891D01*
X70340130Y-66282239D01*
X70252239Y-66370130D01*
X70148891Y-66439185D01*
X70148890Y-66439186D01*
X70148889Y-66439186D01*
X70034056Y-66486751D01*
X69912149Y-66511000D01*
X69787851Y-66511000D01*
X69665944Y-66486751D01*
X69551111Y-66439186D01*
X69551110Y-66439186D01*
X69551109Y-66439185D01*
X69447761Y-66370130D01*
X69359870Y-66282239D01*
X69290815Y-66178891D01*
X69243249Y-66064056D01*
X69232580Y-66010421D01*
X69219000Y-65942149D01*
X69219000Y-65817851D01*
X69243249Y-65695944D01*
X69290814Y-65581111D01*
X69298847Y-65569089D01*
X69359870Y-65477761D01*
X69447761Y-65389870D01*
X69551109Y-65320815D01*
X69665944Y-65273249D01*
X69787851Y-65249000D01*
X69912149Y-65249000D01*
X70034056Y-65273249D01*
X70034056Y-65273249D01*
G37*
G36*
X67494056Y-65273249D02*
G01*
X67608891Y-65320815D01*
X67712239Y-65389870D01*
X67800130Y-65477761D01*
X67861153Y-65569089D01*
X67869186Y-65581111D01*
X67916751Y-65695944D01*
X67941000Y-65817851D01*
X67941000Y-65942149D01*
X67927420Y-66010421D01*
X67916751Y-66064056D01*
X67869185Y-66178891D01*
X67800130Y-66282239D01*
X67712239Y-66370130D01*
X67608891Y-66439185D01*
X67608890Y-66439186D01*
X67608889Y-66439186D01*
X67494056Y-66486751D01*
X67372149Y-66511000D01*
X67247851Y-66511000D01*
X67125944Y-66486751D01*
X67011111Y-66439186D01*
X67011110Y-66439186D01*
X67011109Y-66439185D01*
X66907761Y-66370130D01*
X66819870Y-66282239D01*
X66750815Y-66178891D01*
X66703249Y-66064056D01*
X66692580Y-66010421D01*
X66679000Y-65942149D01*
X66679000Y-65817851D01*
X66703249Y-65695944D01*
X66750814Y-65581111D01*
X66758847Y-65569089D01*
X66819870Y-65477761D01*
X66907761Y-65389870D01*
X67011109Y-65320815D01*
X67125944Y-65273249D01*
X67247851Y-65249000D01*
X67372149Y-65249000D01*
X67494056Y-65273249D01*
X67494056Y-65273249D01*
G37*
G36*
X64954056Y-65273249D02*
G01*
X65068891Y-65320815D01*
X65172239Y-65389870D01*
X65260130Y-65477761D01*
X65321153Y-65569089D01*
X65329186Y-65581111D01*
X65376751Y-65695944D01*
X65401000Y-65817851D01*
X65401000Y-65942149D01*
X65387420Y-66010421D01*
X65376751Y-66064056D01*
X65329185Y-66178891D01*
X65260130Y-66282239D01*
X65172239Y-66370130D01*
X65068891Y-66439185D01*
X65068890Y-66439186D01*
X65068889Y-66439186D01*
X64954056Y-66486751D01*
X64832149Y-66511000D01*
X64707851Y-66511000D01*
X64585944Y-66486751D01*
X64471111Y-66439186D01*
X64471110Y-66439186D01*
X64471109Y-66439185D01*
X64367761Y-66370130D01*
X64279870Y-66282239D01*
X64210815Y-66178891D01*
X64163249Y-66064056D01*
X64152580Y-66010421D01*
X64139000Y-65942149D01*
X64139000Y-65817851D01*
X64163249Y-65695944D01*
X64210814Y-65581111D01*
X64218847Y-65569089D01*
X64279870Y-65477761D01*
X64367761Y-65389870D01*
X64471109Y-65320815D01*
X64585944Y-65273249D01*
X64707851Y-65249000D01*
X64832149Y-65249000D01*
X64954056Y-65273249D01*
X64954056Y-65273249D01*
G37*
G36*
X59874056Y-65273249D02*
G01*
X59988891Y-65320815D01*
X60092239Y-65389870D01*
X60180130Y-65477761D01*
X60241153Y-65569089D01*
X60249186Y-65581111D01*
X60296751Y-65695944D01*
X60321000Y-65817851D01*
X60321000Y-65942149D01*
X60307420Y-66010421D01*
X60296751Y-66064056D01*
X60249185Y-66178891D01*
X60180130Y-66282239D01*
X60092239Y-66370130D01*
X59988891Y-66439185D01*
X59988890Y-66439186D01*
X59988889Y-66439186D01*
X59874056Y-66486751D01*
X59752149Y-66511000D01*
X59627851Y-66511000D01*
X59505944Y-66486751D01*
X59391111Y-66439186D01*
X59391110Y-66439186D01*
X59391109Y-66439185D01*
X59287761Y-66370130D01*
X59199870Y-66282239D01*
X59130815Y-66178891D01*
X59083249Y-66064056D01*
X59072580Y-66010421D01*
X59059000Y-65942149D01*
X59059000Y-65817851D01*
X59083249Y-65695944D01*
X59130814Y-65581111D01*
X59138847Y-65569089D01*
X59199870Y-65477761D01*
X59287761Y-65389870D01*
X59391109Y-65320815D01*
X59505944Y-65273249D01*
X59627851Y-65249000D01*
X59752149Y-65249000D01*
X59874056Y-65273249D01*
X59874056Y-65273249D01*
G37*
G36*
X62414056Y-65273249D02*
G01*
X62528891Y-65320815D01*
X62632239Y-65389870D01*
X62720130Y-65477761D01*
X62781153Y-65569089D01*
X62789186Y-65581111D01*
X62836751Y-65695944D01*
X62861000Y-65817851D01*
X62861000Y-65942149D01*
X62847420Y-66010421D01*
X62836751Y-66064056D01*
X62789185Y-66178891D01*
X62720130Y-66282239D01*
X62632239Y-66370130D01*
X62528891Y-66439185D01*
X62528890Y-66439186D01*
X62528889Y-66439186D01*
X62414056Y-66486751D01*
X62292149Y-66511000D01*
X62167851Y-66511000D01*
X62045944Y-66486751D01*
X61931111Y-66439186D01*
X61931110Y-66439186D01*
X61931109Y-66439185D01*
X61827761Y-66370130D01*
X61739870Y-66282239D01*
X61670815Y-66178891D01*
X61623249Y-66064056D01*
X61612580Y-66010421D01*
X61599000Y-65942149D01*
X61599000Y-65817851D01*
X61623249Y-65695944D01*
X61670814Y-65581111D01*
X61678847Y-65569089D01*
X61739870Y-65477761D01*
X61827761Y-65389870D01*
X61931109Y-65320815D01*
X62045944Y-65273249D01*
X62167851Y-65249000D01*
X62292149Y-65249000D01*
X62414056Y-65273249D01*
X62414056Y-65273249D01*
G37*
G36*
X80641000Y-66511000D02*
G01*
X79379000Y-66511000D01*
X79379000Y-65249000D01*
X80641000Y-65249000D01*
X80641000Y-66511000D01*
X80641000Y-66511000D01*
G37*
G36*
X63241000Y-61071500D02*
G01*
X62489000Y-61071500D01*
X62489000Y-59044500D01*
X63241000Y-59044500D01*
X63241000Y-61071500D01*
X63241000Y-61071500D01*
G37*
G36*
X64511000Y-61071500D02*
G01*
X63759000Y-61071500D01*
X63759000Y-59044500D01*
X64511000Y-59044500D01*
X64511000Y-61071500D01*
X64511000Y-61071500D01*
G37*
G36*
X60701000Y-61071500D02*
G01*
X59949000Y-61071500D01*
X59949000Y-59044500D01*
X60701000Y-59044500D01*
X60701000Y-61071500D01*
X60701000Y-61071500D01*
G37*
G36*
X74671000Y-61071500D02*
G01*
X73919000Y-61071500D01*
X73919000Y-59044500D01*
X74671000Y-59044500D01*
X74671000Y-61071500D01*
X74671000Y-61071500D01*
G37*
G36*
X73401000Y-61071500D02*
G01*
X72649000Y-61071500D01*
X72649000Y-59044500D01*
X73401000Y-59044500D01*
X73401000Y-61071500D01*
X73401000Y-61071500D01*
G37*
G36*
X72131000Y-61071500D02*
G01*
X71379000Y-61071500D01*
X71379000Y-59044500D01*
X72131000Y-59044500D01*
X72131000Y-61071500D01*
X72131000Y-61071500D01*
G37*
G36*
X70861000Y-61071500D02*
G01*
X70109000Y-61071500D01*
X70109000Y-59044500D01*
X70861000Y-59044500D01*
X70861000Y-61071500D01*
X70861000Y-61071500D01*
G37*
G36*
X69591000Y-61071500D02*
G01*
X68839000Y-61071500D01*
X68839000Y-59044500D01*
X69591000Y-59044500D01*
X69591000Y-61071500D01*
X69591000Y-61071500D01*
G37*
G36*
X68321000Y-61071500D02*
G01*
X67569000Y-61071500D01*
X67569000Y-59044500D01*
X68321000Y-59044500D01*
X68321000Y-61071500D01*
X68321000Y-61071500D01*
G37*
G36*
X67051000Y-61071500D02*
G01*
X66299000Y-61071500D01*
X66299000Y-59044500D01*
X67051000Y-59044500D01*
X67051000Y-61071500D01*
X67051000Y-61071500D01*
G37*
G36*
X65781000Y-61071500D02*
G01*
X65029000Y-61071500D01*
X65029000Y-59044500D01*
X65781000Y-59044500D01*
X65781000Y-61071500D01*
X65781000Y-61071500D01*
G37*
G36*
X61971000Y-61071500D02*
G01*
X61219000Y-61071500D01*
X61219000Y-59044500D01*
X61971000Y-59044500D01*
X61971000Y-61071500D01*
X61971000Y-61071500D01*
G37*
G36*
X118653748Y-57843180D02*
G01*
X118653751Y-57843181D01*
X118653752Y-57843181D01*
X118851770Y-57903249D01*
X118851773Y-57903251D01*
X118851774Y-57903251D01*
X119034263Y-58000793D01*
X119194223Y-58132067D01*
X119325497Y-58292027D01*
X119423040Y-58474518D01*
X119483110Y-58672541D01*
X119498310Y-58826870D01*
X119498310Y-59679371D01*
X119483110Y-59833698D01*
X119483109Y-59833701D01*
X119483109Y-59833702D01*
X119423041Y-60031720D01*
X119423039Y-60031723D01*
X119423039Y-60031724D01*
X119325497Y-60214213D01*
X119194223Y-60374173D01*
X119075932Y-60471250D01*
X119034264Y-60505446D01*
X118851769Y-60602991D01*
X118653751Y-60663059D01*
X118653750Y-60663059D01*
X118653747Y-60663060D01*
X118447820Y-60683342D01*
X118241892Y-60663060D01*
X118241889Y-60663059D01*
X118241888Y-60663059D01*
X118043870Y-60602991D01*
X118043866Y-60602989D01*
X117861377Y-60505447D01*
X117701417Y-60374173D01*
X117604340Y-60255882D01*
X117570144Y-60214214D01*
X117472599Y-60031719D01*
X117412531Y-59833701D01*
X117412531Y-59833700D01*
X117412530Y-59833697D01*
X117397330Y-59679370D01*
X117397330Y-58826869D01*
X117412530Y-58672542D01*
X117472601Y-58474517D01*
X117570144Y-58292027D01*
X117701418Y-58132067D01*
X117861378Y-58000793D01*
X118043867Y-57903251D01*
X118043868Y-57903251D01*
X118043871Y-57903249D01*
X118241889Y-57843181D01*
X118241890Y-57843181D01*
X118241893Y-57843180D01*
X118447820Y-57822898D01*
X118653748Y-57843180D01*
X118653748Y-57843180D01*
G37*
G36*
X121193748Y-57843180D02*
G01*
X121193751Y-57843181D01*
X121193752Y-57843181D01*
X121391770Y-57903249D01*
X121391773Y-57903251D01*
X121391774Y-57903251D01*
X121574263Y-58000793D01*
X121734223Y-58132067D01*
X121865497Y-58292027D01*
X121963040Y-58474518D01*
X122023110Y-58672541D01*
X122038310Y-58826870D01*
X122038310Y-59679371D01*
X122023110Y-59833698D01*
X122023109Y-59833701D01*
X122023109Y-59833702D01*
X121963041Y-60031720D01*
X121963039Y-60031723D01*
X121963039Y-60031724D01*
X121865497Y-60214213D01*
X121734223Y-60374173D01*
X121615932Y-60471250D01*
X121574264Y-60505446D01*
X121391769Y-60602991D01*
X121193751Y-60663059D01*
X121193750Y-60663059D01*
X121193747Y-60663060D01*
X120987820Y-60683342D01*
X120781892Y-60663060D01*
X120781889Y-60663059D01*
X120781888Y-60663059D01*
X120583870Y-60602991D01*
X120583866Y-60602989D01*
X120401377Y-60505447D01*
X120241417Y-60374173D01*
X120144340Y-60255882D01*
X120110144Y-60214214D01*
X120012599Y-60031719D01*
X119952531Y-59833701D01*
X119952531Y-59833700D01*
X119952530Y-59833697D01*
X119937330Y-59679370D01*
X119937330Y-58826869D01*
X119952530Y-58672542D01*
X120012601Y-58474517D01*
X120110144Y-58292027D01*
X120241418Y-58132067D01*
X120401378Y-58000793D01*
X120583867Y-57903251D01*
X120583868Y-57903251D01*
X120583871Y-57903249D01*
X120781889Y-57843181D01*
X120781890Y-57843181D01*
X120781893Y-57843180D01*
X120987820Y-57822898D01*
X121193748Y-57843180D01*
X121193748Y-57843180D01*
G37*
G36*
X123733748Y-57843180D02*
G01*
X123733751Y-57843181D01*
X123733752Y-57843181D01*
X123931770Y-57903249D01*
X123931773Y-57903251D01*
X123931774Y-57903251D01*
X124114263Y-58000793D01*
X124274223Y-58132067D01*
X124405497Y-58292027D01*
X124503040Y-58474518D01*
X124563110Y-58672541D01*
X124578310Y-58826870D01*
X124578310Y-59679371D01*
X124563110Y-59833698D01*
X124563109Y-59833701D01*
X124563109Y-59833702D01*
X124503041Y-60031720D01*
X124503039Y-60031723D01*
X124503039Y-60031724D01*
X124405497Y-60214213D01*
X124274223Y-60374173D01*
X124155932Y-60471250D01*
X124114264Y-60505446D01*
X123931769Y-60602991D01*
X123733751Y-60663059D01*
X123733750Y-60663059D01*
X123733747Y-60663060D01*
X123527820Y-60683342D01*
X123321892Y-60663060D01*
X123321889Y-60663059D01*
X123321888Y-60663059D01*
X123123870Y-60602991D01*
X123123866Y-60602989D01*
X122941377Y-60505447D01*
X122781417Y-60374173D01*
X122684340Y-60255882D01*
X122650144Y-60214214D01*
X122552599Y-60031719D01*
X122492531Y-59833701D01*
X122492531Y-59833700D01*
X122492530Y-59833697D01*
X122477330Y-59679370D01*
X122477330Y-58826869D01*
X122492530Y-58672542D01*
X122552601Y-58474517D01*
X122650144Y-58292027D01*
X122781418Y-58132067D01*
X122941378Y-58000793D01*
X123123867Y-57903251D01*
X123123868Y-57903251D01*
X123123871Y-57903249D01*
X123321889Y-57843181D01*
X123321890Y-57843181D01*
X123321893Y-57843180D01*
X123527820Y-57822898D01*
X123733748Y-57843180D01*
X123733748Y-57843180D01*
G37*
G36*
X126273748Y-57843180D02*
G01*
X126273751Y-57843181D01*
X126273752Y-57843181D01*
X126471770Y-57903249D01*
X126471773Y-57903251D01*
X126471774Y-57903251D01*
X126654263Y-58000793D01*
X126814223Y-58132067D01*
X126945497Y-58292027D01*
X127043040Y-58474518D01*
X127103110Y-58672541D01*
X127118310Y-58826870D01*
X127118310Y-59679371D01*
X127103110Y-59833698D01*
X127103109Y-59833701D01*
X127103109Y-59833702D01*
X127043041Y-60031720D01*
X127043039Y-60031723D01*
X127043039Y-60031724D01*
X126945497Y-60214213D01*
X126814223Y-60374173D01*
X126695932Y-60471250D01*
X126654264Y-60505446D01*
X126471769Y-60602991D01*
X126273751Y-60663059D01*
X126273750Y-60663059D01*
X126273747Y-60663060D01*
X126067820Y-60683342D01*
X125861892Y-60663060D01*
X125861889Y-60663059D01*
X125861888Y-60663059D01*
X125663870Y-60602991D01*
X125663866Y-60602989D01*
X125481377Y-60505447D01*
X125321417Y-60374173D01*
X125224340Y-60255882D01*
X125190144Y-60214214D01*
X125092599Y-60031719D01*
X125032531Y-59833701D01*
X125032531Y-59833700D01*
X125032530Y-59833697D01*
X125017330Y-59679370D01*
X125017330Y-58826869D01*
X125032530Y-58672542D01*
X125092601Y-58474517D01*
X125190144Y-58292027D01*
X125321418Y-58132067D01*
X125481378Y-58000793D01*
X125663867Y-57903251D01*
X125663868Y-57903251D01*
X125663871Y-57903249D01*
X125861889Y-57843181D01*
X125861890Y-57843181D01*
X125861893Y-57843180D01*
X126067820Y-57822898D01*
X126273748Y-57843180D01*
X126273748Y-57843180D01*
G37*
G36*
X128813748Y-57843180D02*
G01*
X128813751Y-57843181D01*
X128813752Y-57843181D01*
X129011770Y-57903249D01*
X129011773Y-57903251D01*
X129011774Y-57903251D01*
X129194263Y-58000793D01*
X129354223Y-58132067D01*
X129485497Y-58292027D01*
X129583040Y-58474518D01*
X129643110Y-58672541D01*
X129658310Y-58826870D01*
X129658310Y-59679371D01*
X129643110Y-59833698D01*
X129643109Y-59833701D01*
X129643109Y-59833702D01*
X129583041Y-60031720D01*
X129583039Y-60031723D01*
X129583039Y-60031724D01*
X129485497Y-60214213D01*
X129354223Y-60374173D01*
X129235932Y-60471250D01*
X129194264Y-60505446D01*
X129011769Y-60602991D01*
X128813751Y-60663059D01*
X128813750Y-60663059D01*
X128813747Y-60663060D01*
X128607820Y-60683342D01*
X128401892Y-60663060D01*
X128401889Y-60663059D01*
X128401888Y-60663059D01*
X128203870Y-60602991D01*
X128203866Y-60602989D01*
X128021377Y-60505447D01*
X127861417Y-60374173D01*
X127764340Y-60255882D01*
X127730144Y-60214214D01*
X127632599Y-60031719D01*
X127572531Y-59833701D01*
X127572531Y-59833700D01*
X127572530Y-59833697D01*
X127557330Y-59679370D01*
X127557330Y-58826869D01*
X127572530Y-58672542D01*
X127632601Y-58474517D01*
X127730144Y-58292027D01*
X127861418Y-58132067D01*
X128021378Y-58000793D01*
X128203867Y-57903251D01*
X128203868Y-57903251D01*
X128203871Y-57903249D01*
X128401889Y-57843181D01*
X128401890Y-57843181D01*
X128401893Y-57843180D01*
X128607820Y-57822898D01*
X128813748Y-57843180D01*
X128813748Y-57843180D01*
G37*
G36*
X131353748Y-57843180D02*
G01*
X131353751Y-57843181D01*
X131353752Y-57843181D01*
X131551770Y-57903249D01*
X131551773Y-57903251D01*
X131551774Y-57903251D01*
X131734263Y-58000793D01*
X131894223Y-58132067D01*
X132025497Y-58292027D01*
X132123040Y-58474518D01*
X132183110Y-58672541D01*
X132198310Y-58826870D01*
X132198310Y-59679371D01*
X132183110Y-59833698D01*
X132183109Y-59833701D01*
X132183109Y-59833702D01*
X132123041Y-60031720D01*
X132123039Y-60031723D01*
X132123039Y-60031724D01*
X132025497Y-60214213D01*
X131894223Y-60374173D01*
X131775932Y-60471250D01*
X131734264Y-60505446D01*
X131551769Y-60602991D01*
X131353751Y-60663059D01*
X131353750Y-60663059D01*
X131353747Y-60663060D01*
X131147820Y-60683342D01*
X130941892Y-60663060D01*
X130941889Y-60663059D01*
X130941888Y-60663059D01*
X130743870Y-60602991D01*
X130743866Y-60602989D01*
X130561377Y-60505447D01*
X130401417Y-60374173D01*
X130304340Y-60255882D01*
X130270144Y-60214214D01*
X130172599Y-60031719D01*
X130112531Y-59833701D01*
X130112531Y-59833700D01*
X130112530Y-59833697D01*
X130097330Y-59679370D01*
X130097330Y-58826869D01*
X130112530Y-58672542D01*
X130172601Y-58474517D01*
X130270144Y-58292027D01*
X130401418Y-58132067D01*
X130561378Y-58000793D01*
X130743867Y-57903251D01*
X130743868Y-57903251D01*
X130743871Y-57903249D01*
X130941889Y-57843181D01*
X130941890Y-57843181D01*
X130941893Y-57843180D01*
X131147820Y-57822898D01*
X131353748Y-57843180D01*
X131353748Y-57843180D01*
G37*
G36*
X116113748Y-57843180D02*
G01*
X116113751Y-57843181D01*
X116113752Y-57843181D01*
X116311770Y-57903249D01*
X116311773Y-57903251D01*
X116311774Y-57903251D01*
X116494263Y-58000793D01*
X116654223Y-58132067D01*
X116785497Y-58292027D01*
X116883040Y-58474518D01*
X116943110Y-58672541D01*
X116958310Y-58826870D01*
X116958310Y-59679371D01*
X116943110Y-59833698D01*
X116943109Y-59833701D01*
X116943109Y-59833702D01*
X116883041Y-60031720D01*
X116883039Y-60031723D01*
X116883039Y-60031724D01*
X116785497Y-60214213D01*
X116654223Y-60374173D01*
X116535932Y-60471250D01*
X116494264Y-60505446D01*
X116311769Y-60602991D01*
X116113751Y-60663059D01*
X116113750Y-60663059D01*
X116113747Y-60663060D01*
X115907820Y-60683342D01*
X115701892Y-60663060D01*
X115701889Y-60663059D01*
X115701888Y-60663059D01*
X115503870Y-60602991D01*
X115503866Y-60602989D01*
X115321377Y-60505447D01*
X115161417Y-60374173D01*
X115064340Y-60255882D01*
X115030144Y-60214214D01*
X114932599Y-60031719D01*
X114872531Y-59833701D01*
X114872531Y-59833700D01*
X114872530Y-59833697D01*
X114857330Y-59679370D01*
X114857330Y-58826869D01*
X114872530Y-58672542D01*
X114932601Y-58474517D01*
X115030144Y-58292027D01*
X115161418Y-58132067D01*
X115321378Y-58000793D01*
X115503867Y-57903251D01*
X115503868Y-57903251D01*
X115503871Y-57903249D01*
X115701889Y-57843181D01*
X115701890Y-57843181D01*
X115701893Y-57843180D01*
X115907820Y-57822898D01*
X116113748Y-57843180D01*
X116113748Y-57843180D01*
G37*
G36*
X56117142Y-50018242D02*
G01*
X56265101Y-50079529D01*
X56398255Y-50168499D01*
X56511501Y-50281745D01*
X56600471Y-50414899D01*
X56661758Y-50562858D01*
X56693000Y-50719925D01*
X56693000Y-50880075D01*
X56661758Y-51037142D01*
X56600471Y-51185101D01*
X56511501Y-51318255D01*
X56398255Y-51431501D01*
X56265101Y-51520471D01*
X56117142Y-51581758D01*
X55960075Y-51613000D01*
X55799925Y-51613000D01*
X55642858Y-51581758D01*
X55494899Y-51520471D01*
X55361745Y-51431501D01*
X55248499Y-51318255D01*
X55159529Y-51185101D01*
X55098242Y-51037142D01*
X55067000Y-50880075D01*
X55067000Y-50719925D01*
X55098242Y-50562858D01*
X55159529Y-50414899D01*
X55248499Y-50281745D01*
X55361745Y-50168499D01*
X55494899Y-50079529D01*
X55642858Y-50018242D01*
X55799925Y-49987000D01*
X55960075Y-49987000D01*
X56117142Y-50018242D01*
X56117142Y-50018242D01*
G37*
G36*
X58657142Y-50018242D02*
G01*
X58805101Y-50079529D01*
X58938255Y-50168499D01*
X59051501Y-50281745D01*
X59140471Y-50414899D01*
X59201758Y-50562858D01*
X59233000Y-50719925D01*
X59233000Y-50880075D01*
X59201758Y-51037142D01*
X59140471Y-51185101D01*
X59051501Y-51318255D01*
X58938255Y-51431501D01*
X58805101Y-51520471D01*
X58657142Y-51581758D01*
X58500075Y-51613000D01*
X58339925Y-51613000D01*
X58182858Y-51581758D01*
X58034899Y-51520471D01*
X57901745Y-51431501D01*
X57788499Y-51318255D01*
X57699529Y-51185101D01*
X57638242Y-51037142D01*
X57607000Y-50880075D01*
X57607000Y-50719925D01*
X57638242Y-50562858D01*
X57699529Y-50414899D01*
X57788499Y-50281745D01*
X57901745Y-50168499D01*
X58034899Y-50079529D01*
X58182858Y-50018242D01*
X58339925Y-49987000D01*
X58500075Y-49987000D01*
X58657142Y-50018242D01*
X58657142Y-50018242D01*
G37*
G36*
X61197142Y-50018242D02*
G01*
X61345101Y-50079529D01*
X61478255Y-50168499D01*
X61591501Y-50281745D01*
X61680471Y-50414899D01*
X61741758Y-50562858D01*
X61773000Y-50719925D01*
X61773000Y-50880075D01*
X61741758Y-51037142D01*
X61680471Y-51185101D01*
X61591501Y-51318255D01*
X61478255Y-51431501D01*
X61345101Y-51520471D01*
X61197142Y-51581758D01*
X61040075Y-51613000D01*
X60879925Y-51613000D01*
X60722858Y-51581758D01*
X60574899Y-51520471D01*
X60441745Y-51431501D01*
X60328499Y-51318255D01*
X60239529Y-51185101D01*
X60178242Y-51037142D01*
X60147000Y-50880075D01*
X60147000Y-50719925D01*
X60178242Y-50562858D01*
X60239529Y-50414899D01*
X60328499Y-50281745D01*
X60441745Y-50168499D01*
X60574899Y-50079529D01*
X60722858Y-50018242D01*
X60879925Y-49987000D01*
X61040075Y-49987000D01*
X61197142Y-50018242D01*
X61197142Y-50018242D01*
G37*
G36*
X63737142Y-50018242D02*
G01*
X63885101Y-50079529D01*
X64018255Y-50168499D01*
X64131501Y-50281745D01*
X64220471Y-50414899D01*
X64281758Y-50562858D01*
X64313000Y-50719925D01*
X64313000Y-50880075D01*
X64281758Y-51037142D01*
X64220471Y-51185101D01*
X64131501Y-51318255D01*
X64018255Y-51431501D01*
X63885101Y-51520471D01*
X63737142Y-51581758D01*
X63580075Y-51613000D01*
X63419925Y-51613000D01*
X63262858Y-51581758D01*
X63114899Y-51520471D01*
X62981745Y-51431501D01*
X62868499Y-51318255D01*
X62779529Y-51185101D01*
X62718242Y-51037142D01*
X62687000Y-50880075D01*
X62687000Y-50719925D01*
X62718242Y-50562858D01*
X62779529Y-50414899D01*
X62868499Y-50281745D01*
X62981745Y-50168499D01*
X63114899Y-50079529D01*
X63262858Y-50018242D01*
X63419925Y-49987000D01*
X63580075Y-49987000D01*
X63737142Y-50018242D01*
X63737142Y-50018242D01*
G37*
G36*
X51037142Y-50018242D02*
G01*
X51185101Y-50079529D01*
X51318255Y-50168499D01*
X51431501Y-50281745D01*
X51520471Y-50414899D01*
X51581758Y-50562858D01*
X51613000Y-50719925D01*
X51613000Y-50880075D01*
X51581758Y-51037142D01*
X51520471Y-51185101D01*
X51431501Y-51318255D01*
X51318255Y-51431501D01*
X51185101Y-51520471D01*
X51037142Y-51581758D01*
X50880075Y-51613000D01*
X50719925Y-51613000D01*
X50562858Y-51581758D01*
X50414899Y-51520471D01*
X50281745Y-51431501D01*
X50168499Y-51318255D01*
X50079529Y-51185101D01*
X50018242Y-51037142D01*
X49987000Y-50880075D01*
X49987000Y-50719925D01*
X50018242Y-50562858D01*
X50079529Y-50414899D01*
X50168499Y-50281745D01*
X50281745Y-50168499D01*
X50414899Y-50079529D01*
X50562858Y-50018242D01*
X50719925Y-49987000D01*
X50880075Y-49987000D01*
X51037142Y-50018242D01*
X51037142Y-50018242D01*
G37*
G36*
X53577142Y-50018242D02*
G01*
X53725101Y-50079529D01*
X53858255Y-50168499D01*
X53971501Y-50281745D01*
X54060471Y-50414899D01*
X54121758Y-50562858D01*
X54153000Y-50719925D01*
X54153000Y-50880075D01*
X54121758Y-51037142D01*
X54060471Y-51185101D01*
X53971501Y-51318255D01*
X53858255Y-51431501D01*
X53725101Y-51520471D01*
X53577142Y-51581758D01*
X53420075Y-51613000D01*
X53259925Y-51613000D01*
X53102858Y-51581758D01*
X52954899Y-51520471D01*
X52821745Y-51431501D01*
X52708499Y-51318255D01*
X52619529Y-51185101D01*
X52558242Y-51037142D01*
X52527000Y-50880075D01*
X52527000Y-50719925D01*
X52558242Y-50562858D01*
X52619529Y-50414899D01*
X52708499Y-50281745D01*
X52821745Y-50168499D01*
X52954899Y-50079529D01*
X53102858Y-50018242D01*
X53259925Y-49987000D01*
X53420075Y-49987000D01*
X53577142Y-50018242D01*
X53577142Y-50018242D01*
G37*
G36*
X103107142Y-50018242D02*
G01*
X103255101Y-50079529D01*
X103388255Y-50168499D01*
X103501501Y-50281745D01*
X103590471Y-50414899D01*
X103651758Y-50562858D01*
X103683000Y-50719925D01*
X103683000Y-50880075D01*
X103651758Y-51037142D01*
X103590471Y-51185101D01*
X103501501Y-51318255D01*
X103388255Y-51431501D01*
X103255101Y-51520471D01*
X103107142Y-51581758D01*
X102950075Y-51613000D01*
X102789925Y-51613000D01*
X102632858Y-51581758D01*
X102484899Y-51520471D01*
X102351745Y-51431501D01*
X102238499Y-51318255D01*
X102149529Y-51185101D01*
X102088242Y-51037142D01*
X102057000Y-50880075D01*
X102057000Y-50719925D01*
X102088242Y-50562858D01*
X102149529Y-50414899D01*
X102238499Y-50281745D01*
X102351745Y-50168499D01*
X102484899Y-50079529D01*
X102632858Y-50018242D01*
X102789925Y-49987000D01*
X102950075Y-49987000D01*
X103107142Y-50018242D01*
X103107142Y-50018242D01*
G37*
G36*
X105647142Y-50018242D02*
G01*
X105795101Y-50079529D01*
X105928255Y-50168499D01*
X106041501Y-50281745D01*
X106130471Y-50414899D01*
X106191758Y-50562858D01*
X106223000Y-50719925D01*
X106223000Y-50880075D01*
X106191758Y-51037142D01*
X106130471Y-51185101D01*
X106041501Y-51318255D01*
X105928255Y-51431501D01*
X105795101Y-51520471D01*
X105647142Y-51581758D01*
X105490075Y-51613000D01*
X105329925Y-51613000D01*
X105172858Y-51581758D01*
X105024899Y-51520471D01*
X104891745Y-51431501D01*
X104778499Y-51318255D01*
X104689529Y-51185101D01*
X104628242Y-51037142D01*
X104597000Y-50880075D01*
X104597000Y-50719925D01*
X104628242Y-50562858D01*
X104689529Y-50414899D01*
X104778499Y-50281745D01*
X104891745Y-50168499D01*
X105024899Y-50079529D01*
X105172858Y-50018242D01*
X105329925Y-49987000D01*
X105490075Y-49987000D01*
X105647142Y-50018242D01*
X105647142Y-50018242D01*
G37*
G36*
X108187142Y-50018242D02*
G01*
X108335101Y-50079529D01*
X108468255Y-50168499D01*
X108581501Y-50281745D01*
X108670471Y-50414899D01*
X108731758Y-50562858D01*
X108763000Y-50719925D01*
X108763000Y-50880075D01*
X108731758Y-51037142D01*
X108670471Y-51185101D01*
X108581501Y-51318255D01*
X108468255Y-51431501D01*
X108335101Y-51520471D01*
X108187142Y-51581758D01*
X108030075Y-51613000D01*
X107869925Y-51613000D01*
X107712858Y-51581758D01*
X107564899Y-51520471D01*
X107431745Y-51431501D01*
X107318499Y-51318255D01*
X107229529Y-51185101D01*
X107168242Y-51037142D01*
X107137000Y-50880075D01*
X107137000Y-50719925D01*
X107168242Y-50562858D01*
X107229529Y-50414899D01*
X107318499Y-50281745D01*
X107431745Y-50168499D01*
X107564899Y-50079529D01*
X107712858Y-50018242D01*
X107869925Y-49987000D01*
X108030075Y-49987000D01*
X108187142Y-50018242D01*
X108187142Y-50018242D01*
G37*
G36*
X110727142Y-50018242D02*
G01*
X110875101Y-50079529D01*
X111008255Y-50168499D01*
X111121501Y-50281745D01*
X111210471Y-50414899D01*
X111271758Y-50562858D01*
X111303000Y-50719925D01*
X111303000Y-50880075D01*
X111271758Y-51037142D01*
X111210471Y-51185101D01*
X111121501Y-51318255D01*
X111008255Y-51431501D01*
X110875101Y-51520471D01*
X110727142Y-51581758D01*
X110570075Y-51613000D01*
X110409925Y-51613000D01*
X110252858Y-51581758D01*
X110104899Y-51520471D01*
X109971745Y-51431501D01*
X109858499Y-51318255D01*
X109769529Y-51185101D01*
X109708242Y-51037142D01*
X109677000Y-50880075D01*
X109677000Y-50719925D01*
X109708242Y-50562858D01*
X109769529Y-50414899D01*
X109858499Y-50281745D01*
X109971745Y-50168499D01*
X110104899Y-50079529D01*
X110252858Y-50018242D01*
X110409925Y-49987000D01*
X110570075Y-49987000D01*
X110727142Y-50018242D01*
X110727142Y-50018242D01*
G37*
G36*
X113267142Y-50018242D02*
G01*
X113415101Y-50079529D01*
X113548255Y-50168499D01*
X113661501Y-50281745D01*
X113750471Y-50414899D01*
X113811758Y-50562858D01*
X113843000Y-50719925D01*
X113843000Y-50880075D01*
X113811758Y-51037142D01*
X113750471Y-51185101D01*
X113661501Y-51318255D01*
X113548255Y-51431501D01*
X113415101Y-51520471D01*
X113267142Y-51581758D01*
X113110075Y-51613000D01*
X112949925Y-51613000D01*
X112792858Y-51581758D01*
X112644899Y-51520471D01*
X112511745Y-51431501D01*
X112398499Y-51318255D01*
X112309529Y-51185101D01*
X112248242Y-51037142D01*
X112217000Y-50880075D01*
X112217000Y-50719925D01*
X112248242Y-50562858D01*
X112309529Y-50414899D01*
X112398499Y-50281745D01*
X112511745Y-50168499D01*
X112644899Y-50079529D01*
X112792858Y-50018242D01*
X112949925Y-49987000D01*
X113110075Y-49987000D01*
X113267142Y-50018242D01*
X113267142Y-50018242D01*
G37*
G36*
X115807142Y-50018242D02*
G01*
X115955101Y-50079529D01*
X116088255Y-50168499D01*
X116201501Y-50281745D01*
X116290471Y-50414899D01*
X116351758Y-50562858D01*
X116383000Y-50719925D01*
X116383000Y-50880075D01*
X116351758Y-51037142D01*
X116290471Y-51185101D01*
X116201501Y-51318255D01*
X116088255Y-51431501D01*
X115955101Y-51520471D01*
X115807142Y-51581758D01*
X115650075Y-51613000D01*
X115489925Y-51613000D01*
X115332858Y-51581758D01*
X115184899Y-51520471D01*
X115051745Y-51431501D01*
X114938499Y-51318255D01*
X114849529Y-51185101D01*
X114788242Y-51037142D01*
X114757000Y-50880075D01*
X114757000Y-50719925D01*
X114788242Y-50562858D01*
X114849529Y-50414899D01*
X114938499Y-50281745D01*
X115051745Y-50168499D01*
X115184899Y-50079529D01*
X115332858Y-50018242D01*
X115489925Y-49987000D01*
X115650075Y-49987000D01*
X115807142Y-50018242D01*
X115807142Y-50018242D01*
G37*
G36*
X103107142Y-34778242D02*
G01*
X103255101Y-34839529D01*
X103388255Y-34928499D01*
X103501501Y-35041745D01*
X103590471Y-35174899D01*
X103651758Y-35322858D01*
X103683000Y-35479925D01*
X103683000Y-35640075D01*
X103651758Y-35797142D01*
X103590471Y-35945101D01*
X103501501Y-36078255D01*
X103388255Y-36191501D01*
X103255101Y-36280471D01*
X103107142Y-36341758D01*
X102950075Y-36373000D01*
X102789925Y-36373000D01*
X102632858Y-36341758D01*
X102484899Y-36280471D01*
X102351745Y-36191501D01*
X102238499Y-36078255D01*
X102149529Y-35945101D01*
X102088242Y-35797142D01*
X102057000Y-35640075D01*
X102057000Y-35479925D01*
X102088242Y-35322858D01*
X102149529Y-35174899D01*
X102238499Y-35041745D01*
X102351745Y-34928499D01*
X102484899Y-34839529D01*
X102632858Y-34778242D01*
X102789925Y-34747000D01*
X102950075Y-34747000D01*
X103107142Y-34778242D01*
X103107142Y-34778242D01*
G37*
G36*
X105647142Y-34778242D02*
G01*
X105795101Y-34839529D01*
X105928255Y-34928499D01*
X106041501Y-35041745D01*
X106130471Y-35174899D01*
X106191758Y-35322858D01*
X106223000Y-35479925D01*
X106223000Y-35640075D01*
X106191758Y-35797142D01*
X106130471Y-35945101D01*
X106041501Y-36078255D01*
X105928255Y-36191501D01*
X105795101Y-36280471D01*
X105647142Y-36341758D01*
X105490075Y-36373000D01*
X105329925Y-36373000D01*
X105172858Y-36341758D01*
X105024899Y-36280471D01*
X104891745Y-36191501D01*
X104778499Y-36078255D01*
X104689529Y-35945101D01*
X104628242Y-35797142D01*
X104597000Y-35640075D01*
X104597000Y-35479925D01*
X104628242Y-35322858D01*
X104689529Y-35174899D01*
X104778499Y-35041745D01*
X104891745Y-34928499D01*
X105024899Y-34839529D01*
X105172858Y-34778242D01*
X105329925Y-34747000D01*
X105490075Y-34747000D01*
X105647142Y-34778242D01*
X105647142Y-34778242D01*
G37*
G36*
X108187142Y-34778242D02*
G01*
X108335101Y-34839529D01*
X108468255Y-34928499D01*
X108581501Y-35041745D01*
X108670471Y-35174899D01*
X108731758Y-35322858D01*
X108763000Y-35479925D01*
X108763000Y-35640075D01*
X108731758Y-35797142D01*
X108670471Y-35945101D01*
X108581501Y-36078255D01*
X108468255Y-36191501D01*
X108335101Y-36280471D01*
X108187142Y-36341758D01*
X108030075Y-36373000D01*
X107869925Y-36373000D01*
X107712858Y-36341758D01*
X107564899Y-36280471D01*
X107431745Y-36191501D01*
X107318499Y-36078255D01*
X107229529Y-35945101D01*
X107168242Y-35797142D01*
X107137000Y-35640075D01*
X107137000Y-35479925D01*
X107168242Y-35322858D01*
X107229529Y-35174899D01*
X107318499Y-35041745D01*
X107431745Y-34928499D01*
X107564899Y-34839529D01*
X107712858Y-34778242D01*
X107869925Y-34747000D01*
X108030075Y-34747000D01*
X108187142Y-34778242D01*
X108187142Y-34778242D01*
G37*
G36*
X110727142Y-34778242D02*
G01*
X110875101Y-34839529D01*
X111008255Y-34928499D01*
X111121501Y-35041745D01*
X111210471Y-35174899D01*
X111271758Y-35322858D01*
X111303000Y-35479925D01*
X111303000Y-35640075D01*
X111271758Y-35797142D01*
X111210471Y-35945101D01*
X111121501Y-36078255D01*
X111008255Y-36191501D01*
X110875101Y-36280471D01*
X110727142Y-36341758D01*
X110570075Y-36373000D01*
X110409925Y-36373000D01*
X110252858Y-36341758D01*
X110104899Y-36280471D01*
X109971745Y-36191501D01*
X109858499Y-36078255D01*
X109769529Y-35945101D01*
X109708242Y-35797142D01*
X109677000Y-35640075D01*
X109677000Y-35479925D01*
X109708242Y-35322858D01*
X109769529Y-35174899D01*
X109858499Y-35041745D01*
X109971745Y-34928499D01*
X110104899Y-34839529D01*
X110252858Y-34778242D01*
X110409925Y-34747000D01*
X110570075Y-34747000D01*
X110727142Y-34778242D01*
X110727142Y-34778242D01*
G37*
G36*
X113267142Y-34778242D02*
G01*
X113415101Y-34839529D01*
X113548255Y-34928499D01*
X113661501Y-35041745D01*
X113750471Y-35174899D01*
X113811758Y-35322858D01*
X113843000Y-35479925D01*
X113843000Y-35640075D01*
X113811758Y-35797142D01*
X113750471Y-35945101D01*
X113661501Y-36078255D01*
X113548255Y-36191501D01*
X113415101Y-36280471D01*
X113267142Y-36341758D01*
X113110075Y-36373000D01*
X112949925Y-36373000D01*
X112792858Y-36341758D01*
X112644899Y-36280471D01*
X112511745Y-36191501D01*
X112398499Y-36078255D01*
X112309529Y-35945101D01*
X112248242Y-35797142D01*
X112217000Y-35640075D01*
X112217000Y-35479925D01*
X112248242Y-35322858D01*
X112309529Y-35174899D01*
X112398499Y-35041745D01*
X112511745Y-34928499D01*
X112644899Y-34839529D01*
X112792858Y-34778242D01*
X112949925Y-34747000D01*
X113110075Y-34747000D01*
X113267142Y-34778242D01*
X113267142Y-34778242D01*
G37*
G36*
X115807142Y-34778242D02*
G01*
X115955101Y-34839529D01*
X116088255Y-34928499D01*
X116201501Y-35041745D01*
X116290471Y-35174899D01*
X116351758Y-35322858D01*
X116383000Y-35479925D01*
X116383000Y-35640075D01*
X116351758Y-35797142D01*
X116290471Y-35945101D01*
X116201501Y-36078255D01*
X116088255Y-36191501D01*
X115955101Y-36280471D01*
X115807142Y-36341758D01*
X115650075Y-36373000D01*
X115489925Y-36373000D01*
X115332858Y-36341758D01*
X115184899Y-36280471D01*
X115051745Y-36191501D01*
X114938499Y-36078255D01*
X114849529Y-35945101D01*
X114788242Y-35797142D01*
X114757000Y-35640075D01*
X114757000Y-35479925D01*
X114788242Y-35322858D01*
X114849529Y-35174899D01*
X114938499Y-35041745D01*
X115051745Y-34928499D01*
X115184899Y-34839529D01*
X115332858Y-34778242D01*
X115489925Y-34747000D01*
X115650075Y-34747000D01*
X115807142Y-34778242D01*
X115807142Y-34778242D01*
G37*
G36*
X51037142Y-34778242D02*
G01*
X51185101Y-34839529D01*
X51318255Y-34928499D01*
X51431501Y-35041745D01*
X51520471Y-35174899D01*
X51581758Y-35322858D01*
X51613000Y-35479925D01*
X51613000Y-35640075D01*
X51581758Y-35797142D01*
X51520471Y-35945101D01*
X51431501Y-36078255D01*
X51318255Y-36191501D01*
X51185101Y-36280471D01*
X51037142Y-36341758D01*
X50880075Y-36373000D01*
X50719925Y-36373000D01*
X50562858Y-36341758D01*
X50414899Y-36280471D01*
X50281745Y-36191501D01*
X50168499Y-36078255D01*
X50079529Y-35945101D01*
X50018242Y-35797142D01*
X49987000Y-35640075D01*
X49987000Y-35479925D01*
X50018242Y-35322858D01*
X50079529Y-35174899D01*
X50168499Y-35041745D01*
X50281745Y-34928499D01*
X50414899Y-34839529D01*
X50562858Y-34778242D01*
X50719925Y-34747000D01*
X50880075Y-34747000D01*
X51037142Y-34778242D01*
X51037142Y-34778242D01*
G37*
G36*
X53577142Y-34778242D02*
G01*
X53725101Y-34839529D01*
X53858255Y-34928499D01*
X53971501Y-35041745D01*
X54060471Y-35174899D01*
X54121758Y-35322858D01*
X54153000Y-35479925D01*
X54153000Y-35640075D01*
X54121758Y-35797142D01*
X54060471Y-35945101D01*
X53971501Y-36078255D01*
X53858255Y-36191501D01*
X53725101Y-36280471D01*
X53577142Y-36341758D01*
X53420075Y-36373000D01*
X53259925Y-36373000D01*
X53102858Y-36341758D01*
X52954899Y-36280471D01*
X52821745Y-36191501D01*
X52708499Y-36078255D01*
X52619529Y-35945101D01*
X52558242Y-35797142D01*
X52527000Y-35640075D01*
X52527000Y-35479925D01*
X52558242Y-35322858D01*
X52619529Y-35174899D01*
X52708499Y-35041745D01*
X52821745Y-34928499D01*
X52954899Y-34839529D01*
X53102858Y-34778242D01*
X53259925Y-34747000D01*
X53420075Y-34747000D01*
X53577142Y-34778242D01*
X53577142Y-34778242D01*
G37*
G36*
X56117142Y-34778242D02*
G01*
X56265101Y-34839529D01*
X56398255Y-34928499D01*
X56511501Y-35041745D01*
X56600471Y-35174899D01*
X56661758Y-35322858D01*
X56693000Y-35479925D01*
X56693000Y-35640075D01*
X56661758Y-35797142D01*
X56600471Y-35945101D01*
X56511501Y-36078255D01*
X56398255Y-36191501D01*
X56265101Y-36280471D01*
X56117142Y-36341758D01*
X55960075Y-36373000D01*
X55799925Y-36373000D01*
X55642858Y-36341758D01*
X55494899Y-36280471D01*
X55361745Y-36191501D01*
X55248499Y-36078255D01*
X55159529Y-35945101D01*
X55098242Y-35797142D01*
X55067000Y-35640075D01*
X55067000Y-35479925D01*
X55098242Y-35322858D01*
X55159529Y-35174899D01*
X55248499Y-35041745D01*
X55361745Y-34928499D01*
X55494899Y-34839529D01*
X55642858Y-34778242D01*
X55799925Y-34747000D01*
X55960075Y-34747000D01*
X56117142Y-34778242D01*
X56117142Y-34778242D01*
G37*
G36*
X58657142Y-34778242D02*
G01*
X58805101Y-34839529D01*
X58938255Y-34928499D01*
X59051501Y-35041745D01*
X59140471Y-35174899D01*
X59201758Y-35322858D01*
X59233000Y-35479925D01*
X59233000Y-35640075D01*
X59201758Y-35797142D01*
X59140471Y-35945101D01*
X59051501Y-36078255D01*
X58938255Y-36191501D01*
X58805101Y-36280471D01*
X58657142Y-36341758D01*
X58500075Y-36373000D01*
X58339925Y-36373000D01*
X58182858Y-36341758D01*
X58034899Y-36280471D01*
X57901745Y-36191501D01*
X57788499Y-36078255D01*
X57699529Y-35945101D01*
X57638242Y-35797142D01*
X57607000Y-35640075D01*
X57607000Y-35479925D01*
X57638242Y-35322858D01*
X57699529Y-35174899D01*
X57788499Y-35041745D01*
X57901745Y-34928499D01*
X58034899Y-34839529D01*
X58182858Y-34778242D01*
X58339925Y-34747000D01*
X58500075Y-34747000D01*
X58657142Y-34778242D01*
X58657142Y-34778242D01*
G37*
G36*
X61197142Y-34778242D02*
G01*
X61345101Y-34839529D01*
X61478255Y-34928499D01*
X61591501Y-35041745D01*
X61680471Y-35174899D01*
X61741758Y-35322858D01*
X61773000Y-35479925D01*
X61773000Y-35640075D01*
X61741758Y-35797142D01*
X61680471Y-35945101D01*
X61591501Y-36078255D01*
X61478255Y-36191501D01*
X61345101Y-36280471D01*
X61197142Y-36341758D01*
X61040075Y-36373000D01*
X60879925Y-36373000D01*
X60722858Y-36341758D01*
X60574899Y-36280471D01*
X60441745Y-36191501D01*
X60328499Y-36078255D01*
X60239529Y-35945101D01*
X60178242Y-35797142D01*
X60147000Y-35640075D01*
X60147000Y-35479925D01*
X60178242Y-35322858D01*
X60239529Y-35174899D01*
X60328499Y-35041745D01*
X60441745Y-34928499D01*
X60574899Y-34839529D01*
X60722858Y-34778242D01*
X60879925Y-34747000D01*
X61040075Y-34747000D01*
X61197142Y-34778242D01*
X61197142Y-34778242D01*
G37*
G36*
X63737142Y-34778242D02*
G01*
X63885101Y-34839529D01*
X64018255Y-34928499D01*
X64131501Y-35041745D01*
X64220471Y-35174899D01*
X64281758Y-35322858D01*
X64313000Y-35479925D01*
X64313000Y-35640075D01*
X64281758Y-35797142D01*
X64220471Y-35945101D01*
X64131501Y-36078255D01*
X64018255Y-36191501D01*
X63885101Y-36280471D01*
X63737142Y-36341758D01*
X63580075Y-36373000D01*
X63419925Y-36373000D01*
X63262858Y-36341758D01*
X63114899Y-36280471D01*
X62981745Y-36191501D01*
X62868499Y-36078255D01*
X62779529Y-35945101D01*
X62718242Y-35797142D01*
X62687000Y-35640075D01*
X62687000Y-35479925D01*
X62718242Y-35322858D01*
X62779529Y-35174899D01*
X62868499Y-35041745D01*
X62981745Y-34928499D01*
X63114899Y-34839529D01*
X63262858Y-34778242D01*
X63419925Y-34747000D01*
X63580075Y-34747000D01*
X63737142Y-34778242D01*
X63737142Y-34778242D01*
G37*
M02*
