G04 #@! TF.GenerationSoftware,KiCad,Pcbnew,(5.1.2-1)-1*
G04 #@! TF.CreationDate,2020-07-06T20:22:29+09:00*
G04 #@! TF.ProjectId,usb_7seg,7573625f-3773-4656-972e-6b696361645f,rev?*
G04 #@! TF.SameCoordinates,Original*
G04 #@! TF.FileFunction,Soldermask,Bot*
G04 #@! TF.FilePolarity,Negative*
%FSLAX46Y46*%
G04 Gerber Fmt 4.6, Leading zero omitted, Abs format (unit mm)*
G04 Created by KiCad (PCBNEW (5.1.2-1)-1) date 2020-07-06 20:22:29*
%MOMM*%
%LPD*%
G04 APERTURE LIST*
%ADD10C,0.100000*%
G04 APERTURE END LIST*
D10*
G36*
X132248228Y-81731703D02*
G01*
X132403100Y-81795853D01*
X132542481Y-81888985D01*
X132661015Y-82007519D01*
X132754147Y-82146900D01*
X132818297Y-82301772D01*
X132851000Y-82466184D01*
X132851000Y-82633816D01*
X132818297Y-82798228D01*
X132754147Y-82953100D01*
X132661015Y-83092481D01*
X132542481Y-83211015D01*
X132403100Y-83304147D01*
X132248228Y-83368297D01*
X132083816Y-83401000D01*
X131916184Y-83401000D01*
X131751772Y-83368297D01*
X131596900Y-83304147D01*
X131457519Y-83211015D01*
X131338985Y-83092481D01*
X131245853Y-82953100D01*
X131181703Y-82798228D01*
X131149000Y-82633816D01*
X131149000Y-82466184D01*
X131181703Y-82301772D01*
X131245853Y-82146900D01*
X131338985Y-82007519D01*
X131457519Y-81888985D01*
X131596900Y-81795853D01*
X131751772Y-81731703D01*
X131916184Y-81699000D01*
X132083816Y-81699000D01*
X132248228Y-81731703D01*
X132248228Y-81731703D01*
G37*
G36*
X127248228Y-81731703D02*
G01*
X127403100Y-81795853D01*
X127542481Y-81888985D01*
X127661015Y-82007519D01*
X127754147Y-82146900D01*
X127818297Y-82301772D01*
X127851000Y-82466184D01*
X127851000Y-82633816D01*
X127818297Y-82798228D01*
X127754147Y-82953100D01*
X127661015Y-83092481D01*
X127542481Y-83211015D01*
X127403100Y-83304147D01*
X127248228Y-83368297D01*
X127083816Y-83401000D01*
X126916184Y-83401000D01*
X126751772Y-83368297D01*
X126596900Y-83304147D01*
X126457519Y-83211015D01*
X126338985Y-83092481D01*
X126245853Y-82953100D01*
X126181703Y-82798228D01*
X126149000Y-82633816D01*
X126149000Y-82466184D01*
X126181703Y-82301772D01*
X126245853Y-82146900D01*
X126338985Y-82007519D01*
X126457519Y-81888985D01*
X126596900Y-81795853D01*
X126751772Y-81731703D01*
X126916184Y-81699000D01*
X127083816Y-81699000D01*
X127248228Y-81731703D01*
X127248228Y-81731703D01*
G37*
G36*
X122086823Y-81711313D02*
G01*
X122247242Y-81759976D01*
X122314361Y-81795852D01*
X122395078Y-81838996D01*
X122524659Y-81945341D01*
X122631004Y-82074922D01*
X122631005Y-82074924D01*
X122710024Y-82222758D01*
X122758687Y-82383177D01*
X122775117Y-82550000D01*
X122758687Y-82716823D01*
X122710024Y-82877242D01*
X122669477Y-82953100D01*
X122631004Y-83025078D01*
X122524659Y-83154659D01*
X122395078Y-83261004D01*
X122395076Y-83261005D01*
X122247242Y-83340024D01*
X122086823Y-83388687D01*
X121961804Y-83401000D01*
X121878196Y-83401000D01*
X121753177Y-83388687D01*
X121592758Y-83340024D01*
X121444924Y-83261005D01*
X121444922Y-83261004D01*
X121315341Y-83154659D01*
X121208996Y-83025078D01*
X121170523Y-82953100D01*
X121129976Y-82877242D01*
X121081313Y-82716823D01*
X121064883Y-82550000D01*
X121081313Y-82383177D01*
X121129976Y-82222758D01*
X121208995Y-82074924D01*
X121208996Y-82074922D01*
X121315341Y-81945341D01*
X121444922Y-81838996D01*
X121525639Y-81795852D01*
X121592758Y-81759976D01*
X121753177Y-81711313D01*
X121878196Y-81699000D01*
X121961804Y-81699000D01*
X122086823Y-81711313D01*
X122086823Y-81711313D01*
G37*
G36*
X112008228Y-81731703D02*
G01*
X112163100Y-81795853D01*
X112302481Y-81888985D01*
X112421015Y-82007519D01*
X112514147Y-82146900D01*
X112578297Y-82301772D01*
X112611000Y-82466184D01*
X112611000Y-82633816D01*
X112578297Y-82798228D01*
X112514147Y-82953100D01*
X112421015Y-83092481D01*
X112302481Y-83211015D01*
X112163100Y-83304147D01*
X112008228Y-83368297D01*
X111843816Y-83401000D01*
X111676184Y-83401000D01*
X111511772Y-83368297D01*
X111356900Y-83304147D01*
X111217519Y-83211015D01*
X111098985Y-83092481D01*
X111005853Y-82953100D01*
X110941703Y-82798228D01*
X110909000Y-82633816D01*
X110909000Y-82466184D01*
X110941703Y-82301772D01*
X111005853Y-82146900D01*
X111098985Y-82007519D01*
X111217519Y-81888985D01*
X111356900Y-81795853D01*
X111511772Y-81731703D01*
X111676184Y-81699000D01*
X111843816Y-81699000D01*
X112008228Y-81731703D01*
X112008228Y-81731703D01*
G37*
G36*
X70034056Y-73213249D02*
G01*
X70148891Y-73260815D01*
X70252239Y-73329870D01*
X70340130Y-73417761D01*
X70409185Y-73521109D01*
X70456751Y-73635944D01*
X70481000Y-73757852D01*
X70481000Y-73882148D01*
X70456751Y-74004056D01*
X70409185Y-74118891D01*
X70340130Y-74222239D01*
X70252239Y-74310130D01*
X70148891Y-74379185D01*
X70148890Y-74379186D01*
X70148889Y-74379186D01*
X70034056Y-74426751D01*
X69912149Y-74451000D01*
X69787851Y-74451000D01*
X69665944Y-74426751D01*
X69551111Y-74379186D01*
X69551110Y-74379186D01*
X69551109Y-74379185D01*
X69447761Y-74310130D01*
X69359870Y-74222239D01*
X69290815Y-74118891D01*
X69243249Y-74004056D01*
X69219000Y-73882148D01*
X69219000Y-73757852D01*
X69243249Y-73635944D01*
X69290815Y-73521109D01*
X69359870Y-73417761D01*
X69447761Y-73329870D01*
X69551109Y-73260815D01*
X69665944Y-73213249D01*
X69787851Y-73189000D01*
X69912149Y-73189000D01*
X70034056Y-73213249D01*
X70034056Y-73213249D01*
G37*
G36*
X67494056Y-73213249D02*
G01*
X67608891Y-73260815D01*
X67712239Y-73329870D01*
X67800130Y-73417761D01*
X67869185Y-73521109D01*
X67916751Y-73635944D01*
X67941000Y-73757852D01*
X67941000Y-73882148D01*
X67916751Y-74004056D01*
X67869185Y-74118891D01*
X67800130Y-74222239D01*
X67712239Y-74310130D01*
X67608891Y-74379185D01*
X67608890Y-74379186D01*
X67608889Y-74379186D01*
X67494056Y-74426751D01*
X67372149Y-74451000D01*
X67247851Y-74451000D01*
X67125944Y-74426751D01*
X67011111Y-74379186D01*
X67011110Y-74379186D01*
X67011109Y-74379185D01*
X66907761Y-74310130D01*
X66819870Y-74222239D01*
X66750815Y-74118891D01*
X66703249Y-74004056D01*
X66679000Y-73882148D01*
X66679000Y-73757852D01*
X66703249Y-73635944D01*
X66750815Y-73521109D01*
X66819870Y-73417761D01*
X66907761Y-73329870D01*
X67011109Y-73260815D01*
X67125944Y-73213249D01*
X67247851Y-73189000D01*
X67372149Y-73189000D01*
X67494056Y-73213249D01*
X67494056Y-73213249D01*
G37*
G36*
X64954056Y-73213249D02*
G01*
X65068891Y-73260815D01*
X65172239Y-73329870D01*
X65260130Y-73417761D01*
X65329185Y-73521109D01*
X65376751Y-73635944D01*
X65401000Y-73757852D01*
X65401000Y-73882148D01*
X65376751Y-74004056D01*
X65329185Y-74118891D01*
X65260130Y-74222239D01*
X65172239Y-74310130D01*
X65068891Y-74379185D01*
X65068890Y-74379186D01*
X65068889Y-74379186D01*
X64954056Y-74426751D01*
X64832149Y-74451000D01*
X64707851Y-74451000D01*
X64585944Y-74426751D01*
X64471111Y-74379186D01*
X64471110Y-74379186D01*
X64471109Y-74379185D01*
X64367761Y-74310130D01*
X64279870Y-74222239D01*
X64210815Y-74118891D01*
X64163249Y-74004056D01*
X64139000Y-73882148D01*
X64139000Y-73757852D01*
X64163249Y-73635944D01*
X64210815Y-73521109D01*
X64279870Y-73417761D01*
X64367761Y-73329870D01*
X64471109Y-73260815D01*
X64585944Y-73213249D01*
X64707851Y-73189000D01*
X64832149Y-73189000D01*
X64954056Y-73213249D01*
X64954056Y-73213249D01*
G37*
G36*
X62414056Y-73213249D02*
G01*
X62528891Y-73260815D01*
X62632239Y-73329870D01*
X62720130Y-73417761D01*
X62789185Y-73521109D01*
X62836751Y-73635944D01*
X62861000Y-73757852D01*
X62861000Y-73882148D01*
X62836751Y-74004056D01*
X62789185Y-74118891D01*
X62720130Y-74222239D01*
X62632239Y-74310130D01*
X62528891Y-74379185D01*
X62528890Y-74379186D01*
X62528889Y-74379186D01*
X62414056Y-74426751D01*
X62292149Y-74451000D01*
X62167851Y-74451000D01*
X62045944Y-74426751D01*
X61931111Y-74379186D01*
X61931110Y-74379186D01*
X61931109Y-74379185D01*
X61827761Y-74310130D01*
X61739870Y-74222239D01*
X61670815Y-74118891D01*
X61623249Y-74004056D01*
X61599000Y-73882148D01*
X61599000Y-73757852D01*
X61623249Y-73635944D01*
X61670815Y-73521109D01*
X61739870Y-73417761D01*
X61827761Y-73329870D01*
X61931109Y-73260815D01*
X62045944Y-73213249D01*
X62167851Y-73189000D01*
X62292149Y-73189000D01*
X62414056Y-73213249D01*
X62414056Y-73213249D01*
G37*
G36*
X59874056Y-73213249D02*
G01*
X59988891Y-73260815D01*
X60092239Y-73329870D01*
X60180130Y-73417761D01*
X60249185Y-73521109D01*
X60296751Y-73635944D01*
X60321000Y-73757852D01*
X60321000Y-73882148D01*
X60296751Y-74004056D01*
X60249185Y-74118891D01*
X60180130Y-74222239D01*
X60092239Y-74310130D01*
X59988891Y-74379185D01*
X59988890Y-74379186D01*
X59988889Y-74379186D01*
X59874056Y-74426751D01*
X59752149Y-74451000D01*
X59627851Y-74451000D01*
X59505944Y-74426751D01*
X59391111Y-74379186D01*
X59391110Y-74379186D01*
X59391109Y-74379185D01*
X59287761Y-74310130D01*
X59199870Y-74222239D01*
X59130815Y-74118891D01*
X59083249Y-74004056D01*
X59059000Y-73882148D01*
X59059000Y-73757852D01*
X59083249Y-73635944D01*
X59130815Y-73521109D01*
X59199870Y-73417761D01*
X59287761Y-73329870D01*
X59391109Y-73260815D01*
X59505944Y-73213249D01*
X59627851Y-73189000D01*
X59752149Y-73189000D01*
X59874056Y-73213249D01*
X59874056Y-73213249D01*
G37*
G36*
X57334056Y-73213249D02*
G01*
X57448891Y-73260815D01*
X57552239Y-73329870D01*
X57640130Y-73417761D01*
X57709185Y-73521109D01*
X57756751Y-73635944D01*
X57781000Y-73757852D01*
X57781000Y-73882148D01*
X57756751Y-74004056D01*
X57709185Y-74118891D01*
X57640130Y-74222239D01*
X57552239Y-74310130D01*
X57448891Y-74379185D01*
X57448890Y-74379186D01*
X57448889Y-74379186D01*
X57334056Y-74426751D01*
X57212149Y-74451000D01*
X57087851Y-74451000D01*
X56965944Y-74426751D01*
X56851111Y-74379186D01*
X56851110Y-74379186D01*
X56851109Y-74379185D01*
X56747761Y-74310130D01*
X56659870Y-74222239D01*
X56590815Y-74118891D01*
X56543249Y-74004056D01*
X56519000Y-73882148D01*
X56519000Y-73757852D01*
X56543249Y-73635944D01*
X56590815Y-73521109D01*
X56659870Y-73417761D01*
X56747761Y-73329870D01*
X56851109Y-73260815D01*
X56965944Y-73213249D01*
X57087851Y-73189000D01*
X57212149Y-73189000D01*
X57334056Y-73213249D01*
X57334056Y-73213249D01*
G37*
G36*
X54794056Y-73213249D02*
G01*
X54908891Y-73260815D01*
X55012239Y-73329870D01*
X55100130Y-73417761D01*
X55169185Y-73521109D01*
X55216751Y-73635944D01*
X55241000Y-73757852D01*
X55241000Y-73882148D01*
X55216751Y-74004056D01*
X55169185Y-74118891D01*
X55100130Y-74222239D01*
X55012239Y-74310130D01*
X54908891Y-74379185D01*
X54908890Y-74379186D01*
X54908889Y-74379186D01*
X54794056Y-74426751D01*
X54672149Y-74451000D01*
X54547851Y-74451000D01*
X54425944Y-74426751D01*
X54311111Y-74379186D01*
X54311110Y-74379186D01*
X54311109Y-74379185D01*
X54207761Y-74310130D01*
X54119870Y-74222239D01*
X54050815Y-74118891D01*
X54003249Y-74004056D01*
X53979000Y-73882148D01*
X53979000Y-73757852D01*
X54003249Y-73635944D01*
X54050815Y-73521109D01*
X54119870Y-73417761D01*
X54207761Y-73329870D01*
X54311109Y-73260815D01*
X54425944Y-73213249D01*
X54547851Y-73189000D01*
X54672149Y-73189000D01*
X54794056Y-73213249D01*
X54794056Y-73213249D01*
G37*
G36*
X52254056Y-73213249D02*
G01*
X52368891Y-73260815D01*
X52472239Y-73329870D01*
X52560130Y-73417761D01*
X52629185Y-73521109D01*
X52676751Y-73635944D01*
X52701000Y-73757852D01*
X52701000Y-73882148D01*
X52676751Y-74004056D01*
X52629185Y-74118891D01*
X52560130Y-74222239D01*
X52472239Y-74310130D01*
X52368891Y-74379185D01*
X52368890Y-74379186D01*
X52368889Y-74379186D01*
X52254056Y-74426751D01*
X52132149Y-74451000D01*
X52007851Y-74451000D01*
X51885944Y-74426751D01*
X51771111Y-74379186D01*
X51771110Y-74379186D01*
X51771109Y-74379185D01*
X51667761Y-74310130D01*
X51579870Y-74222239D01*
X51510815Y-74118891D01*
X51463249Y-74004056D01*
X51439000Y-73882148D01*
X51439000Y-73757852D01*
X51463249Y-73635944D01*
X51510815Y-73521109D01*
X51579870Y-73417761D01*
X51667761Y-73329870D01*
X51771109Y-73260815D01*
X51885944Y-73213249D01*
X52007851Y-73189000D01*
X52132149Y-73189000D01*
X52254056Y-73213249D01*
X52254056Y-73213249D01*
G37*
G36*
X80194056Y-73213249D02*
G01*
X80308891Y-73260815D01*
X80412239Y-73329870D01*
X80500130Y-73417761D01*
X80569185Y-73521109D01*
X80616751Y-73635944D01*
X80641000Y-73757852D01*
X80641000Y-73882148D01*
X80616751Y-74004056D01*
X80569185Y-74118891D01*
X80500130Y-74222239D01*
X80412239Y-74310130D01*
X80308891Y-74379185D01*
X80308890Y-74379186D01*
X80308889Y-74379186D01*
X80194056Y-74426751D01*
X80072149Y-74451000D01*
X79947851Y-74451000D01*
X79825944Y-74426751D01*
X79711111Y-74379186D01*
X79711110Y-74379186D01*
X79711109Y-74379185D01*
X79607761Y-74310130D01*
X79519870Y-74222239D01*
X79450815Y-74118891D01*
X79403249Y-74004056D01*
X79379000Y-73882148D01*
X79379000Y-73757852D01*
X79403249Y-73635944D01*
X79450815Y-73521109D01*
X79519870Y-73417761D01*
X79607761Y-73329870D01*
X79711109Y-73260815D01*
X79825944Y-73213249D01*
X79947851Y-73189000D01*
X80072149Y-73189000D01*
X80194056Y-73213249D01*
X80194056Y-73213249D01*
G37*
G36*
X77654056Y-73213249D02*
G01*
X77768891Y-73260815D01*
X77872239Y-73329870D01*
X77960130Y-73417761D01*
X78029185Y-73521109D01*
X78076751Y-73635944D01*
X78101000Y-73757852D01*
X78101000Y-73882148D01*
X78076751Y-74004056D01*
X78029185Y-74118891D01*
X77960130Y-74222239D01*
X77872239Y-74310130D01*
X77768891Y-74379185D01*
X77768890Y-74379186D01*
X77768889Y-74379186D01*
X77654056Y-74426751D01*
X77532149Y-74451000D01*
X77407851Y-74451000D01*
X77285944Y-74426751D01*
X77171111Y-74379186D01*
X77171110Y-74379186D01*
X77171109Y-74379185D01*
X77067761Y-74310130D01*
X76979870Y-74222239D01*
X76910815Y-74118891D01*
X76863249Y-74004056D01*
X76839000Y-73882148D01*
X76839000Y-73757852D01*
X76863249Y-73635944D01*
X76910815Y-73521109D01*
X76979870Y-73417761D01*
X77067761Y-73329870D01*
X77171109Y-73260815D01*
X77285944Y-73213249D01*
X77407851Y-73189000D01*
X77532149Y-73189000D01*
X77654056Y-73213249D01*
X77654056Y-73213249D01*
G37*
G36*
X72574056Y-73213249D02*
G01*
X72688891Y-73260815D01*
X72792239Y-73329870D01*
X72880130Y-73417761D01*
X72949185Y-73521109D01*
X72996751Y-73635944D01*
X73021000Y-73757852D01*
X73021000Y-73882148D01*
X72996751Y-74004056D01*
X72949185Y-74118891D01*
X72880130Y-74222239D01*
X72792239Y-74310130D01*
X72688891Y-74379185D01*
X72688890Y-74379186D01*
X72688889Y-74379186D01*
X72574056Y-74426751D01*
X72452149Y-74451000D01*
X72327851Y-74451000D01*
X72205944Y-74426751D01*
X72091111Y-74379186D01*
X72091110Y-74379186D01*
X72091109Y-74379185D01*
X71987761Y-74310130D01*
X71899870Y-74222239D01*
X71830815Y-74118891D01*
X71783249Y-74004056D01*
X71759000Y-73882148D01*
X71759000Y-73757852D01*
X71783249Y-73635944D01*
X71830815Y-73521109D01*
X71899870Y-73417761D01*
X71987761Y-73329870D01*
X72091109Y-73260815D01*
X72205944Y-73213249D01*
X72327851Y-73189000D01*
X72452149Y-73189000D01*
X72574056Y-73213249D01*
X72574056Y-73213249D01*
G37*
G36*
X75114056Y-73213249D02*
G01*
X75228891Y-73260815D01*
X75332239Y-73329870D01*
X75420130Y-73417761D01*
X75489185Y-73521109D01*
X75536751Y-73635944D01*
X75561000Y-73757852D01*
X75561000Y-73882148D01*
X75536751Y-74004056D01*
X75489185Y-74118891D01*
X75420130Y-74222239D01*
X75332239Y-74310130D01*
X75228891Y-74379185D01*
X75228890Y-74379186D01*
X75228889Y-74379186D01*
X75114056Y-74426751D01*
X74992149Y-74451000D01*
X74867851Y-74451000D01*
X74745944Y-74426751D01*
X74631111Y-74379186D01*
X74631110Y-74379186D01*
X74631109Y-74379185D01*
X74527761Y-74310130D01*
X74439870Y-74222239D01*
X74370815Y-74118891D01*
X74323249Y-74004056D01*
X74299000Y-73882148D01*
X74299000Y-73757852D01*
X74323249Y-73635944D01*
X74370815Y-73521109D01*
X74439870Y-73417761D01*
X74527761Y-73329870D01*
X74631109Y-73260815D01*
X74745944Y-73213249D01*
X74867851Y-73189000D01*
X74992149Y-73189000D01*
X75114056Y-73213249D01*
X75114056Y-73213249D01*
G37*
G36*
X52254056Y-65273249D02*
G01*
X52368891Y-65320815D01*
X52472239Y-65389870D01*
X52560130Y-65477761D01*
X52629185Y-65581109D01*
X52676751Y-65695944D01*
X52701000Y-65817852D01*
X52701000Y-65942148D01*
X52676751Y-66064056D01*
X52629185Y-66178891D01*
X52560130Y-66282239D01*
X52472239Y-66370130D01*
X52368891Y-66439185D01*
X52368890Y-66439186D01*
X52368889Y-66439186D01*
X52254056Y-66486751D01*
X52132149Y-66511000D01*
X52007851Y-66511000D01*
X51885944Y-66486751D01*
X51771111Y-66439186D01*
X51771110Y-66439186D01*
X51771109Y-66439185D01*
X51667761Y-66370130D01*
X51579870Y-66282239D01*
X51510815Y-66178891D01*
X51463249Y-66064056D01*
X51439000Y-65942148D01*
X51439000Y-65817852D01*
X51463249Y-65695944D01*
X51510815Y-65581109D01*
X51579870Y-65477761D01*
X51667761Y-65389870D01*
X51771109Y-65320815D01*
X51885944Y-65273249D01*
X52007851Y-65249000D01*
X52132149Y-65249000D01*
X52254056Y-65273249D01*
X52254056Y-65273249D01*
G37*
G36*
X54794056Y-65273249D02*
G01*
X54908891Y-65320815D01*
X55012239Y-65389870D01*
X55100130Y-65477761D01*
X55169185Y-65581109D01*
X55216751Y-65695944D01*
X55241000Y-65817852D01*
X55241000Y-65942148D01*
X55216751Y-66064056D01*
X55169185Y-66178891D01*
X55100130Y-66282239D01*
X55012239Y-66370130D01*
X54908891Y-66439185D01*
X54908890Y-66439186D01*
X54908889Y-66439186D01*
X54794056Y-66486751D01*
X54672149Y-66511000D01*
X54547851Y-66511000D01*
X54425944Y-66486751D01*
X54311111Y-66439186D01*
X54311110Y-66439186D01*
X54311109Y-66439185D01*
X54207761Y-66370130D01*
X54119870Y-66282239D01*
X54050815Y-66178891D01*
X54003249Y-66064056D01*
X53979000Y-65942148D01*
X53979000Y-65817852D01*
X54003249Y-65695944D01*
X54050815Y-65581109D01*
X54119870Y-65477761D01*
X54207761Y-65389870D01*
X54311109Y-65320815D01*
X54425944Y-65273249D01*
X54547851Y-65249000D01*
X54672149Y-65249000D01*
X54794056Y-65273249D01*
X54794056Y-65273249D01*
G37*
G36*
X57334056Y-65273249D02*
G01*
X57448891Y-65320815D01*
X57552239Y-65389870D01*
X57640130Y-65477761D01*
X57709185Y-65581109D01*
X57756751Y-65695944D01*
X57781000Y-65817852D01*
X57781000Y-65942148D01*
X57756751Y-66064056D01*
X57709185Y-66178891D01*
X57640130Y-66282239D01*
X57552239Y-66370130D01*
X57448891Y-66439185D01*
X57448890Y-66439186D01*
X57448889Y-66439186D01*
X57334056Y-66486751D01*
X57212149Y-66511000D01*
X57087851Y-66511000D01*
X56965944Y-66486751D01*
X56851111Y-66439186D01*
X56851110Y-66439186D01*
X56851109Y-66439185D01*
X56747761Y-66370130D01*
X56659870Y-66282239D01*
X56590815Y-66178891D01*
X56543249Y-66064056D01*
X56519000Y-65942148D01*
X56519000Y-65817852D01*
X56543249Y-65695944D01*
X56590815Y-65581109D01*
X56659870Y-65477761D01*
X56747761Y-65389870D01*
X56851109Y-65320815D01*
X56965944Y-65273249D01*
X57087851Y-65249000D01*
X57212149Y-65249000D01*
X57334056Y-65273249D01*
X57334056Y-65273249D01*
G37*
G36*
X59874056Y-65273249D02*
G01*
X59988891Y-65320815D01*
X60092239Y-65389870D01*
X60180130Y-65477761D01*
X60249185Y-65581109D01*
X60296751Y-65695944D01*
X60321000Y-65817852D01*
X60321000Y-65942148D01*
X60296751Y-66064056D01*
X60249185Y-66178891D01*
X60180130Y-66282239D01*
X60092239Y-66370130D01*
X59988891Y-66439185D01*
X59988890Y-66439186D01*
X59988889Y-66439186D01*
X59874056Y-66486751D01*
X59752149Y-66511000D01*
X59627851Y-66511000D01*
X59505944Y-66486751D01*
X59391111Y-66439186D01*
X59391110Y-66439186D01*
X59391109Y-66439185D01*
X59287761Y-66370130D01*
X59199870Y-66282239D01*
X59130815Y-66178891D01*
X59083249Y-66064056D01*
X59059000Y-65942148D01*
X59059000Y-65817852D01*
X59083249Y-65695944D01*
X59130815Y-65581109D01*
X59199870Y-65477761D01*
X59287761Y-65389870D01*
X59391109Y-65320815D01*
X59505944Y-65273249D01*
X59627851Y-65249000D01*
X59752149Y-65249000D01*
X59874056Y-65273249D01*
X59874056Y-65273249D01*
G37*
G36*
X62414056Y-65273249D02*
G01*
X62528891Y-65320815D01*
X62632239Y-65389870D01*
X62720130Y-65477761D01*
X62789185Y-65581109D01*
X62836751Y-65695944D01*
X62861000Y-65817852D01*
X62861000Y-65942148D01*
X62836751Y-66064056D01*
X62789185Y-66178891D01*
X62720130Y-66282239D01*
X62632239Y-66370130D01*
X62528891Y-66439185D01*
X62528890Y-66439186D01*
X62528889Y-66439186D01*
X62414056Y-66486751D01*
X62292149Y-66511000D01*
X62167851Y-66511000D01*
X62045944Y-66486751D01*
X61931111Y-66439186D01*
X61931110Y-66439186D01*
X61931109Y-66439185D01*
X61827761Y-66370130D01*
X61739870Y-66282239D01*
X61670815Y-66178891D01*
X61623249Y-66064056D01*
X61599000Y-65942148D01*
X61599000Y-65817852D01*
X61623249Y-65695944D01*
X61670815Y-65581109D01*
X61739870Y-65477761D01*
X61827761Y-65389870D01*
X61931109Y-65320815D01*
X62045944Y-65273249D01*
X62167851Y-65249000D01*
X62292149Y-65249000D01*
X62414056Y-65273249D01*
X62414056Y-65273249D01*
G37*
G36*
X64954056Y-65273249D02*
G01*
X65068891Y-65320815D01*
X65172239Y-65389870D01*
X65260130Y-65477761D01*
X65329185Y-65581109D01*
X65376751Y-65695944D01*
X65401000Y-65817852D01*
X65401000Y-65942148D01*
X65376751Y-66064056D01*
X65329185Y-66178891D01*
X65260130Y-66282239D01*
X65172239Y-66370130D01*
X65068891Y-66439185D01*
X65068890Y-66439186D01*
X65068889Y-66439186D01*
X64954056Y-66486751D01*
X64832149Y-66511000D01*
X64707851Y-66511000D01*
X64585944Y-66486751D01*
X64471111Y-66439186D01*
X64471110Y-66439186D01*
X64471109Y-66439185D01*
X64367761Y-66370130D01*
X64279870Y-66282239D01*
X64210815Y-66178891D01*
X64163249Y-66064056D01*
X64139000Y-65942148D01*
X64139000Y-65817852D01*
X64163249Y-65695944D01*
X64210815Y-65581109D01*
X64279870Y-65477761D01*
X64367761Y-65389870D01*
X64471109Y-65320815D01*
X64585944Y-65273249D01*
X64707851Y-65249000D01*
X64832149Y-65249000D01*
X64954056Y-65273249D01*
X64954056Y-65273249D01*
G37*
G36*
X67494056Y-65273249D02*
G01*
X67608891Y-65320815D01*
X67712239Y-65389870D01*
X67800130Y-65477761D01*
X67869185Y-65581109D01*
X67916751Y-65695944D01*
X67941000Y-65817852D01*
X67941000Y-65942148D01*
X67916751Y-66064056D01*
X67869185Y-66178891D01*
X67800130Y-66282239D01*
X67712239Y-66370130D01*
X67608891Y-66439185D01*
X67608890Y-66439186D01*
X67608889Y-66439186D01*
X67494056Y-66486751D01*
X67372149Y-66511000D01*
X67247851Y-66511000D01*
X67125944Y-66486751D01*
X67011111Y-66439186D01*
X67011110Y-66439186D01*
X67011109Y-66439185D01*
X66907761Y-66370130D01*
X66819870Y-66282239D01*
X66750815Y-66178891D01*
X66703249Y-66064056D01*
X66679000Y-65942148D01*
X66679000Y-65817852D01*
X66703249Y-65695944D01*
X66750815Y-65581109D01*
X66819870Y-65477761D01*
X66907761Y-65389870D01*
X67011109Y-65320815D01*
X67125944Y-65273249D01*
X67247851Y-65249000D01*
X67372149Y-65249000D01*
X67494056Y-65273249D01*
X67494056Y-65273249D01*
G37*
G36*
X70034056Y-65273249D02*
G01*
X70148891Y-65320815D01*
X70252239Y-65389870D01*
X70340130Y-65477761D01*
X70409185Y-65581109D01*
X70456751Y-65695944D01*
X70481000Y-65817852D01*
X70481000Y-65942148D01*
X70456751Y-66064056D01*
X70409185Y-66178891D01*
X70340130Y-66282239D01*
X70252239Y-66370130D01*
X70148891Y-66439185D01*
X70148890Y-66439186D01*
X70148889Y-66439186D01*
X70034056Y-66486751D01*
X69912149Y-66511000D01*
X69787851Y-66511000D01*
X69665944Y-66486751D01*
X69551111Y-66439186D01*
X69551110Y-66439186D01*
X69551109Y-66439185D01*
X69447761Y-66370130D01*
X69359870Y-66282239D01*
X69290815Y-66178891D01*
X69243249Y-66064056D01*
X69219000Y-65942148D01*
X69219000Y-65817852D01*
X69243249Y-65695944D01*
X69290815Y-65581109D01*
X69359870Y-65477761D01*
X69447761Y-65389870D01*
X69551109Y-65320815D01*
X69665944Y-65273249D01*
X69787851Y-65249000D01*
X69912149Y-65249000D01*
X70034056Y-65273249D01*
X70034056Y-65273249D01*
G37*
G36*
X72574056Y-65273249D02*
G01*
X72688891Y-65320815D01*
X72792239Y-65389870D01*
X72880130Y-65477761D01*
X72949185Y-65581109D01*
X72996751Y-65695944D01*
X73021000Y-65817852D01*
X73021000Y-65942148D01*
X72996751Y-66064056D01*
X72949185Y-66178891D01*
X72880130Y-66282239D01*
X72792239Y-66370130D01*
X72688891Y-66439185D01*
X72688890Y-66439186D01*
X72688889Y-66439186D01*
X72574056Y-66486751D01*
X72452149Y-66511000D01*
X72327851Y-66511000D01*
X72205944Y-66486751D01*
X72091111Y-66439186D01*
X72091110Y-66439186D01*
X72091109Y-66439185D01*
X71987761Y-66370130D01*
X71899870Y-66282239D01*
X71830815Y-66178891D01*
X71783249Y-66064056D01*
X71759000Y-65942148D01*
X71759000Y-65817852D01*
X71783249Y-65695944D01*
X71830815Y-65581109D01*
X71899870Y-65477761D01*
X71987761Y-65389870D01*
X72091109Y-65320815D01*
X72205944Y-65273249D01*
X72327851Y-65249000D01*
X72452149Y-65249000D01*
X72574056Y-65273249D01*
X72574056Y-65273249D01*
G37*
G36*
X75114056Y-65273249D02*
G01*
X75228891Y-65320815D01*
X75332239Y-65389870D01*
X75420130Y-65477761D01*
X75489185Y-65581109D01*
X75536751Y-65695944D01*
X75561000Y-65817852D01*
X75561000Y-65942148D01*
X75536751Y-66064056D01*
X75489185Y-66178891D01*
X75420130Y-66282239D01*
X75332239Y-66370130D01*
X75228891Y-66439185D01*
X75228890Y-66439186D01*
X75228889Y-66439186D01*
X75114056Y-66486751D01*
X74992149Y-66511000D01*
X74867851Y-66511000D01*
X74745944Y-66486751D01*
X74631111Y-66439186D01*
X74631110Y-66439186D01*
X74631109Y-66439185D01*
X74527761Y-66370130D01*
X74439870Y-66282239D01*
X74370815Y-66178891D01*
X74323249Y-66064056D01*
X74299000Y-65942148D01*
X74299000Y-65817852D01*
X74323249Y-65695944D01*
X74370815Y-65581109D01*
X74439870Y-65477761D01*
X74527761Y-65389870D01*
X74631109Y-65320815D01*
X74745944Y-65273249D01*
X74867851Y-65249000D01*
X74992149Y-65249000D01*
X75114056Y-65273249D01*
X75114056Y-65273249D01*
G37*
G36*
X77654056Y-65273249D02*
G01*
X77768891Y-65320815D01*
X77872239Y-65389870D01*
X77960130Y-65477761D01*
X78029185Y-65581109D01*
X78076751Y-65695944D01*
X78101000Y-65817852D01*
X78101000Y-65942148D01*
X78076751Y-66064056D01*
X78029185Y-66178891D01*
X77960130Y-66282239D01*
X77872239Y-66370130D01*
X77768891Y-66439185D01*
X77768890Y-66439186D01*
X77768889Y-66439186D01*
X77654056Y-66486751D01*
X77532149Y-66511000D01*
X77407851Y-66511000D01*
X77285944Y-66486751D01*
X77171111Y-66439186D01*
X77171110Y-66439186D01*
X77171109Y-66439185D01*
X77067761Y-66370130D01*
X76979870Y-66282239D01*
X76910815Y-66178891D01*
X76863249Y-66064056D01*
X76839000Y-65942148D01*
X76839000Y-65817852D01*
X76863249Y-65695944D01*
X76910815Y-65581109D01*
X76979870Y-65477761D01*
X77067761Y-65389870D01*
X77171109Y-65320815D01*
X77285944Y-65273249D01*
X77407851Y-65249000D01*
X77532149Y-65249000D01*
X77654056Y-65273249D01*
X77654056Y-65273249D01*
G37*
G36*
X80641000Y-66511000D02*
G01*
X79379000Y-66511000D01*
X79379000Y-65249000D01*
X80641000Y-65249000D01*
X80641000Y-66511000D01*
X80641000Y-66511000D01*
G37*
G36*
X113267142Y-50018242D02*
G01*
X113415101Y-50079529D01*
X113548255Y-50168499D01*
X113661501Y-50281745D01*
X113750471Y-50414899D01*
X113811758Y-50562858D01*
X113843000Y-50719925D01*
X113843000Y-50880075D01*
X113811758Y-51037142D01*
X113750471Y-51185101D01*
X113661501Y-51318255D01*
X113548255Y-51431501D01*
X113415101Y-51520471D01*
X113267142Y-51581758D01*
X113110075Y-51613000D01*
X112949925Y-51613000D01*
X112792858Y-51581758D01*
X112644899Y-51520471D01*
X112511745Y-51431501D01*
X112398499Y-51318255D01*
X112309529Y-51185101D01*
X112248242Y-51037142D01*
X112217000Y-50880075D01*
X112217000Y-50719925D01*
X112248242Y-50562858D01*
X112309529Y-50414899D01*
X112398499Y-50281745D01*
X112511745Y-50168499D01*
X112644899Y-50079529D01*
X112792858Y-50018242D01*
X112949925Y-49987000D01*
X113110075Y-49987000D01*
X113267142Y-50018242D01*
X113267142Y-50018242D01*
G37*
G36*
X115807142Y-50018242D02*
G01*
X115955101Y-50079529D01*
X116088255Y-50168499D01*
X116201501Y-50281745D01*
X116290471Y-50414899D01*
X116351758Y-50562858D01*
X116383000Y-50719925D01*
X116383000Y-50880075D01*
X116351758Y-51037142D01*
X116290471Y-51185101D01*
X116201501Y-51318255D01*
X116088255Y-51431501D01*
X115955101Y-51520471D01*
X115807142Y-51581758D01*
X115650075Y-51613000D01*
X115489925Y-51613000D01*
X115332858Y-51581758D01*
X115184899Y-51520471D01*
X115051745Y-51431501D01*
X114938499Y-51318255D01*
X114849529Y-51185101D01*
X114788242Y-51037142D01*
X114757000Y-50880075D01*
X114757000Y-50719925D01*
X114788242Y-50562858D01*
X114849529Y-50414899D01*
X114938499Y-50281745D01*
X115051745Y-50168499D01*
X115184899Y-50079529D01*
X115332858Y-50018242D01*
X115489925Y-49987000D01*
X115650075Y-49987000D01*
X115807142Y-50018242D01*
X115807142Y-50018242D01*
G37*
G36*
X63737142Y-50018242D02*
G01*
X63885101Y-50079529D01*
X64018255Y-50168499D01*
X64131501Y-50281745D01*
X64220471Y-50414899D01*
X64281758Y-50562858D01*
X64313000Y-50719925D01*
X64313000Y-50880075D01*
X64281758Y-51037142D01*
X64220471Y-51185101D01*
X64131501Y-51318255D01*
X64018255Y-51431501D01*
X63885101Y-51520471D01*
X63737142Y-51581758D01*
X63580075Y-51613000D01*
X63419925Y-51613000D01*
X63262858Y-51581758D01*
X63114899Y-51520471D01*
X62981745Y-51431501D01*
X62868499Y-51318255D01*
X62779529Y-51185101D01*
X62718242Y-51037142D01*
X62687000Y-50880075D01*
X62687000Y-50719925D01*
X62718242Y-50562858D01*
X62779529Y-50414899D01*
X62868499Y-50281745D01*
X62981745Y-50168499D01*
X63114899Y-50079529D01*
X63262858Y-50018242D01*
X63419925Y-49987000D01*
X63580075Y-49987000D01*
X63737142Y-50018242D01*
X63737142Y-50018242D01*
G37*
G36*
X61197142Y-50018242D02*
G01*
X61345101Y-50079529D01*
X61478255Y-50168499D01*
X61591501Y-50281745D01*
X61680471Y-50414899D01*
X61741758Y-50562858D01*
X61773000Y-50719925D01*
X61773000Y-50880075D01*
X61741758Y-51037142D01*
X61680471Y-51185101D01*
X61591501Y-51318255D01*
X61478255Y-51431501D01*
X61345101Y-51520471D01*
X61197142Y-51581758D01*
X61040075Y-51613000D01*
X60879925Y-51613000D01*
X60722858Y-51581758D01*
X60574899Y-51520471D01*
X60441745Y-51431501D01*
X60328499Y-51318255D01*
X60239529Y-51185101D01*
X60178242Y-51037142D01*
X60147000Y-50880075D01*
X60147000Y-50719925D01*
X60178242Y-50562858D01*
X60239529Y-50414899D01*
X60328499Y-50281745D01*
X60441745Y-50168499D01*
X60574899Y-50079529D01*
X60722858Y-50018242D01*
X60879925Y-49987000D01*
X61040075Y-49987000D01*
X61197142Y-50018242D01*
X61197142Y-50018242D01*
G37*
G36*
X58657142Y-50018242D02*
G01*
X58805101Y-50079529D01*
X58938255Y-50168499D01*
X59051501Y-50281745D01*
X59140471Y-50414899D01*
X59201758Y-50562858D01*
X59233000Y-50719925D01*
X59233000Y-50880075D01*
X59201758Y-51037142D01*
X59140471Y-51185101D01*
X59051501Y-51318255D01*
X58938255Y-51431501D01*
X58805101Y-51520471D01*
X58657142Y-51581758D01*
X58500075Y-51613000D01*
X58339925Y-51613000D01*
X58182858Y-51581758D01*
X58034899Y-51520471D01*
X57901745Y-51431501D01*
X57788499Y-51318255D01*
X57699529Y-51185101D01*
X57638242Y-51037142D01*
X57607000Y-50880075D01*
X57607000Y-50719925D01*
X57638242Y-50562858D01*
X57699529Y-50414899D01*
X57788499Y-50281745D01*
X57901745Y-50168499D01*
X58034899Y-50079529D01*
X58182858Y-50018242D01*
X58339925Y-49987000D01*
X58500075Y-49987000D01*
X58657142Y-50018242D01*
X58657142Y-50018242D01*
G37*
G36*
X56117142Y-50018242D02*
G01*
X56265101Y-50079529D01*
X56398255Y-50168499D01*
X56511501Y-50281745D01*
X56600471Y-50414899D01*
X56661758Y-50562858D01*
X56693000Y-50719925D01*
X56693000Y-50880075D01*
X56661758Y-51037142D01*
X56600471Y-51185101D01*
X56511501Y-51318255D01*
X56398255Y-51431501D01*
X56265101Y-51520471D01*
X56117142Y-51581758D01*
X55960075Y-51613000D01*
X55799925Y-51613000D01*
X55642858Y-51581758D01*
X55494899Y-51520471D01*
X55361745Y-51431501D01*
X55248499Y-51318255D01*
X55159529Y-51185101D01*
X55098242Y-51037142D01*
X55067000Y-50880075D01*
X55067000Y-50719925D01*
X55098242Y-50562858D01*
X55159529Y-50414899D01*
X55248499Y-50281745D01*
X55361745Y-50168499D01*
X55494899Y-50079529D01*
X55642858Y-50018242D01*
X55799925Y-49987000D01*
X55960075Y-49987000D01*
X56117142Y-50018242D01*
X56117142Y-50018242D01*
G37*
G36*
X53577142Y-50018242D02*
G01*
X53725101Y-50079529D01*
X53858255Y-50168499D01*
X53971501Y-50281745D01*
X54060471Y-50414899D01*
X54121758Y-50562858D01*
X54153000Y-50719925D01*
X54153000Y-50880075D01*
X54121758Y-51037142D01*
X54060471Y-51185101D01*
X53971501Y-51318255D01*
X53858255Y-51431501D01*
X53725101Y-51520471D01*
X53577142Y-51581758D01*
X53420075Y-51613000D01*
X53259925Y-51613000D01*
X53102858Y-51581758D01*
X52954899Y-51520471D01*
X52821745Y-51431501D01*
X52708499Y-51318255D01*
X52619529Y-51185101D01*
X52558242Y-51037142D01*
X52527000Y-50880075D01*
X52527000Y-50719925D01*
X52558242Y-50562858D01*
X52619529Y-50414899D01*
X52708499Y-50281745D01*
X52821745Y-50168499D01*
X52954899Y-50079529D01*
X53102858Y-50018242D01*
X53259925Y-49987000D01*
X53420075Y-49987000D01*
X53577142Y-50018242D01*
X53577142Y-50018242D01*
G37*
G36*
X51037142Y-50018242D02*
G01*
X51185101Y-50079529D01*
X51318255Y-50168499D01*
X51431501Y-50281745D01*
X51520471Y-50414899D01*
X51581758Y-50562858D01*
X51613000Y-50719925D01*
X51613000Y-50880075D01*
X51581758Y-51037142D01*
X51520471Y-51185101D01*
X51431501Y-51318255D01*
X51318255Y-51431501D01*
X51185101Y-51520471D01*
X51037142Y-51581758D01*
X50880075Y-51613000D01*
X50719925Y-51613000D01*
X50562858Y-51581758D01*
X50414899Y-51520471D01*
X50281745Y-51431501D01*
X50168499Y-51318255D01*
X50079529Y-51185101D01*
X50018242Y-51037142D01*
X49987000Y-50880075D01*
X49987000Y-50719925D01*
X50018242Y-50562858D01*
X50079529Y-50414899D01*
X50168499Y-50281745D01*
X50281745Y-50168499D01*
X50414899Y-50079529D01*
X50562858Y-50018242D01*
X50719925Y-49987000D01*
X50880075Y-49987000D01*
X51037142Y-50018242D01*
X51037142Y-50018242D01*
G37*
G36*
X110727142Y-50018242D02*
G01*
X110875101Y-50079529D01*
X111008255Y-50168499D01*
X111121501Y-50281745D01*
X111210471Y-50414899D01*
X111271758Y-50562858D01*
X111303000Y-50719925D01*
X111303000Y-50880075D01*
X111271758Y-51037142D01*
X111210471Y-51185101D01*
X111121501Y-51318255D01*
X111008255Y-51431501D01*
X110875101Y-51520471D01*
X110727142Y-51581758D01*
X110570075Y-51613000D01*
X110409925Y-51613000D01*
X110252858Y-51581758D01*
X110104899Y-51520471D01*
X109971745Y-51431501D01*
X109858499Y-51318255D01*
X109769529Y-51185101D01*
X109708242Y-51037142D01*
X109677000Y-50880075D01*
X109677000Y-50719925D01*
X109708242Y-50562858D01*
X109769529Y-50414899D01*
X109858499Y-50281745D01*
X109971745Y-50168499D01*
X110104899Y-50079529D01*
X110252858Y-50018242D01*
X110409925Y-49987000D01*
X110570075Y-49987000D01*
X110727142Y-50018242D01*
X110727142Y-50018242D01*
G37*
G36*
X108187142Y-50018242D02*
G01*
X108335101Y-50079529D01*
X108468255Y-50168499D01*
X108581501Y-50281745D01*
X108670471Y-50414899D01*
X108731758Y-50562858D01*
X108763000Y-50719925D01*
X108763000Y-50880075D01*
X108731758Y-51037142D01*
X108670471Y-51185101D01*
X108581501Y-51318255D01*
X108468255Y-51431501D01*
X108335101Y-51520471D01*
X108187142Y-51581758D01*
X108030075Y-51613000D01*
X107869925Y-51613000D01*
X107712858Y-51581758D01*
X107564899Y-51520471D01*
X107431745Y-51431501D01*
X107318499Y-51318255D01*
X107229529Y-51185101D01*
X107168242Y-51037142D01*
X107137000Y-50880075D01*
X107137000Y-50719925D01*
X107168242Y-50562858D01*
X107229529Y-50414899D01*
X107318499Y-50281745D01*
X107431745Y-50168499D01*
X107564899Y-50079529D01*
X107712858Y-50018242D01*
X107869925Y-49987000D01*
X108030075Y-49987000D01*
X108187142Y-50018242D01*
X108187142Y-50018242D01*
G37*
G36*
X105647142Y-50018242D02*
G01*
X105795101Y-50079529D01*
X105928255Y-50168499D01*
X106041501Y-50281745D01*
X106130471Y-50414899D01*
X106191758Y-50562858D01*
X106223000Y-50719925D01*
X106223000Y-50880075D01*
X106191758Y-51037142D01*
X106130471Y-51185101D01*
X106041501Y-51318255D01*
X105928255Y-51431501D01*
X105795101Y-51520471D01*
X105647142Y-51581758D01*
X105490075Y-51613000D01*
X105329925Y-51613000D01*
X105172858Y-51581758D01*
X105024899Y-51520471D01*
X104891745Y-51431501D01*
X104778499Y-51318255D01*
X104689529Y-51185101D01*
X104628242Y-51037142D01*
X104597000Y-50880075D01*
X104597000Y-50719925D01*
X104628242Y-50562858D01*
X104689529Y-50414899D01*
X104778499Y-50281745D01*
X104891745Y-50168499D01*
X105024899Y-50079529D01*
X105172858Y-50018242D01*
X105329925Y-49987000D01*
X105490075Y-49987000D01*
X105647142Y-50018242D01*
X105647142Y-50018242D01*
G37*
G36*
X103107142Y-50018242D02*
G01*
X103255101Y-50079529D01*
X103388255Y-50168499D01*
X103501501Y-50281745D01*
X103590471Y-50414899D01*
X103651758Y-50562858D01*
X103683000Y-50719925D01*
X103683000Y-50880075D01*
X103651758Y-51037142D01*
X103590471Y-51185101D01*
X103501501Y-51318255D01*
X103388255Y-51431501D01*
X103255101Y-51520471D01*
X103107142Y-51581758D01*
X102950075Y-51613000D01*
X102789925Y-51613000D01*
X102632858Y-51581758D01*
X102484899Y-51520471D01*
X102351745Y-51431501D01*
X102238499Y-51318255D01*
X102149529Y-51185101D01*
X102088242Y-51037142D01*
X102057000Y-50880075D01*
X102057000Y-50719925D01*
X102088242Y-50562858D01*
X102149529Y-50414899D01*
X102238499Y-50281745D01*
X102351745Y-50168499D01*
X102484899Y-50079529D01*
X102632858Y-50018242D01*
X102789925Y-49987000D01*
X102950075Y-49987000D01*
X103107142Y-50018242D01*
X103107142Y-50018242D01*
G37*
G36*
X115807142Y-34778242D02*
G01*
X115955101Y-34839529D01*
X116088255Y-34928499D01*
X116201501Y-35041745D01*
X116290471Y-35174899D01*
X116351758Y-35322858D01*
X116383000Y-35479925D01*
X116383000Y-35640075D01*
X116351758Y-35797142D01*
X116290471Y-35945101D01*
X116201501Y-36078255D01*
X116088255Y-36191501D01*
X115955101Y-36280471D01*
X115807142Y-36341758D01*
X115650075Y-36373000D01*
X115489925Y-36373000D01*
X115332858Y-36341758D01*
X115184899Y-36280471D01*
X115051745Y-36191501D01*
X114938499Y-36078255D01*
X114849529Y-35945101D01*
X114788242Y-35797142D01*
X114757000Y-35640075D01*
X114757000Y-35479925D01*
X114788242Y-35322858D01*
X114849529Y-35174899D01*
X114938499Y-35041745D01*
X115051745Y-34928499D01*
X115184899Y-34839529D01*
X115332858Y-34778242D01*
X115489925Y-34747000D01*
X115650075Y-34747000D01*
X115807142Y-34778242D01*
X115807142Y-34778242D01*
G37*
G36*
X113267142Y-34778242D02*
G01*
X113415101Y-34839529D01*
X113548255Y-34928499D01*
X113661501Y-35041745D01*
X113750471Y-35174899D01*
X113811758Y-35322858D01*
X113843000Y-35479925D01*
X113843000Y-35640075D01*
X113811758Y-35797142D01*
X113750471Y-35945101D01*
X113661501Y-36078255D01*
X113548255Y-36191501D01*
X113415101Y-36280471D01*
X113267142Y-36341758D01*
X113110075Y-36373000D01*
X112949925Y-36373000D01*
X112792858Y-36341758D01*
X112644899Y-36280471D01*
X112511745Y-36191501D01*
X112398499Y-36078255D01*
X112309529Y-35945101D01*
X112248242Y-35797142D01*
X112217000Y-35640075D01*
X112217000Y-35479925D01*
X112248242Y-35322858D01*
X112309529Y-35174899D01*
X112398499Y-35041745D01*
X112511745Y-34928499D01*
X112644899Y-34839529D01*
X112792858Y-34778242D01*
X112949925Y-34747000D01*
X113110075Y-34747000D01*
X113267142Y-34778242D01*
X113267142Y-34778242D01*
G37*
G36*
X110727142Y-34778242D02*
G01*
X110875101Y-34839529D01*
X111008255Y-34928499D01*
X111121501Y-35041745D01*
X111210471Y-35174899D01*
X111271758Y-35322858D01*
X111303000Y-35479925D01*
X111303000Y-35640075D01*
X111271758Y-35797142D01*
X111210471Y-35945101D01*
X111121501Y-36078255D01*
X111008255Y-36191501D01*
X110875101Y-36280471D01*
X110727142Y-36341758D01*
X110570075Y-36373000D01*
X110409925Y-36373000D01*
X110252858Y-36341758D01*
X110104899Y-36280471D01*
X109971745Y-36191501D01*
X109858499Y-36078255D01*
X109769529Y-35945101D01*
X109708242Y-35797142D01*
X109677000Y-35640075D01*
X109677000Y-35479925D01*
X109708242Y-35322858D01*
X109769529Y-35174899D01*
X109858499Y-35041745D01*
X109971745Y-34928499D01*
X110104899Y-34839529D01*
X110252858Y-34778242D01*
X110409925Y-34747000D01*
X110570075Y-34747000D01*
X110727142Y-34778242D01*
X110727142Y-34778242D01*
G37*
G36*
X108187142Y-34778242D02*
G01*
X108335101Y-34839529D01*
X108468255Y-34928499D01*
X108581501Y-35041745D01*
X108670471Y-35174899D01*
X108731758Y-35322858D01*
X108763000Y-35479925D01*
X108763000Y-35640075D01*
X108731758Y-35797142D01*
X108670471Y-35945101D01*
X108581501Y-36078255D01*
X108468255Y-36191501D01*
X108335101Y-36280471D01*
X108187142Y-36341758D01*
X108030075Y-36373000D01*
X107869925Y-36373000D01*
X107712858Y-36341758D01*
X107564899Y-36280471D01*
X107431745Y-36191501D01*
X107318499Y-36078255D01*
X107229529Y-35945101D01*
X107168242Y-35797142D01*
X107137000Y-35640075D01*
X107137000Y-35479925D01*
X107168242Y-35322858D01*
X107229529Y-35174899D01*
X107318499Y-35041745D01*
X107431745Y-34928499D01*
X107564899Y-34839529D01*
X107712858Y-34778242D01*
X107869925Y-34747000D01*
X108030075Y-34747000D01*
X108187142Y-34778242D01*
X108187142Y-34778242D01*
G37*
G36*
X105647142Y-34778242D02*
G01*
X105795101Y-34839529D01*
X105928255Y-34928499D01*
X106041501Y-35041745D01*
X106130471Y-35174899D01*
X106191758Y-35322858D01*
X106223000Y-35479925D01*
X106223000Y-35640075D01*
X106191758Y-35797142D01*
X106130471Y-35945101D01*
X106041501Y-36078255D01*
X105928255Y-36191501D01*
X105795101Y-36280471D01*
X105647142Y-36341758D01*
X105490075Y-36373000D01*
X105329925Y-36373000D01*
X105172858Y-36341758D01*
X105024899Y-36280471D01*
X104891745Y-36191501D01*
X104778499Y-36078255D01*
X104689529Y-35945101D01*
X104628242Y-35797142D01*
X104597000Y-35640075D01*
X104597000Y-35479925D01*
X104628242Y-35322858D01*
X104689529Y-35174899D01*
X104778499Y-35041745D01*
X104891745Y-34928499D01*
X105024899Y-34839529D01*
X105172858Y-34778242D01*
X105329925Y-34747000D01*
X105490075Y-34747000D01*
X105647142Y-34778242D01*
X105647142Y-34778242D01*
G37*
G36*
X103107142Y-34778242D02*
G01*
X103255101Y-34839529D01*
X103388255Y-34928499D01*
X103501501Y-35041745D01*
X103590471Y-35174899D01*
X103651758Y-35322858D01*
X103683000Y-35479925D01*
X103683000Y-35640075D01*
X103651758Y-35797142D01*
X103590471Y-35945101D01*
X103501501Y-36078255D01*
X103388255Y-36191501D01*
X103255101Y-36280471D01*
X103107142Y-36341758D01*
X102950075Y-36373000D01*
X102789925Y-36373000D01*
X102632858Y-36341758D01*
X102484899Y-36280471D01*
X102351745Y-36191501D01*
X102238499Y-36078255D01*
X102149529Y-35945101D01*
X102088242Y-35797142D01*
X102057000Y-35640075D01*
X102057000Y-35479925D01*
X102088242Y-35322858D01*
X102149529Y-35174899D01*
X102238499Y-35041745D01*
X102351745Y-34928499D01*
X102484899Y-34839529D01*
X102632858Y-34778242D01*
X102789925Y-34747000D01*
X102950075Y-34747000D01*
X103107142Y-34778242D01*
X103107142Y-34778242D01*
G37*
G36*
X63737142Y-34778242D02*
G01*
X63885101Y-34839529D01*
X64018255Y-34928499D01*
X64131501Y-35041745D01*
X64220471Y-35174899D01*
X64281758Y-35322858D01*
X64313000Y-35479925D01*
X64313000Y-35640075D01*
X64281758Y-35797142D01*
X64220471Y-35945101D01*
X64131501Y-36078255D01*
X64018255Y-36191501D01*
X63885101Y-36280471D01*
X63737142Y-36341758D01*
X63580075Y-36373000D01*
X63419925Y-36373000D01*
X63262858Y-36341758D01*
X63114899Y-36280471D01*
X62981745Y-36191501D01*
X62868499Y-36078255D01*
X62779529Y-35945101D01*
X62718242Y-35797142D01*
X62687000Y-35640075D01*
X62687000Y-35479925D01*
X62718242Y-35322858D01*
X62779529Y-35174899D01*
X62868499Y-35041745D01*
X62981745Y-34928499D01*
X63114899Y-34839529D01*
X63262858Y-34778242D01*
X63419925Y-34747000D01*
X63580075Y-34747000D01*
X63737142Y-34778242D01*
X63737142Y-34778242D01*
G37*
G36*
X61197142Y-34778242D02*
G01*
X61345101Y-34839529D01*
X61478255Y-34928499D01*
X61591501Y-35041745D01*
X61680471Y-35174899D01*
X61741758Y-35322858D01*
X61773000Y-35479925D01*
X61773000Y-35640075D01*
X61741758Y-35797142D01*
X61680471Y-35945101D01*
X61591501Y-36078255D01*
X61478255Y-36191501D01*
X61345101Y-36280471D01*
X61197142Y-36341758D01*
X61040075Y-36373000D01*
X60879925Y-36373000D01*
X60722858Y-36341758D01*
X60574899Y-36280471D01*
X60441745Y-36191501D01*
X60328499Y-36078255D01*
X60239529Y-35945101D01*
X60178242Y-35797142D01*
X60147000Y-35640075D01*
X60147000Y-35479925D01*
X60178242Y-35322858D01*
X60239529Y-35174899D01*
X60328499Y-35041745D01*
X60441745Y-34928499D01*
X60574899Y-34839529D01*
X60722858Y-34778242D01*
X60879925Y-34747000D01*
X61040075Y-34747000D01*
X61197142Y-34778242D01*
X61197142Y-34778242D01*
G37*
G36*
X58657142Y-34778242D02*
G01*
X58805101Y-34839529D01*
X58938255Y-34928499D01*
X59051501Y-35041745D01*
X59140471Y-35174899D01*
X59201758Y-35322858D01*
X59233000Y-35479925D01*
X59233000Y-35640075D01*
X59201758Y-35797142D01*
X59140471Y-35945101D01*
X59051501Y-36078255D01*
X58938255Y-36191501D01*
X58805101Y-36280471D01*
X58657142Y-36341758D01*
X58500075Y-36373000D01*
X58339925Y-36373000D01*
X58182858Y-36341758D01*
X58034899Y-36280471D01*
X57901745Y-36191501D01*
X57788499Y-36078255D01*
X57699529Y-35945101D01*
X57638242Y-35797142D01*
X57607000Y-35640075D01*
X57607000Y-35479925D01*
X57638242Y-35322858D01*
X57699529Y-35174899D01*
X57788499Y-35041745D01*
X57901745Y-34928499D01*
X58034899Y-34839529D01*
X58182858Y-34778242D01*
X58339925Y-34747000D01*
X58500075Y-34747000D01*
X58657142Y-34778242D01*
X58657142Y-34778242D01*
G37*
G36*
X56117142Y-34778242D02*
G01*
X56265101Y-34839529D01*
X56398255Y-34928499D01*
X56511501Y-35041745D01*
X56600471Y-35174899D01*
X56661758Y-35322858D01*
X56693000Y-35479925D01*
X56693000Y-35640075D01*
X56661758Y-35797142D01*
X56600471Y-35945101D01*
X56511501Y-36078255D01*
X56398255Y-36191501D01*
X56265101Y-36280471D01*
X56117142Y-36341758D01*
X55960075Y-36373000D01*
X55799925Y-36373000D01*
X55642858Y-36341758D01*
X55494899Y-36280471D01*
X55361745Y-36191501D01*
X55248499Y-36078255D01*
X55159529Y-35945101D01*
X55098242Y-35797142D01*
X55067000Y-35640075D01*
X55067000Y-35479925D01*
X55098242Y-35322858D01*
X55159529Y-35174899D01*
X55248499Y-35041745D01*
X55361745Y-34928499D01*
X55494899Y-34839529D01*
X55642858Y-34778242D01*
X55799925Y-34747000D01*
X55960075Y-34747000D01*
X56117142Y-34778242D01*
X56117142Y-34778242D01*
G37*
G36*
X53577142Y-34778242D02*
G01*
X53725101Y-34839529D01*
X53858255Y-34928499D01*
X53971501Y-35041745D01*
X54060471Y-35174899D01*
X54121758Y-35322858D01*
X54153000Y-35479925D01*
X54153000Y-35640075D01*
X54121758Y-35797142D01*
X54060471Y-35945101D01*
X53971501Y-36078255D01*
X53858255Y-36191501D01*
X53725101Y-36280471D01*
X53577142Y-36341758D01*
X53420075Y-36373000D01*
X53259925Y-36373000D01*
X53102858Y-36341758D01*
X52954899Y-36280471D01*
X52821745Y-36191501D01*
X52708499Y-36078255D01*
X52619529Y-35945101D01*
X52558242Y-35797142D01*
X52527000Y-35640075D01*
X52527000Y-35479925D01*
X52558242Y-35322858D01*
X52619529Y-35174899D01*
X52708499Y-35041745D01*
X52821745Y-34928499D01*
X52954899Y-34839529D01*
X53102858Y-34778242D01*
X53259925Y-34747000D01*
X53420075Y-34747000D01*
X53577142Y-34778242D01*
X53577142Y-34778242D01*
G37*
G36*
X51037142Y-34778242D02*
G01*
X51185101Y-34839529D01*
X51318255Y-34928499D01*
X51431501Y-35041745D01*
X51520471Y-35174899D01*
X51581758Y-35322858D01*
X51613000Y-35479925D01*
X51613000Y-35640075D01*
X51581758Y-35797142D01*
X51520471Y-35945101D01*
X51431501Y-36078255D01*
X51318255Y-36191501D01*
X51185101Y-36280471D01*
X51037142Y-36341758D01*
X50880075Y-36373000D01*
X50719925Y-36373000D01*
X50562858Y-36341758D01*
X50414899Y-36280471D01*
X50281745Y-36191501D01*
X50168499Y-36078255D01*
X50079529Y-35945101D01*
X50018242Y-35797142D01*
X49987000Y-35640075D01*
X49987000Y-35479925D01*
X50018242Y-35322858D01*
X50079529Y-35174899D01*
X50168499Y-35041745D01*
X50281745Y-34928499D01*
X50414899Y-34839529D01*
X50562858Y-34778242D01*
X50719925Y-34747000D01*
X50880075Y-34747000D01*
X51037142Y-34778242D01*
X51037142Y-34778242D01*
G37*
M02*
