M48
METRIC,TZ
T1C0.400
T2C0.760
T3C0.762
T4C0.800
%
G90
G05
T1
X49530Y-36830
X50678Y-69972
X54610Y-33020
X57150Y-31750
X58052Y-60058
X59690Y-76200
X69850Y-80010
X72310Y-71200
X72390Y-80010
X72607Y-67748
X74990Y-57210
X82550Y-62230
X87630Y-78740
X88900Y-62230
X102870Y-62230
X104140Y-33020
X105410Y-31750
X110490Y-63500
T2
X52070Y-65880
X52070Y-73820
X54610Y-65880
X54610Y-73820
X57150Y-65880
X57150Y-73820
X59690Y-65880
X59690Y-73820
X62230Y-65880
X62230Y-73820
X64770Y-65880
X64770Y-73820
X67310Y-65880
X67310Y-73820
X69850Y-65880
X69850Y-73820
X72390Y-65880
X72390Y-73820
X74930Y-65880
X74930Y-73820
X77470Y-65880
X77470Y-73820
X80010Y-65880
X80010Y-73820
T3
X102870Y-35560
X102870Y-50800
X105410Y-35560
X105410Y-50800
X107950Y-35560
X107950Y-50800
X110490Y-35560
X110490Y-50800
X113030Y-35560
X113030Y-50800
X115570Y-35560
X115570Y-50800
X50800Y-35560
X50800Y-50800
X53340Y-35560
X53340Y-50800
X55880Y-35560
X55880Y-50800
X58420Y-35560
X58420Y-50800
X60960Y-35560
X60960Y-50800
X63500Y-35560
X63500Y-50800
T4
X111760Y-82550
X121920Y-82550
X127000Y-82550
X132000Y-82550
T0
M30
