G04 #@! TF.GenerationSoftware,KiCad,Pcbnew,(5.1.2-1)-1*
G04 #@! TF.CreationDate,2020-07-06T20:22:29+09:00*
G04 #@! TF.ProjectId,usb_7seg,7573625f-3773-4656-972e-6b696361645f,rev?*
G04 #@! TF.SameCoordinates,Original*
G04 #@! TF.FileFunction,Copper,L1,Top*
G04 #@! TF.FilePolarity,Positive*
%FSLAX46Y46*%
G04 Gerber Fmt 4.6, Leading zero omitted, Abs format (unit mm)*
G04 Created by KiCad (PCBNEW (5.1.2-1)-1) date 2020-07-06 20:22:29*
%MOMM*%
%LPD*%
G04 APERTURE LIST*
%ADD10C,1.524000*%
%ADD11C,1.600000*%
%ADD12C,0.100000*%
%ADD13C,1.150000*%
%ADD14R,1.160000X1.160000*%
%ADD15C,1.160000*%
%ADD16R,0.650000X1.925000*%
%ADD17O,1.600000X1.600000*%
%ADD18O,1.998980X2.748280*%
%ADD19O,2.032000X1.016000*%
%ADD20C,1.143000*%
%ADD21C,0.800000*%
%ADD22C,0.250000*%
%ADD23C,0.254000*%
G04 APERTURE END LIST*
D10*
X102870000Y-50800000D03*
X105410000Y-50800000D03*
X107950000Y-50800000D03*
X110490000Y-50800000D03*
X113030000Y-50800000D03*
X115570000Y-50800000D03*
X115570000Y-35560000D03*
X113030000Y-35560000D03*
X110490000Y-35560000D03*
X107950000Y-35560000D03*
X105410000Y-35560000D03*
X102870000Y-35560000D03*
D11*
X127000000Y-82550000D03*
X132000000Y-82550000D03*
D12*
G36*
X128864505Y-81851204D02*
G01*
X128888773Y-81854804D01*
X128912572Y-81860765D01*
X128935671Y-81869030D01*
X128957850Y-81879520D01*
X128978893Y-81892132D01*
X128998599Y-81906747D01*
X129016777Y-81923223D01*
X129033253Y-81941401D01*
X129047868Y-81961107D01*
X129060480Y-81982150D01*
X129070970Y-82004329D01*
X129079235Y-82027428D01*
X129085196Y-82051227D01*
X129088796Y-82075495D01*
X129090000Y-82099999D01*
X129090000Y-83000001D01*
X129088796Y-83024505D01*
X129085196Y-83048773D01*
X129079235Y-83072572D01*
X129070970Y-83095671D01*
X129060480Y-83117850D01*
X129047868Y-83138893D01*
X129033253Y-83158599D01*
X129016777Y-83176777D01*
X128998599Y-83193253D01*
X128978893Y-83207868D01*
X128957850Y-83220480D01*
X128935671Y-83230970D01*
X128912572Y-83239235D01*
X128888773Y-83245196D01*
X128864505Y-83248796D01*
X128840001Y-83250000D01*
X128189999Y-83250000D01*
X128165495Y-83248796D01*
X128141227Y-83245196D01*
X128117428Y-83239235D01*
X128094329Y-83230970D01*
X128072150Y-83220480D01*
X128051107Y-83207868D01*
X128031401Y-83193253D01*
X128013223Y-83176777D01*
X127996747Y-83158599D01*
X127982132Y-83138893D01*
X127969520Y-83117850D01*
X127959030Y-83095671D01*
X127950765Y-83072572D01*
X127944804Y-83048773D01*
X127941204Y-83024505D01*
X127940000Y-83000001D01*
X127940000Y-82099999D01*
X127941204Y-82075495D01*
X127944804Y-82051227D01*
X127950765Y-82027428D01*
X127959030Y-82004329D01*
X127969520Y-81982150D01*
X127982132Y-81961107D01*
X127996747Y-81941401D01*
X128013223Y-81923223D01*
X128031401Y-81906747D01*
X128051107Y-81892132D01*
X128072150Y-81879520D01*
X128094329Y-81869030D01*
X128117428Y-81860765D01*
X128141227Y-81854804D01*
X128165495Y-81851204D01*
X128189999Y-81850000D01*
X128840001Y-81850000D01*
X128864505Y-81851204D01*
X128864505Y-81851204D01*
G37*
D13*
X128515000Y-82550000D03*
D12*
G36*
X130914505Y-81851204D02*
G01*
X130938773Y-81854804D01*
X130962572Y-81860765D01*
X130985671Y-81869030D01*
X131007850Y-81879520D01*
X131028893Y-81892132D01*
X131048599Y-81906747D01*
X131066777Y-81923223D01*
X131083253Y-81941401D01*
X131097868Y-81961107D01*
X131110480Y-81982150D01*
X131120970Y-82004329D01*
X131129235Y-82027428D01*
X131135196Y-82051227D01*
X131138796Y-82075495D01*
X131140000Y-82099999D01*
X131140000Y-83000001D01*
X131138796Y-83024505D01*
X131135196Y-83048773D01*
X131129235Y-83072572D01*
X131120970Y-83095671D01*
X131110480Y-83117850D01*
X131097868Y-83138893D01*
X131083253Y-83158599D01*
X131066777Y-83176777D01*
X131048599Y-83193253D01*
X131028893Y-83207868D01*
X131007850Y-83220480D01*
X130985671Y-83230970D01*
X130962572Y-83239235D01*
X130938773Y-83245196D01*
X130914505Y-83248796D01*
X130890001Y-83250000D01*
X130239999Y-83250000D01*
X130215495Y-83248796D01*
X130191227Y-83245196D01*
X130167428Y-83239235D01*
X130144329Y-83230970D01*
X130122150Y-83220480D01*
X130101107Y-83207868D01*
X130081401Y-83193253D01*
X130063223Y-83176777D01*
X130046747Y-83158599D01*
X130032132Y-83138893D01*
X130019520Y-83117850D01*
X130009030Y-83095671D01*
X130000765Y-83072572D01*
X129994804Y-83048773D01*
X129991204Y-83024505D01*
X129990000Y-83000001D01*
X129990000Y-82099999D01*
X129991204Y-82075495D01*
X129994804Y-82051227D01*
X130000765Y-82027428D01*
X130009030Y-82004329D01*
X130019520Y-81982150D01*
X130032132Y-81961107D01*
X130046747Y-81941401D01*
X130063223Y-81923223D01*
X130081401Y-81906747D01*
X130101107Y-81892132D01*
X130122150Y-81879520D01*
X130144329Y-81869030D01*
X130167428Y-81860765D01*
X130191227Y-81854804D01*
X130215495Y-81851204D01*
X130239999Y-81850000D01*
X130890001Y-81850000D01*
X130914505Y-81851204D01*
X130914505Y-81851204D01*
G37*
D13*
X130565000Y-82550000D03*
D14*
X80010000Y-65880000D03*
D15*
X77470000Y-65880000D03*
X74930000Y-65880000D03*
X72390000Y-65880000D03*
X69850000Y-65880000D03*
X67310000Y-65880000D03*
X64770000Y-65880000D03*
X62230000Y-65880000D03*
X59690000Y-65880000D03*
X57150000Y-65880000D03*
X54610000Y-65880000D03*
X52070000Y-65880000D03*
X52070000Y-73820000D03*
X54610000Y-73820000D03*
X57150000Y-73820000D03*
X59690000Y-73820000D03*
X62230000Y-73820000D03*
X64770000Y-73820000D03*
X67310000Y-73820000D03*
X69850000Y-73820000D03*
X72390000Y-73820000D03*
X74930000Y-73820000D03*
X77470000Y-73820000D03*
X80010000Y-73820000D03*
D16*
X74295000Y-60058000D03*
X73025000Y-60058000D03*
X71755000Y-60058000D03*
X70485000Y-60058000D03*
X69215000Y-60058000D03*
X67945000Y-60058000D03*
X66675000Y-60058000D03*
X65405000Y-60058000D03*
X64135000Y-60058000D03*
X62865000Y-60058000D03*
X61595000Y-60058000D03*
X60325000Y-60058000D03*
X60325000Y-69482000D03*
X61595000Y-69482000D03*
X62865000Y-69482000D03*
X64135000Y-69482000D03*
X65405000Y-69482000D03*
X66675000Y-69482000D03*
X67945000Y-69482000D03*
X69215000Y-69482000D03*
X70485000Y-69482000D03*
X71755000Y-69482000D03*
X73025000Y-69482000D03*
X74295000Y-69482000D03*
D11*
X111760000Y-82550000D03*
D17*
X121920000Y-82550000D03*
D12*
G36*
X118214505Y-81851204D02*
G01*
X118238773Y-81854804D01*
X118262572Y-81860765D01*
X118285671Y-81869030D01*
X118307850Y-81879520D01*
X118328893Y-81892132D01*
X118348599Y-81906747D01*
X118366777Y-81923223D01*
X118383253Y-81941401D01*
X118397868Y-81961107D01*
X118410480Y-81982150D01*
X118420970Y-82004329D01*
X118429235Y-82027428D01*
X118435196Y-82051227D01*
X118438796Y-82075495D01*
X118440000Y-82099999D01*
X118440000Y-83000001D01*
X118438796Y-83024505D01*
X118435196Y-83048773D01*
X118429235Y-83072572D01*
X118420970Y-83095671D01*
X118410480Y-83117850D01*
X118397868Y-83138893D01*
X118383253Y-83158599D01*
X118366777Y-83176777D01*
X118348599Y-83193253D01*
X118328893Y-83207868D01*
X118307850Y-83220480D01*
X118285671Y-83230970D01*
X118262572Y-83239235D01*
X118238773Y-83245196D01*
X118214505Y-83248796D01*
X118190001Y-83250000D01*
X117539999Y-83250000D01*
X117515495Y-83248796D01*
X117491227Y-83245196D01*
X117467428Y-83239235D01*
X117444329Y-83230970D01*
X117422150Y-83220480D01*
X117401107Y-83207868D01*
X117381401Y-83193253D01*
X117363223Y-83176777D01*
X117346747Y-83158599D01*
X117332132Y-83138893D01*
X117319520Y-83117850D01*
X117309030Y-83095671D01*
X117300765Y-83072572D01*
X117294804Y-83048773D01*
X117291204Y-83024505D01*
X117290000Y-83000001D01*
X117290000Y-82099999D01*
X117291204Y-82075495D01*
X117294804Y-82051227D01*
X117300765Y-82027428D01*
X117309030Y-82004329D01*
X117319520Y-81982150D01*
X117332132Y-81961107D01*
X117346747Y-81941401D01*
X117363223Y-81923223D01*
X117381401Y-81906747D01*
X117401107Y-81892132D01*
X117422150Y-81879520D01*
X117444329Y-81869030D01*
X117467428Y-81860765D01*
X117491227Y-81854804D01*
X117515495Y-81851204D01*
X117539999Y-81850000D01*
X118190001Y-81850000D01*
X118214505Y-81851204D01*
X118214505Y-81851204D01*
G37*
D13*
X117865000Y-82550000D03*
D12*
G36*
X116164505Y-81851204D02*
G01*
X116188773Y-81854804D01*
X116212572Y-81860765D01*
X116235671Y-81869030D01*
X116257850Y-81879520D01*
X116278893Y-81892132D01*
X116298599Y-81906747D01*
X116316777Y-81923223D01*
X116333253Y-81941401D01*
X116347868Y-81961107D01*
X116360480Y-81982150D01*
X116370970Y-82004329D01*
X116379235Y-82027428D01*
X116385196Y-82051227D01*
X116388796Y-82075495D01*
X116390000Y-82099999D01*
X116390000Y-83000001D01*
X116388796Y-83024505D01*
X116385196Y-83048773D01*
X116379235Y-83072572D01*
X116370970Y-83095671D01*
X116360480Y-83117850D01*
X116347868Y-83138893D01*
X116333253Y-83158599D01*
X116316777Y-83176777D01*
X116298599Y-83193253D01*
X116278893Y-83207868D01*
X116257850Y-83220480D01*
X116235671Y-83230970D01*
X116212572Y-83239235D01*
X116188773Y-83245196D01*
X116164505Y-83248796D01*
X116140001Y-83250000D01*
X115489999Y-83250000D01*
X115465495Y-83248796D01*
X115441227Y-83245196D01*
X115417428Y-83239235D01*
X115394329Y-83230970D01*
X115372150Y-83220480D01*
X115351107Y-83207868D01*
X115331401Y-83193253D01*
X115313223Y-83176777D01*
X115296747Y-83158599D01*
X115282132Y-83138893D01*
X115269520Y-83117850D01*
X115259030Y-83095671D01*
X115250765Y-83072572D01*
X115244804Y-83048773D01*
X115241204Y-83024505D01*
X115240000Y-83000001D01*
X115240000Y-82099999D01*
X115241204Y-82075495D01*
X115244804Y-82051227D01*
X115250765Y-82027428D01*
X115259030Y-82004329D01*
X115269520Y-81982150D01*
X115282132Y-81961107D01*
X115296747Y-81941401D01*
X115313223Y-81923223D01*
X115331401Y-81906747D01*
X115351107Y-81892132D01*
X115372150Y-81879520D01*
X115394329Y-81869030D01*
X115417428Y-81860765D01*
X115441227Y-81854804D01*
X115465495Y-81851204D01*
X115489999Y-81850000D01*
X116140001Y-81850000D01*
X116164505Y-81851204D01*
X116164505Y-81851204D01*
G37*
D13*
X115815000Y-82550000D03*
D18*
X131147820Y-75417680D03*
X128607820Y-75417680D03*
X126067820Y-75417680D03*
X123527820Y-75417680D03*
X120987820Y-75417680D03*
X118447820Y-75417680D03*
X115907820Y-75417680D03*
X115907820Y-59253120D03*
X118447820Y-59253120D03*
X120987820Y-59253120D03*
X123527820Y-59253120D03*
X126067820Y-59253120D03*
X128607820Y-59253120D03*
X131147820Y-59253120D03*
D19*
X114830000Y-66120000D03*
X114830000Y-68670000D03*
D20*
X131834187Y-66118803D03*
X131834187Y-68658803D03*
X129294187Y-66118803D03*
X129294187Y-68658803D03*
D10*
X50800000Y-50800000D03*
X53340000Y-50800000D03*
X55880000Y-50800000D03*
X58420000Y-50800000D03*
X60960000Y-50800000D03*
X63500000Y-50800000D03*
X63500000Y-35560000D03*
X60960000Y-35560000D03*
X58420000Y-35560000D03*
X55880000Y-35560000D03*
X53340000Y-35560000D03*
X50800000Y-35560000D03*
D21*
X87630000Y-78740000D03*
X110490000Y-63500000D03*
X49530000Y-36830000D03*
X74990403Y-57210403D03*
X58052000Y-60058000D03*
X88900000Y-62230000D03*
X102870000Y-62230000D03*
X82550000Y-62230000D03*
X59690000Y-76200000D03*
X104140000Y-33020000D03*
X54610000Y-33020000D03*
X105410000Y-31750000D03*
X57150000Y-31750000D03*
X72390000Y-80010000D03*
X50677653Y-69972347D03*
X72310000Y-71200000D03*
X72607059Y-67747747D03*
X69850000Y-80010000D03*
D22*
X127000000Y-77025500D02*
X128607820Y-75417680D01*
X127000000Y-82550000D02*
X128515000Y-82550000D01*
X64135000Y-61435000D02*
X64135000Y-60058000D01*
X59690000Y-65880000D02*
X64135000Y-61435000D01*
X70485000Y-63975000D02*
X70485000Y-60058000D01*
X72390000Y-65880000D02*
X70485000Y-63975000D01*
X60595001Y-66785001D02*
X60269999Y-66459999D01*
X71484999Y-66785001D02*
X60595001Y-66785001D01*
X60269999Y-66459999D02*
X59690000Y-65880000D01*
X72390000Y-65880000D02*
X71484999Y-66785001D01*
X127000000Y-82550000D02*
X127000000Y-77470000D01*
X127000000Y-77470000D02*
X127000000Y-77025500D01*
X125730000Y-78740000D02*
X127000000Y-77470000D01*
X87630000Y-78740000D02*
X125730000Y-78740000D01*
X75018000Y-60058000D02*
X74870000Y-60058000D01*
X74870000Y-60058000D02*
X74295000Y-60058000D01*
X80010000Y-65050000D02*
X75018000Y-60058000D01*
X80010000Y-65880000D02*
X80010000Y-65050000D01*
X110490000Y-63500000D02*
X114658330Y-59331670D01*
X115829270Y-59331670D02*
X115907820Y-59253120D01*
X114658330Y-59331670D02*
X115829270Y-59331670D01*
X73025000Y-61435000D02*
X73025000Y-60058000D01*
X77470000Y-65880000D02*
X73025000Y-61435000D01*
X73025000Y-60058000D02*
X73025000Y-59420500D01*
X50800000Y-35560000D02*
X49530000Y-36830000D01*
X73025000Y-59175806D02*
X73025000Y-60058000D01*
X74990403Y-57210403D02*
X73025000Y-59175806D01*
X71755000Y-62705000D02*
X71755000Y-60058000D01*
X74930000Y-65880000D02*
X71755000Y-62705000D01*
X95615500Y-35560000D02*
X101792370Y-35560000D01*
X101792370Y-35560000D02*
X102870000Y-35560000D01*
X71755000Y-59420500D02*
X95615500Y-35560000D01*
X71755000Y-60058000D02*
X71755000Y-59420500D01*
X69215000Y-65245000D02*
X69215000Y-60058000D01*
X69850000Y-65880000D02*
X69215000Y-65245000D01*
X69215000Y-59420500D02*
X94345500Y-34290000D01*
X69215000Y-60058000D02*
X69215000Y-59420500D01*
X111760000Y-34290000D02*
X113030000Y-35560000D01*
X94345500Y-34290000D02*
X111760000Y-34290000D01*
X67945000Y-65245000D02*
X67945000Y-60058000D01*
X67310000Y-65880000D02*
X67945000Y-65245000D01*
X67945000Y-42545000D02*
X60960000Y-35560000D01*
X67945000Y-60058000D02*
X67945000Y-42545000D01*
X66675000Y-63975000D02*
X66675000Y-60058000D01*
X64770000Y-65880000D02*
X66675000Y-63975000D01*
X66675000Y-53975000D02*
X63500000Y-50800000D01*
X66675000Y-60058000D02*
X66675000Y-53975000D01*
X65405000Y-62705000D02*
X65405000Y-60058000D01*
X62230000Y-65880000D02*
X65405000Y-62705000D01*
X62865000Y-60985243D02*
X62865000Y-60058000D01*
X57150000Y-65880000D02*
X57970243Y-65880000D01*
X57970243Y-65880000D02*
X62865000Y-60985243D01*
X60944999Y-61345501D02*
X61595000Y-60695500D01*
X59144499Y-61345501D02*
X60944999Y-61345501D01*
X61595000Y-60695500D02*
X61595000Y-60058000D01*
X54610000Y-65880000D02*
X59144499Y-61345501D01*
X59181999Y-36321999D02*
X58420000Y-35560000D01*
X59507001Y-36647001D02*
X59181999Y-36321999D01*
X59507001Y-57332501D02*
X59507001Y-36647001D01*
X61595000Y-59420500D02*
X59507001Y-57332501D01*
X61595000Y-60058000D02*
X61595000Y-59420500D01*
X57892000Y-60058000D02*
X52070000Y-65880000D01*
X60325000Y-60058000D02*
X58052000Y-60058000D01*
X58052000Y-60058000D02*
X57892000Y-60058000D01*
X118447820Y-75043030D02*
X118447820Y-75417680D01*
X105634790Y-62230000D02*
X118447820Y-75043030D01*
X102870000Y-62230000D02*
X105634790Y-62230000D01*
X82550000Y-62230000D02*
X88900000Y-62230000D01*
X56408000Y-69482000D02*
X60325000Y-69482000D01*
X52070000Y-73820000D02*
X56408000Y-69482000D01*
X115907820Y-75417680D02*
X115907820Y-77132180D01*
X115907820Y-77132180D02*
X115570000Y-77470000D01*
X115570000Y-77470000D02*
X60960000Y-77470000D01*
X60960000Y-77470000D02*
X59690000Y-76200000D01*
X59690000Y-76200000D02*
X59690000Y-76200000D01*
X61595000Y-70694500D02*
X61595000Y-69482000D01*
X57660499Y-70769501D02*
X61519999Y-70769501D01*
X61519999Y-70769501D02*
X61595000Y-70694500D01*
X54610000Y-73820000D02*
X57660499Y-70769501D01*
X48260000Y-40640000D02*
X53340000Y-35560000D01*
X49530000Y-76200000D02*
X48260000Y-74930000D01*
X48260000Y-74930000D02*
X48260000Y-40640000D01*
X53340000Y-76200000D02*
X49530000Y-76200000D01*
X54610000Y-74930000D02*
X53340000Y-76200000D01*
X54610000Y-73820000D02*
X54610000Y-74930000D01*
X104140000Y-33020000D02*
X54610000Y-33020000D01*
X61764989Y-71219511D02*
X62865000Y-70119500D01*
X62865000Y-70119500D02*
X62865000Y-69482000D01*
X59750489Y-71219511D02*
X61764989Y-71219511D01*
X57150000Y-73820000D02*
X59750489Y-71219511D01*
X54792999Y-34472999D02*
X55118001Y-34798001D01*
X55118001Y-34798001D02*
X55880000Y-35560000D01*
X47809990Y-75116400D02*
X47809991Y-40453599D01*
X52252999Y-35038239D02*
X52818239Y-34472999D01*
X47809991Y-40453599D02*
X52252999Y-36010591D01*
X49343599Y-76650009D02*
X47809990Y-75116400D01*
X52252999Y-36010591D02*
X52252999Y-35038239D01*
X54319991Y-76650009D02*
X49343599Y-76650009D01*
X52818239Y-34472999D02*
X54792999Y-34472999D01*
X57150000Y-73820000D02*
X54319991Y-76650009D01*
X105410000Y-31750000D02*
X57150000Y-31750000D01*
X64135000Y-70119500D02*
X64135000Y-69482000D01*
X61014499Y-73240001D02*
X64135000Y-70119500D01*
X60269999Y-73240001D02*
X61014499Y-73240001D01*
X59690000Y-73820000D02*
X60269999Y-73240001D01*
X50728249Y-34022989D02*
X61962989Y-34022989D01*
X61962989Y-34022989D02*
X62738001Y-34798001D01*
X47359981Y-37391257D02*
X50728249Y-34022989D01*
X47359981Y-75302799D02*
X47359981Y-37391257D01*
X49157198Y-77100018D02*
X47359981Y-75302799D01*
X62738001Y-34798001D02*
X63500000Y-35560000D01*
X56409982Y-77100018D02*
X49157198Y-77100018D01*
X59690000Y-73820000D02*
X56409982Y-77100018D01*
X65220010Y-33839990D02*
X64261999Y-34798001D01*
X64261999Y-34798001D02*
X63500000Y-35560000D01*
X113849990Y-33839990D02*
X65220010Y-33839990D01*
X115570000Y-35560000D02*
X113849990Y-33839990D01*
X65405000Y-70645000D02*
X65405000Y-69482000D01*
X62230000Y-73820000D02*
X65405000Y-70645000D01*
X62230000Y-73820000D02*
X64610000Y-76200000D01*
X64610000Y-76200000D02*
X87630000Y-76200000D01*
X87630000Y-76200000D02*
X113030000Y-50800000D01*
X131147820Y-75792330D02*
X131147820Y-75417680D01*
X129415010Y-77525140D02*
X131147820Y-75792330D01*
X67945000Y-73185000D02*
X67945000Y-69482000D01*
X67310000Y-73820000D02*
X67945000Y-73185000D01*
X121920000Y-82550000D02*
X117865000Y-82550000D01*
X132000000Y-82550000D02*
X130565000Y-82550000D01*
X129415010Y-81400010D02*
X130565000Y-82550000D01*
X129415010Y-77525140D02*
X129415010Y-81400010D01*
X123190000Y-83820000D02*
X122719999Y-83349999D01*
X122719999Y-83349999D02*
X121920000Y-82550000D01*
X130730000Y-83820000D02*
X123190000Y-83820000D01*
X132000000Y-82550000D02*
X130730000Y-83820000D01*
X69215000Y-73185000D02*
X69215000Y-69482000D01*
X69850000Y-73820000D02*
X69215000Y-73185000D01*
X70429999Y-74399999D02*
X69850000Y-73820000D01*
X70960000Y-74930000D02*
X70429999Y-74399999D01*
X86360000Y-74930000D02*
X70960000Y-74930000D01*
X110490000Y-50800000D02*
X86360000Y-74930000D01*
X50800000Y-69850000D02*
X50677653Y-69972347D01*
X50800000Y-58420000D02*
X50800000Y-69850000D01*
X58420000Y-50800000D02*
X50800000Y-58420000D01*
X70485000Y-71915000D02*
X70485000Y-69482000D01*
X72390000Y-73820000D02*
X70485000Y-71915000D01*
X72544499Y-66785001D02*
X86884999Y-66785001D01*
X70485000Y-68844500D02*
X72544499Y-66785001D01*
X102108001Y-51561999D02*
X102870000Y-50800000D01*
X86884999Y-66785001D02*
X102108001Y-51561999D01*
X70485000Y-69482000D02*
X70485000Y-68844500D01*
X71755000Y-70645000D02*
X71755000Y-69482000D01*
X104888239Y-49712999D02*
X106862999Y-49712999D01*
X104322999Y-50955763D02*
X104322999Y-50278239D01*
X73364489Y-67235011D02*
X88043751Y-67235011D01*
X106862999Y-49712999D02*
X107188001Y-50038001D01*
X107188001Y-50038001D02*
X107950000Y-50800000D01*
X71755000Y-69482000D02*
X71755000Y-68844500D01*
X104322999Y-50278239D02*
X104888239Y-49712999D01*
X88043751Y-67235011D02*
X104322999Y-50955763D01*
X74930000Y-73820000D02*
X72310000Y-71200000D01*
X72310000Y-71200000D02*
X71755000Y-70645000D01*
X71755000Y-68844500D02*
X73364489Y-67235011D01*
X73025000Y-70195243D02*
X73025000Y-69482000D01*
X76649757Y-73820000D02*
X73025000Y-70195243D01*
X77470000Y-73820000D02*
X76649757Y-73820000D01*
X104648001Y-51561999D02*
X105410000Y-50800000D01*
X73025000Y-69482000D02*
X73025000Y-68844500D01*
X88524979Y-67685021D02*
X104648001Y-51561999D01*
X73025000Y-68844500D02*
X74184479Y-67685021D01*
X74184479Y-67685021D02*
X88524979Y-67685021D01*
X66675000Y-71915000D02*
X66675000Y-69482000D01*
X64770000Y-73820000D02*
X66675000Y-71915000D01*
X115815000Y-82550000D02*
X111760000Y-82550000D01*
D23*
G36*
X137185844Y-26149895D02*
G01*
X136861839Y-26425645D01*
X136597565Y-26759076D01*
X136403087Y-27137488D01*
X136285814Y-27546468D01*
X136250212Y-27970438D01*
X136297638Y-28393247D01*
X136426285Y-28798793D01*
X136631253Y-29171628D01*
X136904734Y-29497550D01*
X137236312Y-29764146D01*
X137613358Y-29961261D01*
X138021509Y-30081386D01*
X138445219Y-30119947D01*
X138868350Y-30075474D01*
X139274784Y-29949662D01*
X139649041Y-29747302D01*
X139976864Y-29476103D01*
X140245768Y-29146394D01*
X140275001Y-29091415D01*
X140275000Y-83945376D01*
X140211376Y-83833378D01*
X139933371Y-83511305D01*
X139598102Y-83249365D01*
X139218342Y-83057534D01*
X138808553Y-82943119D01*
X138384346Y-82910478D01*
X137961877Y-82960854D01*
X137557239Y-83092329D01*
X137185844Y-83299895D01*
X136861839Y-83575645D01*
X136597565Y-83909076D01*
X136403087Y-84287488D01*
X136285814Y-84696468D01*
X136250212Y-85120438D01*
X136297638Y-85543247D01*
X136426285Y-85948793D01*
X136631253Y-86321628D01*
X136904734Y-86647550D01*
X137236312Y-86914146D01*
X137276202Y-86935000D01*
X26549320Y-86935000D01*
X26619041Y-86897302D01*
X26946864Y-86626103D01*
X27215768Y-86296394D01*
X27415510Y-85920733D01*
X27538482Y-85513431D01*
X27580000Y-85090000D01*
X27579150Y-85029131D01*
X27525826Y-84607024D01*
X27391529Y-84203314D01*
X27181376Y-83833378D01*
X26903371Y-83511305D01*
X26568102Y-83249365D01*
X26188342Y-83057534D01*
X25778553Y-82943119D01*
X25354346Y-82910478D01*
X24931877Y-82960854D01*
X24527239Y-83092329D01*
X24155844Y-83299895D01*
X23831839Y-83575645D01*
X23567565Y-83909076D01*
X23555000Y-83933525D01*
X23555000Y-82408665D01*
X110325000Y-82408665D01*
X110325000Y-82691335D01*
X110380147Y-82968574D01*
X110488320Y-83229727D01*
X110645363Y-83464759D01*
X110845241Y-83664637D01*
X111080273Y-83821680D01*
X111341426Y-83929853D01*
X111618665Y-83985000D01*
X111901335Y-83985000D01*
X112178574Y-83929853D01*
X112439727Y-83821680D01*
X112674759Y-83664637D01*
X112874637Y-83464759D01*
X112978043Y-83310000D01*
X114660473Y-83310000D01*
X114669528Y-83339851D01*
X114751595Y-83493387D01*
X114862038Y-83627962D01*
X114996613Y-83738405D01*
X115150149Y-83820472D01*
X115316745Y-83871008D01*
X115489999Y-83888072D01*
X116140001Y-83888072D01*
X116313255Y-83871008D01*
X116479851Y-83820472D01*
X116633387Y-83738405D01*
X116767962Y-83627962D01*
X116840000Y-83540184D01*
X116912038Y-83627962D01*
X117046613Y-83738405D01*
X117200149Y-83820472D01*
X117366745Y-83871008D01*
X117539999Y-83888072D01*
X118190001Y-83888072D01*
X118363255Y-83871008D01*
X118529851Y-83820472D01*
X118683387Y-83738405D01*
X118817962Y-83627962D01*
X118928405Y-83493387D01*
X119010472Y-83339851D01*
X119019527Y-83310000D01*
X120699099Y-83310000D01*
X120721068Y-83351101D01*
X120900392Y-83569608D01*
X121118899Y-83748932D01*
X121368192Y-83882182D01*
X121638691Y-83964236D01*
X121849508Y-83985000D01*
X121990492Y-83985000D01*
X122201309Y-83964236D01*
X122245907Y-83950708D01*
X122626196Y-84330997D01*
X122649999Y-84360001D01*
X122765724Y-84454974D01*
X122897753Y-84525546D01*
X123041014Y-84569003D01*
X123152667Y-84580000D01*
X123152675Y-84580000D01*
X123190000Y-84583676D01*
X123227325Y-84580000D01*
X130692678Y-84580000D01*
X130730000Y-84583676D01*
X130767322Y-84580000D01*
X130767333Y-84580000D01*
X130878986Y-84569003D01*
X131022247Y-84525546D01*
X131154276Y-84454974D01*
X131270001Y-84360001D01*
X131293804Y-84330997D01*
X131676114Y-83948688D01*
X131858665Y-83985000D01*
X132141335Y-83985000D01*
X132418574Y-83929853D01*
X132679727Y-83821680D01*
X132914759Y-83664637D01*
X133114637Y-83464759D01*
X133271680Y-83229727D01*
X133379853Y-82968574D01*
X133435000Y-82691335D01*
X133435000Y-82408665D01*
X133379853Y-82131426D01*
X133271680Y-81870273D01*
X133114637Y-81635241D01*
X132914759Y-81435363D01*
X132679727Y-81278320D01*
X132418574Y-81170147D01*
X132141335Y-81115000D01*
X131858665Y-81115000D01*
X131581426Y-81170147D01*
X131320273Y-81278320D01*
X131279082Y-81305843D01*
X131229851Y-81279528D01*
X131063255Y-81228992D01*
X130890001Y-81211928D01*
X130301730Y-81211928D01*
X130175010Y-81085209D01*
X130175010Y-77839941D01*
X130661967Y-77352985D01*
X130827404Y-77403170D01*
X131147820Y-77434728D01*
X131468235Y-77403170D01*
X131776338Y-77309708D01*
X132060286Y-77157934D01*
X132309171Y-76953681D01*
X132513424Y-76704797D01*
X132665198Y-76420849D01*
X132758660Y-76112746D01*
X132782310Y-75872622D01*
X132782310Y-74962739D01*
X132758660Y-74722614D01*
X132665198Y-74414511D01*
X132513424Y-74130563D01*
X132309171Y-73881679D01*
X132060287Y-73677426D01*
X131776339Y-73525652D01*
X131468236Y-73432190D01*
X131147820Y-73400632D01*
X130827405Y-73432190D01*
X130519302Y-73525652D01*
X130235354Y-73677426D01*
X129986470Y-73881679D01*
X129879572Y-74011935D01*
X129673776Y-73797468D01*
X129410297Y-73613443D01*
X129115979Y-73484357D01*
X128988174Y-73453411D01*
X128734820Y-73572765D01*
X128734820Y-75290680D01*
X128754820Y-75290680D01*
X128754820Y-75544680D01*
X128734820Y-75544680D01*
X128734820Y-77185457D01*
X128709464Y-77232894D01*
X128666007Y-77376155D01*
X128655010Y-77487808D01*
X128655010Y-77487818D01*
X128651334Y-77525140D01*
X128655010Y-77562463D01*
X128655011Y-81360739D01*
X128642000Y-81373750D01*
X128642000Y-82423000D01*
X128662000Y-82423000D01*
X128662000Y-82677000D01*
X128642000Y-82677000D01*
X128642000Y-82697000D01*
X128429495Y-82697000D01*
X128440217Y-82479488D01*
X128398787Y-82199870D01*
X128388000Y-82169706D01*
X128388000Y-81373750D01*
X128229250Y-81215000D01*
X127940000Y-81211928D01*
X127815518Y-81224188D01*
X127695820Y-81260498D01*
X127664848Y-81277053D01*
X127486004Y-81192429D01*
X127211816Y-81123700D01*
X126929488Y-81109783D01*
X126649870Y-81151213D01*
X126383708Y-81246397D01*
X126258486Y-81313329D01*
X126186903Y-81557298D01*
X127000000Y-82370395D01*
X127014143Y-82356253D01*
X127193748Y-82535858D01*
X127179605Y-82550000D01*
X127193748Y-82564143D01*
X127014143Y-82743748D01*
X127000000Y-82729605D01*
X126985858Y-82743748D01*
X126806253Y-82564143D01*
X126820395Y-82550000D01*
X126007298Y-81736903D01*
X125763329Y-81808486D01*
X125642429Y-82063996D01*
X125573700Y-82338184D01*
X125559783Y-82620512D01*
X125601213Y-82900130D01*
X125658385Y-83060000D01*
X123504801Y-83060000D01*
X123320708Y-82875907D01*
X123334236Y-82831309D01*
X123361943Y-82550000D01*
X123334236Y-82268691D01*
X123252182Y-81998192D01*
X123118932Y-81748899D01*
X122939608Y-81530392D01*
X122721101Y-81351068D01*
X122471808Y-81217818D01*
X122201309Y-81135764D01*
X121990492Y-81115000D01*
X121849508Y-81115000D01*
X121638691Y-81135764D01*
X121368192Y-81217818D01*
X121118899Y-81351068D01*
X120900392Y-81530392D01*
X120721068Y-81748899D01*
X120699099Y-81790000D01*
X119019527Y-81790000D01*
X119010472Y-81760149D01*
X118928405Y-81606613D01*
X118817962Y-81472038D01*
X118683387Y-81361595D01*
X118529851Y-81279528D01*
X118363255Y-81228992D01*
X118190001Y-81211928D01*
X117539999Y-81211928D01*
X117366745Y-81228992D01*
X117200149Y-81279528D01*
X117046613Y-81361595D01*
X116912038Y-81472038D01*
X116840000Y-81559816D01*
X116767962Y-81472038D01*
X116633387Y-81361595D01*
X116479851Y-81279528D01*
X116313255Y-81228992D01*
X116140001Y-81211928D01*
X115489999Y-81211928D01*
X115316745Y-81228992D01*
X115150149Y-81279528D01*
X114996613Y-81361595D01*
X114862038Y-81472038D01*
X114751595Y-81606613D01*
X114669528Y-81760149D01*
X114660473Y-81790000D01*
X112978043Y-81790000D01*
X112874637Y-81635241D01*
X112674759Y-81435363D01*
X112439727Y-81278320D01*
X112178574Y-81170147D01*
X111901335Y-81115000D01*
X111618665Y-81115000D01*
X111341426Y-81170147D01*
X111080273Y-81278320D01*
X110845241Y-81435363D01*
X110645363Y-81635241D01*
X110488320Y-81870273D01*
X110380147Y-82131426D01*
X110325000Y-82408665D01*
X23555000Y-82408665D01*
X23555000Y-79908061D01*
X68815000Y-79908061D01*
X68815000Y-80111939D01*
X68854774Y-80311898D01*
X68932795Y-80500256D01*
X69046063Y-80669774D01*
X69190226Y-80813937D01*
X69359744Y-80927205D01*
X69548102Y-81005226D01*
X69748061Y-81045000D01*
X69951939Y-81045000D01*
X70151898Y-81005226D01*
X70340256Y-80927205D01*
X70509774Y-80813937D01*
X70653937Y-80669774D01*
X70767205Y-80500256D01*
X70845226Y-80311898D01*
X70885000Y-80111939D01*
X70885000Y-79908061D01*
X71355000Y-79908061D01*
X71355000Y-80111939D01*
X71394774Y-80311898D01*
X71472795Y-80500256D01*
X71586063Y-80669774D01*
X71730226Y-80813937D01*
X71899744Y-80927205D01*
X72088102Y-81005226D01*
X72288061Y-81045000D01*
X72491939Y-81045000D01*
X72691898Y-81005226D01*
X72880256Y-80927205D01*
X73049774Y-80813937D01*
X73193937Y-80669774D01*
X73307205Y-80500256D01*
X73385226Y-80311898D01*
X73425000Y-80111939D01*
X73425000Y-79908061D01*
X73385226Y-79708102D01*
X73307205Y-79519744D01*
X73193937Y-79350226D01*
X73049774Y-79206063D01*
X72880256Y-79092795D01*
X72691898Y-79014774D01*
X72491939Y-78975000D01*
X72288061Y-78975000D01*
X72088102Y-79014774D01*
X71899744Y-79092795D01*
X71730226Y-79206063D01*
X71586063Y-79350226D01*
X71472795Y-79519744D01*
X71394774Y-79708102D01*
X71355000Y-79908061D01*
X70885000Y-79908061D01*
X70845226Y-79708102D01*
X70767205Y-79519744D01*
X70653937Y-79350226D01*
X70509774Y-79206063D01*
X70340256Y-79092795D01*
X70151898Y-79014774D01*
X69951939Y-78975000D01*
X69748061Y-78975000D01*
X69548102Y-79014774D01*
X69359744Y-79092795D01*
X69190226Y-79206063D01*
X69046063Y-79350226D01*
X68932795Y-79519744D01*
X68854774Y-79708102D01*
X68815000Y-79908061D01*
X23555000Y-79908061D01*
X23555000Y-37391257D01*
X46596305Y-37391257D01*
X46599982Y-37428590D01*
X46599981Y-75265476D01*
X46596305Y-75302799D01*
X46599981Y-75340121D01*
X46599981Y-75340131D01*
X46610978Y-75451784D01*
X46654435Y-75595045D01*
X46725007Y-75727074D01*
X46819980Y-75842800D01*
X46848983Y-75866602D01*
X48593403Y-77611026D01*
X48617197Y-77640019D01*
X48646190Y-77663813D01*
X48646194Y-77663817D01*
X48658755Y-77674125D01*
X48732922Y-77734992D01*
X48864951Y-77805564D01*
X49008212Y-77849021D01*
X49119865Y-77860018D01*
X49119874Y-77860018D01*
X49157197Y-77863694D01*
X49194520Y-77860018D01*
X56372660Y-77860018D01*
X56409982Y-77863694D01*
X56447304Y-77860018D01*
X56447315Y-77860018D01*
X56558968Y-77849021D01*
X56702229Y-77805564D01*
X56834258Y-77734992D01*
X56949983Y-77640019D01*
X56973786Y-77611015D01*
X58700484Y-75884318D01*
X58694774Y-75898102D01*
X58655000Y-76098061D01*
X58655000Y-76301939D01*
X58694774Y-76501898D01*
X58772795Y-76690256D01*
X58886063Y-76859774D01*
X59030226Y-77003937D01*
X59199744Y-77117205D01*
X59388102Y-77195226D01*
X59588061Y-77235000D01*
X59650199Y-77235000D01*
X60396201Y-77981003D01*
X60419999Y-78010001D01*
X60535724Y-78104974D01*
X60667753Y-78175546D01*
X60811014Y-78219003D01*
X60922667Y-78230000D01*
X60922676Y-78230000D01*
X60959999Y-78233676D01*
X60997322Y-78230000D01*
X115532678Y-78230000D01*
X115570000Y-78233676D01*
X115607322Y-78230000D01*
X115607333Y-78230000D01*
X115718986Y-78219003D01*
X115862247Y-78175546D01*
X115994276Y-78104974D01*
X116110001Y-78010001D01*
X116133804Y-77980997D01*
X116418817Y-77695984D01*
X116447821Y-77672181D01*
X116542794Y-77556456D01*
X116613366Y-77424427D01*
X116656823Y-77281166D01*
X116660551Y-77243314D01*
X116820286Y-77157934D01*
X117069171Y-76953681D01*
X117177820Y-76821291D01*
X117286469Y-76953681D01*
X117535353Y-77157934D01*
X117819301Y-77309708D01*
X118127404Y-77403170D01*
X118447820Y-77434728D01*
X118768235Y-77403170D01*
X119076338Y-77309708D01*
X119360286Y-77157934D01*
X119609171Y-76953681D01*
X119717820Y-76821291D01*
X119826469Y-76953681D01*
X120075353Y-77157934D01*
X120359301Y-77309708D01*
X120667404Y-77403170D01*
X120987820Y-77434728D01*
X121308235Y-77403170D01*
X121616338Y-77309708D01*
X121900286Y-77157934D01*
X122149171Y-76953681D01*
X122257820Y-76821291D01*
X122366469Y-76953681D01*
X122615353Y-77157934D01*
X122899301Y-77309708D01*
X123207404Y-77403170D01*
X123527820Y-77434728D01*
X123848235Y-77403170D01*
X124156338Y-77309708D01*
X124440286Y-77157934D01*
X124689171Y-76953681D01*
X124797820Y-76821291D01*
X124906469Y-76953681D01*
X125155353Y-77157934D01*
X125439301Y-77309708D01*
X125747404Y-77403170D01*
X126067820Y-77434728D01*
X126388235Y-77403170D01*
X126696338Y-77309708D01*
X126980286Y-77157934D01*
X127229171Y-76953681D01*
X127336069Y-76823425D01*
X127541864Y-77037892D01*
X127805343Y-77221917D01*
X128099661Y-77351003D01*
X128227466Y-77381949D01*
X128480820Y-77262595D01*
X128480820Y-75544680D01*
X128460820Y-75544680D01*
X128460820Y-75290680D01*
X128480820Y-75290680D01*
X128480820Y-73572765D01*
X128227466Y-73453411D01*
X128099661Y-73484357D01*
X127805343Y-73613443D01*
X127541864Y-73797468D01*
X127336069Y-74011935D01*
X127229171Y-73881679D01*
X126980287Y-73677426D01*
X126696339Y-73525652D01*
X126388236Y-73432190D01*
X126067820Y-73400632D01*
X125747405Y-73432190D01*
X125439302Y-73525652D01*
X125155354Y-73677426D01*
X124906470Y-73881679D01*
X124797820Y-74014069D01*
X124689171Y-73881679D01*
X124440287Y-73677426D01*
X124156339Y-73525652D01*
X123848236Y-73432190D01*
X123527820Y-73400632D01*
X123207405Y-73432190D01*
X122899302Y-73525652D01*
X122615354Y-73677426D01*
X122366470Y-73881679D01*
X122257820Y-74014069D01*
X122149171Y-73881679D01*
X121900287Y-73677426D01*
X121616339Y-73525652D01*
X121308236Y-73432190D01*
X120987820Y-73400632D01*
X120667405Y-73432190D01*
X120359302Y-73525652D01*
X120075354Y-73677426D01*
X119826470Y-73881679D01*
X119717820Y-74014069D01*
X119609171Y-73881679D01*
X119360287Y-73677426D01*
X119076339Y-73525652D01*
X118768236Y-73432190D01*
X118447820Y-73400632D01*
X118127405Y-73432190D01*
X117961967Y-73482375D01*
X114292592Y-69813000D01*
X115394146Y-69813000D01*
X115562067Y-69796461D01*
X115777523Y-69731103D01*
X115976089Y-69624968D01*
X116150133Y-69482133D01*
X116292968Y-69308089D01*
X116399103Y-69109523D01*
X116464461Y-68894067D01*
X116486530Y-68670000D01*
X116473724Y-68539973D01*
X128087687Y-68539973D01*
X128087687Y-68777633D01*
X128134052Y-69010726D01*
X128225000Y-69230295D01*
X128357037Y-69427902D01*
X128525088Y-69595953D01*
X128722695Y-69727990D01*
X128942264Y-69818938D01*
X129175357Y-69865303D01*
X129413017Y-69865303D01*
X129646110Y-69818938D01*
X129865679Y-69727990D01*
X130063286Y-69595953D01*
X130231337Y-69427902D01*
X130363374Y-69230295D01*
X130454322Y-69010726D01*
X130500687Y-68777633D01*
X130500687Y-68539973D01*
X130627687Y-68539973D01*
X130627687Y-68777633D01*
X130674052Y-69010726D01*
X130765000Y-69230295D01*
X130897037Y-69427902D01*
X131065088Y-69595953D01*
X131262695Y-69727990D01*
X131482264Y-69818938D01*
X131715357Y-69865303D01*
X131953017Y-69865303D01*
X132186110Y-69818938D01*
X132405679Y-69727990D01*
X132603286Y-69595953D01*
X132771337Y-69427902D01*
X132903374Y-69230295D01*
X132994322Y-69010726D01*
X133040687Y-68777633D01*
X133040687Y-68539973D01*
X132994322Y-68306880D01*
X132903374Y-68087311D01*
X132771337Y-67889704D01*
X132603286Y-67721653D01*
X132405679Y-67589616D01*
X132186110Y-67498668D01*
X131953017Y-67452303D01*
X131715357Y-67452303D01*
X131482264Y-67498668D01*
X131262695Y-67589616D01*
X131065088Y-67721653D01*
X130897037Y-67889704D01*
X130765000Y-68087311D01*
X130674052Y-68306880D01*
X130627687Y-68539973D01*
X130500687Y-68539973D01*
X130454322Y-68306880D01*
X130363374Y-68087311D01*
X130231337Y-67889704D01*
X130063286Y-67721653D01*
X129865679Y-67589616D01*
X129646110Y-67498668D01*
X129413017Y-67452303D01*
X129175357Y-67452303D01*
X128942264Y-67498668D01*
X128722695Y-67589616D01*
X128525088Y-67721653D01*
X128357037Y-67889704D01*
X128225000Y-68087311D01*
X128134052Y-68306880D01*
X128087687Y-68539973D01*
X116473724Y-68539973D01*
X116464461Y-68445933D01*
X116399103Y-68230477D01*
X116292968Y-68031911D01*
X116150133Y-67857867D01*
X115976089Y-67715032D01*
X115777523Y-67608897D01*
X115562067Y-67543539D01*
X115394146Y-67527000D01*
X114265854Y-67527000D01*
X114097933Y-67543539D01*
X113882477Y-67608897D01*
X113683911Y-67715032D01*
X113509867Y-67857867D01*
X113367032Y-68031911D01*
X113260897Y-68230477D01*
X113195539Y-68445933D01*
X113173470Y-68670000D01*
X113176079Y-68696487D01*
X110599592Y-66120000D01*
X113173470Y-66120000D01*
X113195539Y-66344067D01*
X113260897Y-66559523D01*
X113367032Y-66758089D01*
X113509867Y-66932133D01*
X113683911Y-67074968D01*
X113882477Y-67181103D01*
X114097933Y-67246461D01*
X114265854Y-67263000D01*
X115394146Y-67263000D01*
X115562067Y-67246461D01*
X115777523Y-67181103D01*
X115976089Y-67074968D01*
X116150133Y-66932133D01*
X116292968Y-66758089D01*
X116399103Y-66559523D01*
X116464461Y-66344067D01*
X116486530Y-66120000D01*
X116474709Y-65999973D01*
X128087687Y-65999973D01*
X128087687Y-66237633D01*
X128134052Y-66470726D01*
X128225000Y-66690295D01*
X128357037Y-66887902D01*
X128525088Y-67055953D01*
X128722695Y-67187990D01*
X128942264Y-67278938D01*
X129175357Y-67325303D01*
X129413017Y-67325303D01*
X129646110Y-67278938D01*
X129865679Y-67187990D01*
X130063286Y-67055953D01*
X130231337Y-66887902D01*
X130363374Y-66690295D01*
X130454322Y-66470726D01*
X130500687Y-66237633D01*
X130500687Y-65999973D01*
X130627687Y-65999973D01*
X130627687Y-66237633D01*
X130674052Y-66470726D01*
X130765000Y-66690295D01*
X130897037Y-66887902D01*
X131065088Y-67055953D01*
X131262695Y-67187990D01*
X131482264Y-67278938D01*
X131715357Y-67325303D01*
X131953017Y-67325303D01*
X132186110Y-67278938D01*
X132405679Y-67187990D01*
X132603286Y-67055953D01*
X132771337Y-66887902D01*
X132903374Y-66690295D01*
X132994322Y-66470726D01*
X133040687Y-66237633D01*
X133040687Y-65999973D01*
X132994322Y-65766880D01*
X132903374Y-65547311D01*
X132771337Y-65349704D01*
X132603286Y-65181653D01*
X132405679Y-65049616D01*
X132186110Y-64958668D01*
X131953017Y-64912303D01*
X131715357Y-64912303D01*
X131482264Y-64958668D01*
X131262695Y-65049616D01*
X131065088Y-65181653D01*
X130897037Y-65349704D01*
X130765000Y-65547311D01*
X130674052Y-65766880D01*
X130627687Y-65999973D01*
X130500687Y-65999973D01*
X130454322Y-65766880D01*
X130363374Y-65547311D01*
X130231337Y-65349704D01*
X130063286Y-65181653D01*
X129865679Y-65049616D01*
X129646110Y-64958668D01*
X129413017Y-64912303D01*
X129175357Y-64912303D01*
X128942264Y-64958668D01*
X128722695Y-65049616D01*
X128525088Y-65181653D01*
X128357037Y-65349704D01*
X128225000Y-65547311D01*
X128134052Y-65766880D01*
X128087687Y-65999973D01*
X116474709Y-65999973D01*
X116464461Y-65895933D01*
X116399103Y-65680477D01*
X116292968Y-65481911D01*
X116150133Y-65307867D01*
X115976089Y-65165032D01*
X115777523Y-65058897D01*
X115562067Y-64993539D01*
X115394146Y-64977000D01*
X114265854Y-64977000D01*
X114097933Y-64993539D01*
X113882477Y-65058897D01*
X113683911Y-65165032D01*
X113509867Y-65307867D01*
X113367032Y-65481911D01*
X113260897Y-65680477D01*
X113195539Y-65895933D01*
X113173470Y-66120000D01*
X110599592Y-66120000D01*
X107877653Y-63398061D01*
X109455000Y-63398061D01*
X109455000Y-63601939D01*
X109494774Y-63801898D01*
X109572795Y-63990256D01*
X109686063Y-64159774D01*
X109830226Y-64303937D01*
X109999744Y-64417205D01*
X110188102Y-64495226D01*
X110388061Y-64535000D01*
X110591939Y-64535000D01*
X110791898Y-64495226D01*
X110980256Y-64417205D01*
X111149774Y-64303937D01*
X111293937Y-64159774D01*
X111407205Y-63990256D01*
X111485226Y-63801898D01*
X111525000Y-63601939D01*
X111525000Y-63539801D01*
X114536068Y-60528734D01*
X114542216Y-60540236D01*
X114746469Y-60789121D01*
X114995353Y-60993374D01*
X115279301Y-61145148D01*
X115587404Y-61238610D01*
X115907820Y-61270168D01*
X116228235Y-61238610D01*
X116536338Y-61145148D01*
X116820286Y-60993374D01*
X117069171Y-60789121D01*
X117177820Y-60656731D01*
X117286469Y-60789121D01*
X117535353Y-60993374D01*
X117819301Y-61145148D01*
X118127404Y-61238610D01*
X118447820Y-61270168D01*
X118768235Y-61238610D01*
X119076338Y-61145148D01*
X119360286Y-60993374D01*
X119609171Y-60789121D01*
X119717820Y-60656731D01*
X119826469Y-60789121D01*
X120075353Y-60993374D01*
X120359301Y-61145148D01*
X120667404Y-61238610D01*
X120987820Y-61270168D01*
X121308235Y-61238610D01*
X121616338Y-61145148D01*
X121900286Y-60993374D01*
X122149171Y-60789121D01*
X122257820Y-60656731D01*
X122366469Y-60789121D01*
X122615353Y-60993374D01*
X122899301Y-61145148D01*
X123207404Y-61238610D01*
X123527820Y-61270168D01*
X123848235Y-61238610D01*
X124156338Y-61145148D01*
X124440286Y-60993374D01*
X124689171Y-60789121D01*
X124797820Y-60656731D01*
X124906469Y-60789121D01*
X125155353Y-60993374D01*
X125439301Y-61145148D01*
X125747404Y-61238610D01*
X126067820Y-61270168D01*
X126388235Y-61238610D01*
X126696338Y-61145148D01*
X126980286Y-60993374D01*
X127229171Y-60789121D01*
X127337820Y-60656731D01*
X127446469Y-60789121D01*
X127695353Y-60993374D01*
X127979301Y-61145148D01*
X128287404Y-61238610D01*
X128607820Y-61270168D01*
X128928235Y-61238610D01*
X129236338Y-61145148D01*
X129520286Y-60993374D01*
X129769171Y-60789121D01*
X129877820Y-60656731D01*
X129986469Y-60789121D01*
X130235353Y-60993374D01*
X130519301Y-61145148D01*
X130827404Y-61238610D01*
X131147820Y-61270168D01*
X131468235Y-61238610D01*
X131776338Y-61145148D01*
X132060286Y-60993374D01*
X132309171Y-60789121D01*
X132513424Y-60540237D01*
X132665198Y-60256289D01*
X132758660Y-59948186D01*
X132782310Y-59708062D01*
X132782310Y-58798179D01*
X132758660Y-58558054D01*
X132665198Y-58249951D01*
X132513424Y-57966003D01*
X132309171Y-57717119D01*
X132060287Y-57512866D01*
X131776339Y-57361092D01*
X131468236Y-57267630D01*
X131147820Y-57236072D01*
X130827405Y-57267630D01*
X130519302Y-57361092D01*
X130235354Y-57512866D01*
X129986470Y-57717119D01*
X129877820Y-57849509D01*
X129769171Y-57717119D01*
X129520287Y-57512866D01*
X129236339Y-57361092D01*
X128928236Y-57267630D01*
X128607820Y-57236072D01*
X128287405Y-57267630D01*
X127979302Y-57361092D01*
X127695354Y-57512866D01*
X127446470Y-57717119D01*
X127337820Y-57849509D01*
X127229171Y-57717119D01*
X126980287Y-57512866D01*
X126696339Y-57361092D01*
X126388236Y-57267630D01*
X126067820Y-57236072D01*
X125747405Y-57267630D01*
X125439302Y-57361092D01*
X125155354Y-57512866D01*
X124906470Y-57717119D01*
X124797820Y-57849509D01*
X124689171Y-57717119D01*
X124440287Y-57512866D01*
X124156339Y-57361092D01*
X123848236Y-57267630D01*
X123527820Y-57236072D01*
X123207405Y-57267630D01*
X122899302Y-57361092D01*
X122615354Y-57512866D01*
X122366470Y-57717119D01*
X122257820Y-57849509D01*
X122149171Y-57717119D01*
X121900287Y-57512866D01*
X121616339Y-57361092D01*
X121308236Y-57267630D01*
X120987820Y-57236072D01*
X120667405Y-57267630D01*
X120359302Y-57361092D01*
X120075354Y-57512866D01*
X119826470Y-57717119D01*
X119717820Y-57849509D01*
X119609171Y-57717119D01*
X119360287Y-57512866D01*
X119076339Y-57361092D01*
X118768236Y-57267630D01*
X118447820Y-57236072D01*
X118127405Y-57267630D01*
X117819302Y-57361092D01*
X117535354Y-57512866D01*
X117286470Y-57717119D01*
X117177820Y-57849509D01*
X117069171Y-57717119D01*
X116820287Y-57512866D01*
X116536339Y-57361092D01*
X116228236Y-57267630D01*
X115907820Y-57236072D01*
X115587405Y-57267630D01*
X115279302Y-57361092D01*
X114995354Y-57512866D01*
X114746470Y-57717119D01*
X114542216Y-57966003D01*
X114390442Y-58249951D01*
X114296980Y-58558054D01*
X114286063Y-58668896D01*
X114234054Y-58696696D01*
X114118329Y-58791669D01*
X114094531Y-58820667D01*
X110450199Y-62465000D01*
X110388061Y-62465000D01*
X110188102Y-62504774D01*
X109999744Y-62582795D01*
X109830226Y-62696063D01*
X109686063Y-62840226D01*
X109572795Y-63009744D01*
X109494774Y-63198102D01*
X109455000Y-63398061D01*
X107877653Y-63398061D01*
X106198594Y-61719003D01*
X106174791Y-61689999D01*
X106059066Y-61595026D01*
X105927037Y-61524454D01*
X105783776Y-61480997D01*
X105672123Y-61470000D01*
X105672112Y-61470000D01*
X105634790Y-61466324D01*
X105597468Y-61470000D01*
X103573711Y-61470000D01*
X103529774Y-61426063D01*
X103499181Y-61405621D01*
X112738431Y-52166372D01*
X112892408Y-52197000D01*
X113167592Y-52197000D01*
X113437490Y-52143314D01*
X113691727Y-52038005D01*
X113920535Y-51885120D01*
X114115120Y-51690535D01*
X114268005Y-51461727D01*
X114300000Y-51384485D01*
X114331995Y-51461727D01*
X114484880Y-51690535D01*
X114679465Y-51885120D01*
X114908273Y-52038005D01*
X115162510Y-52143314D01*
X115432408Y-52197000D01*
X115707592Y-52197000D01*
X115977490Y-52143314D01*
X116231727Y-52038005D01*
X116460535Y-51885120D01*
X116655120Y-51690535D01*
X116808005Y-51461727D01*
X116913314Y-51207490D01*
X116967000Y-50937592D01*
X116967000Y-50662408D01*
X116913314Y-50392510D01*
X116808005Y-50138273D01*
X116655120Y-49909465D01*
X116460535Y-49714880D01*
X116231727Y-49561995D01*
X115977490Y-49456686D01*
X115707592Y-49403000D01*
X115432408Y-49403000D01*
X115162510Y-49456686D01*
X114908273Y-49561995D01*
X114679465Y-49714880D01*
X114484880Y-49909465D01*
X114331995Y-50138273D01*
X114300000Y-50215515D01*
X114268005Y-50138273D01*
X114115120Y-49909465D01*
X113920535Y-49714880D01*
X113691727Y-49561995D01*
X113437490Y-49456686D01*
X113167592Y-49403000D01*
X112892408Y-49403000D01*
X112622510Y-49456686D01*
X112368273Y-49561995D01*
X112139465Y-49714880D01*
X111944880Y-49909465D01*
X111791995Y-50138273D01*
X111760000Y-50215515D01*
X111728005Y-50138273D01*
X111575120Y-49909465D01*
X111380535Y-49714880D01*
X111151727Y-49561995D01*
X110897490Y-49456686D01*
X110627592Y-49403000D01*
X110352408Y-49403000D01*
X110082510Y-49456686D01*
X109828273Y-49561995D01*
X109599465Y-49714880D01*
X109404880Y-49909465D01*
X109251995Y-50138273D01*
X109220000Y-50215515D01*
X109188005Y-50138273D01*
X109035120Y-49909465D01*
X108840535Y-49714880D01*
X108611727Y-49561995D01*
X108357490Y-49456686D01*
X108087592Y-49403000D01*
X107812408Y-49403000D01*
X107658429Y-49433628D01*
X107426803Y-49202002D01*
X107403000Y-49172998D01*
X107287275Y-49078025D01*
X107155246Y-49007453D01*
X107011985Y-48963996D01*
X106900332Y-48952999D01*
X106900321Y-48952999D01*
X106862999Y-48949323D01*
X106825677Y-48952999D01*
X104925561Y-48952999D01*
X104888238Y-48949323D01*
X104850915Y-48952999D01*
X104850906Y-48952999D01*
X104739253Y-48963996D01*
X104595992Y-49007453D01*
X104463962Y-49078025D01*
X104380322Y-49146667D01*
X104348238Y-49172998D01*
X104324439Y-49201997D01*
X103811997Y-49714440D01*
X103783490Y-49737835D01*
X103760535Y-49714880D01*
X103531727Y-49561995D01*
X103277490Y-49456686D01*
X103007592Y-49403000D01*
X102732408Y-49403000D01*
X102462510Y-49456686D01*
X102208273Y-49561995D01*
X101979465Y-49714880D01*
X101784880Y-49909465D01*
X101631995Y-50138273D01*
X101526686Y-50392510D01*
X101473000Y-50662408D01*
X101473000Y-50937592D01*
X101503628Y-51091570D01*
X86570198Y-66025001D01*
X81228072Y-66025001D01*
X81228072Y-65300000D01*
X81215812Y-65175518D01*
X81179502Y-65055820D01*
X81120537Y-64945506D01*
X81041185Y-64848815D01*
X80944494Y-64769463D01*
X80834180Y-64710498D01*
X80714482Y-64674188D01*
X80668456Y-64669655D01*
X80644974Y-64625723D01*
X80573799Y-64538997D01*
X80550001Y-64509999D01*
X80521003Y-64486201D01*
X78162863Y-62128061D01*
X81515000Y-62128061D01*
X81515000Y-62331939D01*
X81554774Y-62531898D01*
X81632795Y-62720256D01*
X81746063Y-62889774D01*
X81890226Y-63033937D01*
X82059744Y-63147205D01*
X82248102Y-63225226D01*
X82448061Y-63265000D01*
X82651939Y-63265000D01*
X82851898Y-63225226D01*
X83040256Y-63147205D01*
X83209774Y-63033937D01*
X83253711Y-62990000D01*
X88196289Y-62990000D01*
X88240226Y-63033937D01*
X88409744Y-63147205D01*
X88598102Y-63225226D01*
X88798061Y-63265000D01*
X89001939Y-63265000D01*
X89201898Y-63225226D01*
X89390256Y-63147205D01*
X89559774Y-63033937D01*
X89703937Y-62889774D01*
X89817205Y-62720256D01*
X89895226Y-62531898D01*
X89935000Y-62331939D01*
X89935000Y-62128061D01*
X89895226Y-61928102D01*
X89817205Y-61739744D01*
X89703937Y-61570226D01*
X89559774Y-61426063D01*
X89390256Y-61312795D01*
X89201898Y-61234774D01*
X89001939Y-61195000D01*
X88798061Y-61195000D01*
X88598102Y-61234774D01*
X88409744Y-61312795D01*
X88240226Y-61426063D01*
X88196289Y-61470000D01*
X83253711Y-61470000D01*
X83209774Y-61426063D01*
X83040256Y-61312795D01*
X82851898Y-61234774D01*
X82651939Y-61195000D01*
X82448061Y-61195000D01*
X82248102Y-61234774D01*
X82059744Y-61312795D01*
X81890226Y-61426063D01*
X81746063Y-61570226D01*
X81632795Y-61739744D01*
X81554774Y-61928102D01*
X81515000Y-62128061D01*
X78162863Y-62128061D01*
X75581804Y-59547003D01*
X75558001Y-59517999D01*
X75442276Y-59423026D01*
X75310247Y-59352454D01*
X75258072Y-59336627D01*
X75258072Y-59095500D01*
X75245812Y-58971018D01*
X75209502Y-58851320D01*
X75150537Y-58741006D01*
X75071185Y-58644315D01*
X74974494Y-58564963D01*
X74864180Y-58505998D01*
X74791620Y-58483987D01*
X75030205Y-58245403D01*
X75092342Y-58245403D01*
X75292301Y-58205629D01*
X75480659Y-58127608D01*
X75650177Y-58014340D01*
X75794340Y-57870177D01*
X75907608Y-57700659D01*
X75985629Y-57512301D01*
X76025403Y-57312342D01*
X76025403Y-57108464D01*
X75985629Y-56908505D01*
X75907608Y-56720147D01*
X75794340Y-56550629D01*
X75747006Y-56503295D01*
X95930302Y-36320000D01*
X101697659Y-36320000D01*
X101784880Y-36450535D01*
X101979465Y-36645120D01*
X102208273Y-36798005D01*
X102462510Y-36903314D01*
X102732408Y-36957000D01*
X103007592Y-36957000D01*
X103277490Y-36903314D01*
X103531727Y-36798005D01*
X103760535Y-36645120D01*
X103955120Y-36450535D01*
X104108005Y-36221727D01*
X104140000Y-36144485D01*
X104171995Y-36221727D01*
X104324880Y-36450535D01*
X104519465Y-36645120D01*
X104748273Y-36798005D01*
X105002510Y-36903314D01*
X105272408Y-36957000D01*
X105547592Y-36957000D01*
X105817490Y-36903314D01*
X106071727Y-36798005D01*
X106300535Y-36645120D01*
X106495120Y-36450535D01*
X106648005Y-36221727D01*
X106680000Y-36144485D01*
X106711995Y-36221727D01*
X106864880Y-36450535D01*
X107059465Y-36645120D01*
X107288273Y-36798005D01*
X107542510Y-36903314D01*
X107812408Y-36957000D01*
X108087592Y-36957000D01*
X108357490Y-36903314D01*
X108611727Y-36798005D01*
X108840535Y-36645120D01*
X109035120Y-36450535D01*
X109188005Y-36221727D01*
X109220000Y-36144485D01*
X109251995Y-36221727D01*
X109404880Y-36450535D01*
X109599465Y-36645120D01*
X109828273Y-36798005D01*
X110082510Y-36903314D01*
X110352408Y-36957000D01*
X110627592Y-36957000D01*
X110897490Y-36903314D01*
X111151727Y-36798005D01*
X111380535Y-36645120D01*
X111575120Y-36450535D01*
X111728005Y-36221727D01*
X111760000Y-36144485D01*
X111791995Y-36221727D01*
X111944880Y-36450535D01*
X112139465Y-36645120D01*
X112368273Y-36798005D01*
X112622510Y-36903314D01*
X112892408Y-36957000D01*
X113167592Y-36957000D01*
X113437490Y-36903314D01*
X113691727Y-36798005D01*
X113920535Y-36645120D01*
X114115120Y-36450535D01*
X114268005Y-36221727D01*
X114300000Y-36144485D01*
X114331995Y-36221727D01*
X114484880Y-36450535D01*
X114679465Y-36645120D01*
X114908273Y-36798005D01*
X115162510Y-36903314D01*
X115432408Y-36957000D01*
X115707592Y-36957000D01*
X115977490Y-36903314D01*
X116231727Y-36798005D01*
X116460535Y-36645120D01*
X116655120Y-36450535D01*
X116808005Y-36221727D01*
X116913314Y-35967490D01*
X116967000Y-35697592D01*
X116967000Y-35422408D01*
X116913314Y-35152510D01*
X116808005Y-34898273D01*
X116655120Y-34669465D01*
X116460535Y-34474880D01*
X116231727Y-34321995D01*
X115977490Y-34216686D01*
X115707592Y-34163000D01*
X115432408Y-34163000D01*
X115278430Y-34193628D01*
X114413793Y-33328992D01*
X114389991Y-33299989D01*
X114274266Y-33205016D01*
X114142237Y-33134444D01*
X113998976Y-33090987D01*
X113887323Y-33079990D01*
X113887312Y-33079990D01*
X113849990Y-33076314D01*
X113812668Y-33079990D01*
X105175000Y-33079990D01*
X105175000Y-32918061D01*
X105141961Y-32751961D01*
X105308061Y-32785000D01*
X105511939Y-32785000D01*
X105711898Y-32745226D01*
X105900256Y-32667205D01*
X106069774Y-32553937D01*
X106213937Y-32409774D01*
X106327205Y-32240256D01*
X106405226Y-32051898D01*
X106445000Y-31851939D01*
X106445000Y-31648061D01*
X106405226Y-31448102D01*
X106327205Y-31259744D01*
X106213937Y-31090226D01*
X106069774Y-30946063D01*
X105900256Y-30832795D01*
X105711898Y-30754774D01*
X105511939Y-30715000D01*
X105308061Y-30715000D01*
X105108102Y-30754774D01*
X104919744Y-30832795D01*
X104750226Y-30946063D01*
X104706289Y-30990000D01*
X57853711Y-30990000D01*
X57809774Y-30946063D01*
X57640256Y-30832795D01*
X57451898Y-30754774D01*
X57251939Y-30715000D01*
X57048061Y-30715000D01*
X56848102Y-30754774D01*
X56659744Y-30832795D01*
X56490226Y-30946063D01*
X56346063Y-31090226D01*
X56232795Y-31259744D01*
X56154774Y-31448102D01*
X56115000Y-31648061D01*
X56115000Y-31851939D01*
X56154774Y-32051898D01*
X56232795Y-32240256D01*
X56245987Y-32260000D01*
X55313711Y-32260000D01*
X55269774Y-32216063D01*
X55100256Y-32102795D01*
X54911898Y-32024774D01*
X54711939Y-31985000D01*
X54508061Y-31985000D01*
X54308102Y-32024774D01*
X54119744Y-32102795D01*
X53950226Y-32216063D01*
X53806063Y-32360226D01*
X53692795Y-32529744D01*
X53614774Y-32718102D01*
X53575000Y-32918061D01*
X53575000Y-33121939D01*
X53603056Y-33262989D01*
X50765571Y-33262989D01*
X50728248Y-33259313D01*
X50690925Y-33262989D01*
X50690916Y-33262989D01*
X50579263Y-33273986D01*
X50436002Y-33317443D01*
X50303973Y-33388015D01*
X50188248Y-33482988D01*
X50164450Y-33511986D01*
X46848979Y-36827458D01*
X46819981Y-36851256D01*
X46796183Y-36880254D01*
X46796182Y-36880255D01*
X46725007Y-36966981D01*
X46654435Y-37099011D01*
X46627744Y-37187002D01*
X46620526Y-37210800D01*
X46610979Y-37242272D01*
X46596305Y-37391257D01*
X23555000Y-37391257D01*
X23555000Y-29087494D01*
X23601253Y-29171628D01*
X23874734Y-29497550D01*
X24206312Y-29764146D01*
X24583358Y-29961261D01*
X24991509Y-30081386D01*
X25415219Y-30119947D01*
X25838350Y-30075474D01*
X26244784Y-29949662D01*
X26619041Y-29747302D01*
X26946864Y-29476103D01*
X27215768Y-29146394D01*
X27415510Y-28770733D01*
X27538482Y-28363431D01*
X27580000Y-27940000D01*
X27579150Y-27879131D01*
X27525826Y-27457024D01*
X27391529Y-27053314D01*
X27181376Y-26683378D01*
X26903371Y-26361305D01*
X26568102Y-26099365D01*
X26559461Y-26095000D01*
X137284067Y-26095000D01*
X137185844Y-26149895D01*
X137185844Y-26149895D01*
G37*
X137185844Y-26149895D02*
X136861839Y-26425645D01*
X136597565Y-26759076D01*
X136403087Y-27137488D01*
X136285814Y-27546468D01*
X136250212Y-27970438D01*
X136297638Y-28393247D01*
X136426285Y-28798793D01*
X136631253Y-29171628D01*
X136904734Y-29497550D01*
X137236312Y-29764146D01*
X137613358Y-29961261D01*
X138021509Y-30081386D01*
X138445219Y-30119947D01*
X138868350Y-30075474D01*
X139274784Y-29949662D01*
X139649041Y-29747302D01*
X139976864Y-29476103D01*
X140245768Y-29146394D01*
X140275001Y-29091415D01*
X140275000Y-83945376D01*
X140211376Y-83833378D01*
X139933371Y-83511305D01*
X139598102Y-83249365D01*
X139218342Y-83057534D01*
X138808553Y-82943119D01*
X138384346Y-82910478D01*
X137961877Y-82960854D01*
X137557239Y-83092329D01*
X137185844Y-83299895D01*
X136861839Y-83575645D01*
X136597565Y-83909076D01*
X136403087Y-84287488D01*
X136285814Y-84696468D01*
X136250212Y-85120438D01*
X136297638Y-85543247D01*
X136426285Y-85948793D01*
X136631253Y-86321628D01*
X136904734Y-86647550D01*
X137236312Y-86914146D01*
X137276202Y-86935000D01*
X26549320Y-86935000D01*
X26619041Y-86897302D01*
X26946864Y-86626103D01*
X27215768Y-86296394D01*
X27415510Y-85920733D01*
X27538482Y-85513431D01*
X27580000Y-85090000D01*
X27579150Y-85029131D01*
X27525826Y-84607024D01*
X27391529Y-84203314D01*
X27181376Y-83833378D01*
X26903371Y-83511305D01*
X26568102Y-83249365D01*
X26188342Y-83057534D01*
X25778553Y-82943119D01*
X25354346Y-82910478D01*
X24931877Y-82960854D01*
X24527239Y-83092329D01*
X24155844Y-83299895D01*
X23831839Y-83575645D01*
X23567565Y-83909076D01*
X23555000Y-83933525D01*
X23555000Y-82408665D01*
X110325000Y-82408665D01*
X110325000Y-82691335D01*
X110380147Y-82968574D01*
X110488320Y-83229727D01*
X110645363Y-83464759D01*
X110845241Y-83664637D01*
X111080273Y-83821680D01*
X111341426Y-83929853D01*
X111618665Y-83985000D01*
X111901335Y-83985000D01*
X112178574Y-83929853D01*
X112439727Y-83821680D01*
X112674759Y-83664637D01*
X112874637Y-83464759D01*
X112978043Y-83310000D01*
X114660473Y-83310000D01*
X114669528Y-83339851D01*
X114751595Y-83493387D01*
X114862038Y-83627962D01*
X114996613Y-83738405D01*
X115150149Y-83820472D01*
X115316745Y-83871008D01*
X115489999Y-83888072D01*
X116140001Y-83888072D01*
X116313255Y-83871008D01*
X116479851Y-83820472D01*
X116633387Y-83738405D01*
X116767962Y-83627962D01*
X116840000Y-83540184D01*
X116912038Y-83627962D01*
X117046613Y-83738405D01*
X117200149Y-83820472D01*
X117366745Y-83871008D01*
X117539999Y-83888072D01*
X118190001Y-83888072D01*
X118363255Y-83871008D01*
X118529851Y-83820472D01*
X118683387Y-83738405D01*
X118817962Y-83627962D01*
X118928405Y-83493387D01*
X119010472Y-83339851D01*
X119019527Y-83310000D01*
X120699099Y-83310000D01*
X120721068Y-83351101D01*
X120900392Y-83569608D01*
X121118899Y-83748932D01*
X121368192Y-83882182D01*
X121638691Y-83964236D01*
X121849508Y-83985000D01*
X121990492Y-83985000D01*
X122201309Y-83964236D01*
X122245907Y-83950708D01*
X122626196Y-84330997D01*
X122649999Y-84360001D01*
X122765724Y-84454974D01*
X122897753Y-84525546D01*
X123041014Y-84569003D01*
X123152667Y-84580000D01*
X123152675Y-84580000D01*
X123190000Y-84583676D01*
X123227325Y-84580000D01*
X130692678Y-84580000D01*
X130730000Y-84583676D01*
X130767322Y-84580000D01*
X130767333Y-84580000D01*
X130878986Y-84569003D01*
X131022247Y-84525546D01*
X131154276Y-84454974D01*
X131270001Y-84360001D01*
X131293804Y-84330997D01*
X131676114Y-83948688D01*
X131858665Y-83985000D01*
X132141335Y-83985000D01*
X132418574Y-83929853D01*
X132679727Y-83821680D01*
X132914759Y-83664637D01*
X133114637Y-83464759D01*
X133271680Y-83229727D01*
X133379853Y-82968574D01*
X133435000Y-82691335D01*
X133435000Y-82408665D01*
X133379853Y-82131426D01*
X133271680Y-81870273D01*
X133114637Y-81635241D01*
X132914759Y-81435363D01*
X132679727Y-81278320D01*
X132418574Y-81170147D01*
X132141335Y-81115000D01*
X131858665Y-81115000D01*
X131581426Y-81170147D01*
X131320273Y-81278320D01*
X131279082Y-81305843D01*
X131229851Y-81279528D01*
X131063255Y-81228992D01*
X130890001Y-81211928D01*
X130301730Y-81211928D01*
X130175010Y-81085209D01*
X130175010Y-77839941D01*
X130661967Y-77352985D01*
X130827404Y-77403170D01*
X131147820Y-77434728D01*
X131468235Y-77403170D01*
X131776338Y-77309708D01*
X132060286Y-77157934D01*
X132309171Y-76953681D01*
X132513424Y-76704797D01*
X132665198Y-76420849D01*
X132758660Y-76112746D01*
X132782310Y-75872622D01*
X132782310Y-74962739D01*
X132758660Y-74722614D01*
X132665198Y-74414511D01*
X132513424Y-74130563D01*
X132309171Y-73881679D01*
X132060287Y-73677426D01*
X131776339Y-73525652D01*
X131468236Y-73432190D01*
X131147820Y-73400632D01*
X130827405Y-73432190D01*
X130519302Y-73525652D01*
X130235354Y-73677426D01*
X129986470Y-73881679D01*
X129879572Y-74011935D01*
X129673776Y-73797468D01*
X129410297Y-73613443D01*
X129115979Y-73484357D01*
X128988174Y-73453411D01*
X128734820Y-73572765D01*
X128734820Y-75290680D01*
X128754820Y-75290680D01*
X128754820Y-75544680D01*
X128734820Y-75544680D01*
X128734820Y-77185457D01*
X128709464Y-77232894D01*
X128666007Y-77376155D01*
X128655010Y-77487808D01*
X128655010Y-77487818D01*
X128651334Y-77525140D01*
X128655010Y-77562463D01*
X128655011Y-81360739D01*
X128642000Y-81373750D01*
X128642000Y-82423000D01*
X128662000Y-82423000D01*
X128662000Y-82677000D01*
X128642000Y-82677000D01*
X128642000Y-82697000D01*
X128429495Y-82697000D01*
X128440217Y-82479488D01*
X128398787Y-82199870D01*
X128388000Y-82169706D01*
X128388000Y-81373750D01*
X128229250Y-81215000D01*
X127940000Y-81211928D01*
X127815518Y-81224188D01*
X127695820Y-81260498D01*
X127664848Y-81277053D01*
X127486004Y-81192429D01*
X127211816Y-81123700D01*
X126929488Y-81109783D01*
X126649870Y-81151213D01*
X126383708Y-81246397D01*
X126258486Y-81313329D01*
X126186903Y-81557298D01*
X127000000Y-82370395D01*
X127014143Y-82356253D01*
X127193748Y-82535858D01*
X127179605Y-82550000D01*
X127193748Y-82564143D01*
X127014143Y-82743748D01*
X127000000Y-82729605D01*
X126985858Y-82743748D01*
X126806253Y-82564143D01*
X126820395Y-82550000D01*
X126007298Y-81736903D01*
X125763329Y-81808486D01*
X125642429Y-82063996D01*
X125573700Y-82338184D01*
X125559783Y-82620512D01*
X125601213Y-82900130D01*
X125658385Y-83060000D01*
X123504801Y-83060000D01*
X123320708Y-82875907D01*
X123334236Y-82831309D01*
X123361943Y-82550000D01*
X123334236Y-82268691D01*
X123252182Y-81998192D01*
X123118932Y-81748899D01*
X122939608Y-81530392D01*
X122721101Y-81351068D01*
X122471808Y-81217818D01*
X122201309Y-81135764D01*
X121990492Y-81115000D01*
X121849508Y-81115000D01*
X121638691Y-81135764D01*
X121368192Y-81217818D01*
X121118899Y-81351068D01*
X120900392Y-81530392D01*
X120721068Y-81748899D01*
X120699099Y-81790000D01*
X119019527Y-81790000D01*
X119010472Y-81760149D01*
X118928405Y-81606613D01*
X118817962Y-81472038D01*
X118683387Y-81361595D01*
X118529851Y-81279528D01*
X118363255Y-81228992D01*
X118190001Y-81211928D01*
X117539999Y-81211928D01*
X117366745Y-81228992D01*
X117200149Y-81279528D01*
X117046613Y-81361595D01*
X116912038Y-81472038D01*
X116840000Y-81559816D01*
X116767962Y-81472038D01*
X116633387Y-81361595D01*
X116479851Y-81279528D01*
X116313255Y-81228992D01*
X116140001Y-81211928D01*
X115489999Y-81211928D01*
X115316745Y-81228992D01*
X115150149Y-81279528D01*
X114996613Y-81361595D01*
X114862038Y-81472038D01*
X114751595Y-81606613D01*
X114669528Y-81760149D01*
X114660473Y-81790000D01*
X112978043Y-81790000D01*
X112874637Y-81635241D01*
X112674759Y-81435363D01*
X112439727Y-81278320D01*
X112178574Y-81170147D01*
X111901335Y-81115000D01*
X111618665Y-81115000D01*
X111341426Y-81170147D01*
X111080273Y-81278320D01*
X110845241Y-81435363D01*
X110645363Y-81635241D01*
X110488320Y-81870273D01*
X110380147Y-82131426D01*
X110325000Y-82408665D01*
X23555000Y-82408665D01*
X23555000Y-79908061D01*
X68815000Y-79908061D01*
X68815000Y-80111939D01*
X68854774Y-80311898D01*
X68932795Y-80500256D01*
X69046063Y-80669774D01*
X69190226Y-80813937D01*
X69359744Y-80927205D01*
X69548102Y-81005226D01*
X69748061Y-81045000D01*
X69951939Y-81045000D01*
X70151898Y-81005226D01*
X70340256Y-80927205D01*
X70509774Y-80813937D01*
X70653937Y-80669774D01*
X70767205Y-80500256D01*
X70845226Y-80311898D01*
X70885000Y-80111939D01*
X70885000Y-79908061D01*
X71355000Y-79908061D01*
X71355000Y-80111939D01*
X71394774Y-80311898D01*
X71472795Y-80500256D01*
X71586063Y-80669774D01*
X71730226Y-80813937D01*
X71899744Y-80927205D01*
X72088102Y-81005226D01*
X72288061Y-81045000D01*
X72491939Y-81045000D01*
X72691898Y-81005226D01*
X72880256Y-80927205D01*
X73049774Y-80813937D01*
X73193937Y-80669774D01*
X73307205Y-80500256D01*
X73385226Y-80311898D01*
X73425000Y-80111939D01*
X73425000Y-79908061D01*
X73385226Y-79708102D01*
X73307205Y-79519744D01*
X73193937Y-79350226D01*
X73049774Y-79206063D01*
X72880256Y-79092795D01*
X72691898Y-79014774D01*
X72491939Y-78975000D01*
X72288061Y-78975000D01*
X72088102Y-79014774D01*
X71899744Y-79092795D01*
X71730226Y-79206063D01*
X71586063Y-79350226D01*
X71472795Y-79519744D01*
X71394774Y-79708102D01*
X71355000Y-79908061D01*
X70885000Y-79908061D01*
X70845226Y-79708102D01*
X70767205Y-79519744D01*
X70653937Y-79350226D01*
X70509774Y-79206063D01*
X70340256Y-79092795D01*
X70151898Y-79014774D01*
X69951939Y-78975000D01*
X69748061Y-78975000D01*
X69548102Y-79014774D01*
X69359744Y-79092795D01*
X69190226Y-79206063D01*
X69046063Y-79350226D01*
X68932795Y-79519744D01*
X68854774Y-79708102D01*
X68815000Y-79908061D01*
X23555000Y-79908061D01*
X23555000Y-37391257D01*
X46596305Y-37391257D01*
X46599982Y-37428590D01*
X46599981Y-75265476D01*
X46596305Y-75302799D01*
X46599981Y-75340121D01*
X46599981Y-75340131D01*
X46610978Y-75451784D01*
X46654435Y-75595045D01*
X46725007Y-75727074D01*
X46819980Y-75842800D01*
X46848983Y-75866602D01*
X48593403Y-77611026D01*
X48617197Y-77640019D01*
X48646190Y-77663813D01*
X48646194Y-77663817D01*
X48658755Y-77674125D01*
X48732922Y-77734992D01*
X48864951Y-77805564D01*
X49008212Y-77849021D01*
X49119865Y-77860018D01*
X49119874Y-77860018D01*
X49157197Y-77863694D01*
X49194520Y-77860018D01*
X56372660Y-77860018D01*
X56409982Y-77863694D01*
X56447304Y-77860018D01*
X56447315Y-77860018D01*
X56558968Y-77849021D01*
X56702229Y-77805564D01*
X56834258Y-77734992D01*
X56949983Y-77640019D01*
X56973786Y-77611015D01*
X58700484Y-75884318D01*
X58694774Y-75898102D01*
X58655000Y-76098061D01*
X58655000Y-76301939D01*
X58694774Y-76501898D01*
X58772795Y-76690256D01*
X58886063Y-76859774D01*
X59030226Y-77003937D01*
X59199744Y-77117205D01*
X59388102Y-77195226D01*
X59588061Y-77235000D01*
X59650199Y-77235000D01*
X60396201Y-77981003D01*
X60419999Y-78010001D01*
X60535724Y-78104974D01*
X60667753Y-78175546D01*
X60811014Y-78219003D01*
X60922667Y-78230000D01*
X60922676Y-78230000D01*
X60959999Y-78233676D01*
X60997322Y-78230000D01*
X115532678Y-78230000D01*
X115570000Y-78233676D01*
X115607322Y-78230000D01*
X115607333Y-78230000D01*
X115718986Y-78219003D01*
X115862247Y-78175546D01*
X115994276Y-78104974D01*
X116110001Y-78010001D01*
X116133804Y-77980997D01*
X116418817Y-77695984D01*
X116447821Y-77672181D01*
X116542794Y-77556456D01*
X116613366Y-77424427D01*
X116656823Y-77281166D01*
X116660551Y-77243314D01*
X116820286Y-77157934D01*
X117069171Y-76953681D01*
X117177820Y-76821291D01*
X117286469Y-76953681D01*
X117535353Y-77157934D01*
X117819301Y-77309708D01*
X118127404Y-77403170D01*
X118447820Y-77434728D01*
X118768235Y-77403170D01*
X119076338Y-77309708D01*
X119360286Y-77157934D01*
X119609171Y-76953681D01*
X119717820Y-76821291D01*
X119826469Y-76953681D01*
X120075353Y-77157934D01*
X120359301Y-77309708D01*
X120667404Y-77403170D01*
X120987820Y-77434728D01*
X121308235Y-77403170D01*
X121616338Y-77309708D01*
X121900286Y-77157934D01*
X122149171Y-76953681D01*
X122257820Y-76821291D01*
X122366469Y-76953681D01*
X122615353Y-77157934D01*
X122899301Y-77309708D01*
X123207404Y-77403170D01*
X123527820Y-77434728D01*
X123848235Y-77403170D01*
X124156338Y-77309708D01*
X124440286Y-77157934D01*
X124689171Y-76953681D01*
X124797820Y-76821291D01*
X124906469Y-76953681D01*
X125155353Y-77157934D01*
X125439301Y-77309708D01*
X125747404Y-77403170D01*
X126067820Y-77434728D01*
X126388235Y-77403170D01*
X126696338Y-77309708D01*
X126980286Y-77157934D01*
X127229171Y-76953681D01*
X127336069Y-76823425D01*
X127541864Y-77037892D01*
X127805343Y-77221917D01*
X128099661Y-77351003D01*
X128227466Y-77381949D01*
X128480820Y-77262595D01*
X128480820Y-75544680D01*
X128460820Y-75544680D01*
X128460820Y-75290680D01*
X128480820Y-75290680D01*
X128480820Y-73572765D01*
X128227466Y-73453411D01*
X128099661Y-73484357D01*
X127805343Y-73613443D01*
X127541864Y-73797468D01*
X127336069Y-74011935D01*
X127229171Y-73881679D01*
X126980287Y-73677426D01*
X126696339Y-73525652D01*
X126388236Y-73432190D01*
X126067820Y-73400632D01*
X125747405Y-73432190D01*
X125439302Y-73525652D01*
X125155354Y-73677426D01*
X124906470Y-73881679D01*
X124797820Y-74014069D01*
X124689171Y-73881679D01*
X124440287Y-73677426D01*
X124156339Y-73525652D01*
X123848236Y-73432190D01*
X123527820Y-73400632D01*
X123207405Y-73432190D01*
X122899302Y-73525652D01*
X122615354Y-73677426D01*
X122366470Y-73881679D01*
X122257820Y-74014069D01*
X122149171Y-73881679D01*
X121900287Y-73677426D01*
X121616339Y-73525652D01*
X121308236Y-73432190D01*
X120987820Y-73400632D01*
X120667405Y-73432190D01*
X120359302Y-73525652D01*
X120075354Y-73677426D01*
X119826470Y-73881679D01*
X119717820Y-74014069D01*
X119609171Y-73881679D01*
X119360287Y-73677426D01*
X119076339Y-73525652D01*
X118768236Y-73432190D01*
X118447820Y-73400632D01*
X118127405Y-73432190D01*
X117961967Y-73482375D01*
X114292592Y-69813000D01*
X115394146Y-69813000D01*
X115562067Y-69796461D01*
X115777523Y-69731103D01*
X115976089Y-69624968D01*
X116150133Y-69482133D01*
X116292968Y-69308089D01*
X116399103Y-69109523D01*
X116464461Y-68894067D01*
X116486530Y-68670000D01*
X116473724Y-68539973D01*
X128087687Y-68539973D01*
X128087687Y-68777633D01*
X128134052Y-69010726D01*
X128225000Y-69230295D01*
X128357037Y-69427902D01*
X128525088Y-69595953D01*
X128722695Y-69727990D01*
X128942264Y-69818938D01*
X129175357Y-69865303D01*
X129413017Y-69865303D01*
X129646110Y-69818938D01*
X129865679Y-69727990D01*
X130063286Y-69595953D01*
X130231337Y-69427902D01*
X130363374Y-69230295D01*
X130454322Y-69010726D01*
X130500687Y-68777633D01*
X130500687Y-68539973D01*
X130627687Y-68539973D01*
X130627687Y-68777633D01*
X130674052Y-69010726D01*
X130765000Y-69230295D01*
X130897037Y-69427902D01*
X131065088Y-69595953D01*
X131262695Y-69727990D01*
X131482264Y-69818938D01*
X131715357Y-69865303D01*
X131953017Y-69865303D01*
X132186110Y-69818938D01*
X132405679Y-69727990D01*
X132603286Y-69595953D01*
X132771337Y-69427902D01*
X132903374Y-69230295D01*
X132994322Y-69010726D01*
X133040687Y-68777633D01*
X133040687Y-68539973D01*
X132994322Y-68306880D01*
X132903374Y-68087311D01*
X132771337Y-67889704D01*
X132603286Y-67721653D01*
X132405679Y-67589616D01*
X132186110Y-67498668D01*
X131953017Y-67452303D01*
X131715357Y-67452303D01*
X131482264Y-67498668D01*
X131262695Y-67589616D01*
X131065088Y-67721653D01*
X130897037Y-67889704D01*
X130765000Y-68087311D01*
X130674052Y-68306880D01*
X130627687Y-68539973D01*
X130500687Y-68539973D01*
X130454322Y-68306880D01*
X130363374Y-68087311D01*
X130231337Y-67889704D01*
X130063286Y-67721653D01*
X129865679Y-67589616D01*
X129646110Y-67498668D01*
X129413017Y-67452303D01*
X129175357Y-67452303D01*
X128942264Y-67498668D01*
X128722695Y-67589616D01*
X128525088Y-67721653D01*
X128357037Y-67889704D01*
X128225000Y-68087311D01*
X128134052Y-68306880D01*
X128087687Y-68539973D01*
X116473724Y-68539973D01*
X116464461Y-68445933D01*
X116399103Y-68230477D01*
X116292968Y-68031911D01*
X116150133Y-67857867D01*
X115976089Y-67715032D01*
X115777523Y-67608897D01*
X115562067Y-67543539D01*
X115394146Y-67527000D01*
X114265854Y-67527000D01*
X114097933Y-67543539D01*
X113882477Y-67608897D01*
X113683911Y-67715032D01*
X113509867Y-67857867D01*
X113367032Y-68031911D01*
X113260897Y-68230477D01*
X113195539Y-68445933D01*
X113173470Y-68670000D01*
X113176079Y-68696487D01*
X110599592Y-66120000D01*
X113173470Y-66120000D01*
X113195539Y-66344067D01*
X113260897Y-66559523D01*
X113367032Y-66758089D01*
X113509867Y-66932133D01*
X113683911Y-67074968D01*
X113882477Y-67181103D01*
X114097933Y-67246461D01*
X114265854Y-67263000D01*
X115394146Y-67263000D01*
X115562067Y-67246461D01*
X115777523Y-67181103D01*
X115976089Y-67074968D01*
X116150133Y-66932133D01*
X116292968Y-66758089D01*
X116399103Y-66559523D01*
X116464461Y-66344067D01*
X116486530Y-66120000D01*
X116474709Y-65999973D01*
X128087687Y-65999973D01*
X128087687Y-66237633D01*
X128134052Y-66470726D01*
X128225000Y-66690295D01*
X128357037Y-66887902D01*
X128525088Y-67055953D01*
X128722695Y-67187990D01*
X128942264Y-67278938D01*
X129175357Y-67325303D01*
X129413017Y-67325303D01*
X129646110Y-67278938D01*
X129865679Y-67187990D01*
X130063286Y-67055953D01*
X130231337Y-66887902D01*
X130363374Y-66690295D01*
X130454322Y-66470726D01*
X130500687Y-66237633D01*
X130500687Y-65999973D01*
X130627687Y-65999973D01*
X130627687Y-66237633D01*
X130674052Y-66470726D01*
X130765000Y-66690295D01*
X130897037Y-66887902D01*
X131065088Y-67055953D01*
X131262695Y-67187990D01*
X131482264Y-67278938D01*
X131715357Y-67325303D01*
X131953017Y-67325303D01*
X132186110Y-67278938D01*
X132405679Y-67187990D01*
X132603286Y-67055953D01*
X132771337Y-66887902D01*
X132903374Y-66690295D01*
X132994322Y-66470726D01*
X133040687Y-66237633D01*
X133040687Y-65999973D01*
X132994322Y-65766880D01*
X132903374Y-65547311D01*
X132771337Y-65349704D01*
X132603286Y-65181653D01*
X132405679Y-65049616D01*
X132186110Y-64958668D01*
X131953017Y-64912303D01*
X131715357Y-64912303D01*
X131482264Y-64958668D01*
X131262695Y-65049616D01*
X131065088Y-65181653D01*
X130897037Y-65349704D01*
X130765000Y-65547311D01*
X130674052Y-65766880D01*
X130627687Y-65999973D01*
X130500687Y-65999973D01*
X130454322Y-65766880D01*
X130363374Y-65547311D01*
X130231337Y-65349704D01*
X130063286Y-65181653D01*
X129865679Y-65049616D01*
X129646110Y-64958668D01*
X129413017Y-64912303D01*
X129175357Y-64912303D01*
X128942264Y-64958668D01*
X128722695Y-65049616D01*
X128525088Y-65181653D01*
X128357037Y-65349704D01*
X128225000Y-65547311D01*
X128134052Y-65766880D01*
X128087687Y-65999973D01*
X116474709Y-65999973D01*
X116464461Y-65895933D01*
X116399103Y-65680477D01*
X116292968Y-65481911D01*
X116150133Y-65307867D01*
X115976089Y-65165032D01*
X115777523Y-65058897D01*
X115562067Y-64993539D01*
X115394146Y-64977000D01*
X114265854Y-64977000D01*
X114097933Y-64993539D01*
X113882477Y-65058897D01*
X113683911Y-65165032D01*
X113509867Y-65307867D01*
X113367032Y-65481911D01*
X113260897Y-65680477D01*
X113195539Y-65895933D01*
X113173470Y-66120000D01*
X110599592Y-66120000D01*
X107877653Y-63398061D01*
X109455000Y-63398061D01*
X109455000Y-63601939D01*
X109494774Y-63801898D01*
X109572795Y-63990256D01*
X109686063Y-64159774D01*
X109830226Y-64303937D01*
X109999744Y-64417205D01*
X110188102Y-64495226D01*
X110388061Y-64535000D01*
X110591939Y-64535000D01*
X110791898Y-64495226D01*
X110980256Y-64417205D01*
X111149774Y-64303937D01*
X111293937Y-64159774D01*
X111407205Y-63990256D01*
X111485226Y-63801898D01*
X111525000Y-63601939D01*
X111525000Y-63539801D01*
X114536068Y-60528734D01*
X114542216Y-60540236D01*
X114746469Y-60789121D01*
X114995353Y-60993374D01*
X115279301Y-61145148D01*
X115587404Y-61238610D01*
X115907820Y-61270168D01*
X116228235Y-61238610D01*
X116536338Y-61145148D01*
X116820286Y-60993374D01*
X117069171Y-60789121D01*
X117177820Y-60656731D01*
X117286469Y-60789121D01*
X117535353Y-60993374D01*
X117819301Y-61145148D01*
X118127404Y-61238610D01*
X118447820Y-61270168D01*
X118768235Y-61238610D01*
X119076338Y-61145148D01*
X119360286Y-60993374D01*
X119609171Y-60789121D01*
X119717820Y-60656731D01*
X119826469Y-60789121D01*
X120075353Y-60993374D01*
X120359301Y-61145148D01*
X120667404Y-61238610D01*
X120987820Y-61270168D01*
X121308235Y-61238610D01*
X121616338Y-61145148D01*
X121900286Y-60993374D01*
X122149171Y-60789121D01*
X122257820Y-60656731D01*
X122366469Y-60789121D01*
X122615353Y-60993374D01*
X122899301Y-61145148D01*
X123207404Y-61238610D01*
X123527820Y-61270168D01*
X123848235Y-61238610D01*
X124156338Y-61145148D01*
X124440286Y-60993374D01*
X124689171Y-60789121D01*
X124797820Y-60656731D01*
X124906469Y-60789121D01*
X125155353Y-60993374D01*
X125439301Y-61145148D01*
X125747404Y-61238610D01*
X126067820Y-61270168D01*
X126388235Y-61238610D01*
X126696338Y-61145148D01*
X126980286Y-60993374D01*
X127229171Y-60789121D01*
X127337820Y-60656731D01*
X127446469Y-60789121D01*
X127695353Y-60993374D01*
X127979301Y-61145148D01*
X128287404Y-61238610D01*
X128607820Y-61270168D01*
X128928235Y-61238610D01*
X129236338Y-61145148D01*
X129520286Y-60993374D01*
X129769171Y-60789121D01*
X129877820Y-60656731D01*
X129986469Y-60789121D01*
X130235353Y-60993374D01*
X130519301Y-61145148D01*
X130827404Y-61238610D01*
X131147820Y-61270168D01*
X131468235Y-61238610D01*
X131776338Y-61145148D01*
X132060286Y-60993374D01*
X132309171Y-60789121D01*
X132513424Y-60540237D01*
X132665198Y-60256289D01*
X132758660Y-59948186D01*
X132782310Y-59708062D01*
X132782310Y-58798179D01*
X132758660Y-58558054D01*
X132665198Y-58249951D01*
X132513424Y-57966003D01*
X132309171Y-57717119D01*
X132060287Y-57512866D01*
X131776339Y-57361092D01*
X131468236Y-57267630D01*
X131147820Y-57236072D01*
X130827405Y-57267630D01*
X130519302Y-57361092D01*
X130235354Y-57512866D01*
X129986470Y-57717119D01*
X129877820Y-57849509D01*
X129769171Y-57717119D01*
X129520287Y-57512866D01*
X129236339Y-57361092D01*
X128928236Y-57267630D01*
X128607820Y-57236072D01*
X128287405Y-57267630D01*
X127979302Y-57361092D01*
X127695354Y-57512866D01*
X127446470Y-57717119D01*
X127337820Y-57849509D01*
X127229171Y-57717119D01*
X126980287Y-57512866D01*
X126696339Y-57361092D01*
X126388236Y-57267630D01*
X126067820Y-57236072D01*
X125747405Y-57267630D01*
X125439302Y-57361092D01*
X125155354Y-57512866D01*
X124906470Y-57717119D01*
X124797820Y-57849509D01*
X124689171Y-57717119D01*
X124440287Y-57512866D01*
X124156339Y-57361092D01*
X123848236Y-57267630D01*
X123527820Y-57236072D01*
X123207405Y-57267630D01*
X122899302Y-57361092D01*
X122615354Y-57512866D01*
X122366470Y-57717119D01*
X122257820Y-57849509D01*
X122149171Y-57717119D01*
X121900287Y-57512866D01*
X121616339Y-57361092D01*
X121308236Y-57267630D01*
X120987820Y-57236072D01*
X120667405Y-57267630D01*
X120359302Y-57361092D01*
X120075354Y-57512866D01*
X119826470Y-57717119D01*
X119717820Y-57849509D01*
X119609171Y-57717119D01*
X119360287Y-57512866D01*
X119076339Y-57361092D01*
X118768236Y-57267630D01*
X118447820Y-57236072D01*
X118127405Y-57267630D01*
X117819302Y-57361092D01*
X117535354Y-57512866D01*
X117286470Y-57717119D01*
X117177820Y-57849509D01*
X117069171Y-57717119D01*
X116820287Y-57512866D01*
X116536339Y-57361092D01*
X116228236Y-57267630D01*
X115907820Y-57236072D01*
X115587405Y-57267630D01*
X115279302Y-57361092D01*
X114995354Y-57512866D01*
X114746470Y-57717119D01*
X114542216Y-57966003D01*
X114390442Y-58249951D01*
X114296980Y-58558054D01*
X114286063Y-58668896D01*
X114234054Y-58696696D01*
X114118329Y-58791669D01*
X114094531Y-58820667D01*
X110450199Y-62465000D01*
X110388061Y-62465000D01*
X110188102Y-62504774D01*
X109999744Y-62582795D01*
X109830226Y-62696063D01*
X109686063Y-62840226D01*
X109572795Y-63009744D01*
X109494774Y-63198102D01*
X109455000Y-63398061D01*
X107877653Y-63398061D01*
X106198594Y-61719003D01*
X106174791Y-61689999D01*
X106059066Y-61595026D01*
X105927037Y-61524454D01*
X105783776Y-61480997D01*
X105672123Y-61470000D01*
X105672112Y-61470000D01*
X105634790Y-61466324D01*
X105597468Y-61470000D01*
X103573711Y-61470000D01*
X103529774Y-61426063D01*
X103499181Y-61405621D01*
X112738431Y-52166372D01*
X112892408Y-52197000D01*
X113167592Y-52197000D01*
X113437490Y-52143314D01*
X113691727Y-52038005D01*
X113920535Y-51885120D01*
X114115120Y-51690535D01*
X114268005Y-51461727D01*
X114300000Y-51384485D01*
X114331995Y-51461727D01*
X114484880Y-51690535D01*
X114679465Y-51885120D01*
X114908273Y-52038005D01*
X115162510Y-52143314D01*
X115432408Y-52197000D01*
X115707592Y-52197000D01*
X115977490Y-52143314D01*
X116231727Y-52038005D01*
X116460535Y-51885120D01*
X116655120Y-51690535D01*
X116808005Y-51461727D01*
X116913314Y-51207490D01*
X116967000Y-50937592D01*
X116967000Y-50662408D01*
X116913314Y-50392510D01*
X116808005Y-50138273D01*
X116655120Y-49909465D01*
X116460535Y-49714880D01*
X116231727Y-49561995D01*
X115977490Y-49456686D01*
X115707592Y-49403000D01*
X115432408Y-49403000D01*
X115162510Y-49456686D01*
X114908273Y-49561995D01*
X114679465Y-49714880D01*
X114484880Y-49909465D01*
X114331995Y-50138273D01*
X114300000Y-50215515D01*
X114268005Y-50138273D01*
X114115120Y-49909465D01*
X113920535Y-49714880D01*
X113691727Y-49561995D01*
X113437490Y-49456686D01*
X113167592Y-49403000D01*
X112892408Y-49403000D01*
X112622510Y-49456686D01*
X112368273Y-49561995D01*
X112139465Y-49714880D01*
X111944880Y-49909465D01*
X111791995Y-50138273D01*
X111760000Y-50215515D01*
X111728005Y-50138273D01*
X111575120Y-49909465D01*
X111380535Y-49714880D01*
X111151727Y-49561995D01*
X110897490Y-49456686D01*
X110627592Y-49403000D01*
X110352408Y-49403000D01*
X110082510Y-49456686D01*
X109828273Y-49561995D01*
X109599465Y-49714880D01*
X109404880Y-49909465D01*
X109251995Y-50138273D01*
X109220000Y-50215515D01*
X109188005Y-50138273D01*
X109035120Y-49909465D01*
X108840535Y-49714880D01*
X108611727Y-49561995D01*
X108357490Y-49456686D01*
X108087592Y-49403000D01*
X107812408Y-49403000D01*
X107658429Y-49433628D01*
X107426803Y-49202002D01*
X107403000Y-49172998D01*
X107287275Y-49078025D01*
X107155246Y-49007453D01*
X107011985Y-48963996D01*
X106900332Y-48952999D01*
X106900321Y-48952999D01*
X106862999Y-48949323D01*
X106825677Y-48952999D01*
X104925561Y-48952999D01*
X104888238Y-48949323D01*
X104850915Y-48952999D01*
X104850906Y-48952999D01*
X104739253Y-48963996D01*
X104595992Y-49007453D01*
X104463962Y-49078025D01*
X104380322Y-49146667D01*
X104348238Y-49172998D01*
X104324439Y-49201997D01*
X103811997Y-49714440D01*
X103783490Y-49737835D01*
X103760535Y-49714880D01*
X103531727Y-49561995D01*
X103277490Y-49456686D01*
X103007592Y-49403000D01*
X102732408Y-49403000D01*
X102462510Y-49456686D01*
X102208273Y-49561995D01*
X101979465Y-49714880D01*
X101784880Y-49909465D01*
X101631995Y-50138273D01*
X101526686Y-50392510D01*
X101473000Y-50662408D01*
X101473000Y-50937592D01*
X101503628Y-51091570D01*
X86570198Y-66025001D01*
X81228072Y-66025001D01*
X81228072Y-65300000D01*
X81215812Y-65175518D01*
X81179502Y-65055820D01*
X81120537Y-64945506D01*
X81041185Y-64848815D01*
X80944494Y-64769463D01*
X80834180Y-64710498D01*
X80714482Y-64674188D01*
X80668456Y-64669655D01*
X80644974Y-64625723D01*
X80573799Y-64538997D01*
X80550001Y-64509999D01*
X80521003Y-64486201D01*
X78162863Y-62128061D01*
X81515000Y-62128061D01*
X81515000Y-62331939D01*
X81554774Y-62531898D01*
X81632795Y-62720256D01*
X81746063Y-62889774D01*
X81890226Y-63033937D01*
X82059744Y-63147205D01*
X82248102Y-63225226D01*
X82448061Y-63265000D01*
X82651939Y-63265000D01*
X82851898Y-63225226D01*
X83040256Y-63147205D01*
X83209774Y-63033937D01*
X83253711Y-62990000D01*
X88196289Y-62990000D01*
X88240226Y-63033937D01*
X88409744Y-63147205D01*
X88598102Y-63225226D01*
X88798061Y-63265000D01*
X89001939Y-63265000D01*
X89201898Y-63225226D01*
X89390256Y-63147205D01*
X89559774Y-63033937D01*
X89703937Y-62889774D01*
X89817205Y-62720256D01*
X89895226Y-62531898D01*
X89935000Y-62331939D01*
X89935000Y-62128061D01*
X89895226Y-61928102D01*
X89817205Y-61739744D01*
X89703937Y-61570226D01*
X89559774Y-61426063D01*
X89390256Y-61312795D01*
X89201898Y-61234774D01*
X89001939Y-61195000D01*
X88798061Y-61195000D01*
X88598102Y-61234774D01*
X88409744Y-61312795D01*
X88240226Y-61426063D01*
X88196289Y-61470000D01*
X83253711Y-61470000D01*
X83209774Y-61426063D01*
X83040256Y-61312795D01*
X82851898Y-61234774D01*
X82651939Y-61195000D01*
X82448061Y-61195000D01*
X82248102Y-61234774D01*
X82059744Y-61312795D01*
X81890226Y-61426063D01*
X81746063Y-61570226D01*
X81632795Y-61739744D01*
X81554774Y-61928102D01*
X81515000Y-62128061D01*
X78162863Y-62128061D01*
X75581804Y-59547003D01*
X75558001Y-59517999D01*
X75442276Y-59423026D01*
X75310247Y-59352454D01*
X75258072Y-59336627D01*
X75258072Y-59095500D01*
X75245812Y-58971018D01*
X75209502Y-58851320D01*
X75150537Y-58741006D01*
X75071185Y-58644315D01*
X74974494Y-58564963D01*
X74864180Y-58505998D01*
X74791620Y-58483987D01*
X75030205Y-58245403D01*
X75092342Y-58245403D01*
X75292301Y-58205629D01*
X75480659Y-58127608D01*
X75650177Y-58014340D01*
X75794340Y-57870177D01*
X75907608Y-57700659D01*
X75985629Y-57512301D01*
X76025403Y-57312342D01*
X76025403Y-57108464D01*
X75985629Y-56908505D01*
X75907608Y-56720147D01*
X75794340Y-56550629D01*
X75747006Y-56503295D01*
X95930302Y-36320000D01*
X101697659Y-36320000D01*
X101784880Y-36450535D01*
X101979465Y-36645120D01*
X102208273Y-36798005D01*
X102462510Y-36903314D01*
X102732408Y-36957000D01*
X103007592Y-36957000D01*
X103277490Y-36903314D01*
X103531727Y-36798005D01*
X103760535Y-36645120D01*
X103955120Y-36450535D01*
X104108005Y-36221727D01*
X104140000Y-36144485D01*
X104171995Y-36221727D01*
X104324880Y-36450535D01*
X104519465Y-36645120D01*
X104748273Y-36798005D01*
X105002510Y-36903314D01*
X105272408Y-36957000D01*
X105547592Y-36957000D01*
X105817490Y-36903314D01*
X106071727Y-36798005D01*
X106300535Y-36645120D01*
X106495120Y-36450535D01*
X106648005Y-36221727D01*
X106680000Y-36144485D01*
X106711995Y-36221727D01*
X106864880Y-36450535D01*
X107059465Y-36645120D01*
X107288273Y-36798005D01*
X107542510Y-36903314D01*
X107812408Y-36957000D01*
X108087592Y-36957000D01*
X108357490Y-36903314D01*
X108611727Y-36798005D01*
X108840535Y-36645120D01*
X109035120Y-36450535D01*
X109188005Y-36221727D01*
X109220000Y-36144485D01*
X109251995Y-36221727D01*
X109404880Y-36450535D01*
X109599465Y-36645120D01*
X109828273Y-36798005D01*
X110082510Y-36903314D01*
X110352408Y-36957000D01*
X110627592Y-36957000D01*
X110897490Y-36903314D01*
X111151727Y-36798005D01*
X111380535Y-36645120D01*
X111575120Y-36450535D01*
X111728005Y-36221727D01*
X111760000Y-36144485D01*
X111791995Y-36221727D01*
X111944880Y-36450535D01*
X112139465Y-36645120D01*
X112368273Y-36798005D01*
X112622510Y-36903314D01*
X112892408Y-36957000D01*
X113167592Y-36957000D01*
X113437490Y-36903314D01*
X113691727Y-36798005D01*
X113920535Y-36645120D01*
X114115120Y-36450535D01*
X114268005Y-36221727D01*
X114300000Y-36144485D01*
X114331995Y-36221727D01*
X114484880Y-36450535D01*
X114679465Y-36645120D01*
X114908273Y-36798005D01*
X115162510Y-36903314D01*
X115432408Y-36957000D01*
X115707592Y-36957000D01*
X115977490Y-36903314D01*
X116231727Y-36798005D01*
X116460535Y-36645120D01*
X116655120Y-36450535D01*
X116808005Y-36221727D01*
X116913314Y-35967490D01*
X116967000Y-35697592D01*
X116967000Y-35422408D01*
X116913314Y-35152510D01*
X116808005Y-34898273D01*
X116655120Y-34669465D01*
X116460535Y-34474880D01*
X116231727Y-34321995D01*
X115977490Y-34216686D01*
X115707592Y-34163000D01*
X115432408Y-34163000D01*
X115278430Y-34193628D01*
X114413793Y-33328992D01*
X114389991Y-33299989D01*
X114274266Y-33205016D01*
X114142237Y-33134444D01*
X113998976Y-33090987D01*
X113887323Y-33079990D01*
X113887312Y-33079990D01*
X113849990Y-33076314D01*
X113812668Y-33079990D01*
X105175000Y-33079990D01*
X105175000Y-32918061D01*
X105141961Y-32751961D01*
X105308061Y-32785000D01*
X105511939Y-32785000D01*
X105711898Y-32745226D01*
X105900256Y-32667205D01*
X106069774Y-32553937D01*
X106213937Y-32409774D01*
X106327205Y-32240256D01*
X106405226Y-32051898D01*
X106445000Y-31851939D01*
X106445000Y-31648061D01*
X106405226Y-31448102D01*
X106327205Y-31259744D01*
X106213937Y-31090226D01*
X106069774Y-30946063D01*
X105900256Y-30832795D01*
X105711898Y-30754774D01*
X105511939Y-30715000D01*
X105308061Y-30715000D01*
X105108102Y-30754774D01*
X104919744Y-30832795D01*
X104750226Y-30946063D01*
X104706289Y-30990000D01*
X57853711Y-30990000D01*
X57809774Y-30946063D01*
X57640256Y-30832795D01*
X57451898Y-30754774D01*
X57251939Y-30715000D01*
X57048061Y-30715000D01*
X56848102Y-30754774D01*
X56659744Y-30832795D01*
X56490226Y-30946063D01*
X56346063Y-31090226D01*
X56232795Y-31259744D01*
X56154774Y-31448102D01*
X56115000Y-31648061D01*
X56115000Y-31851939D01*
X56154774Y-32051898D01*
X56232795Y-32240256D01*
X56245987Y-32260000D01*
X55313711Y-32260000D01*
X55269774Y-32216063D01*
X55100256Y-32102795D01*
X54911898Y-32024774D01*
X54711939Y-31985000D01*
X54508061Y-31985000D01*
X54308102Y-32024774D01*
X54119744Y-32102795D01*
X53950226Y-32216063D01*
X53806063Y-32360226D01*
X53692795Y-32529744D01*
X53614774Y-32718102D01*
X53575000Y-32918061D01*
X53575000Y-33121939D01*
X53603056Y-33262989D01*
X50765571Y-33262989D01*
X50728248Y-33259313D01*
X50690925Y-33262989D01*
X50690916Y-33262989D01*
X50579263Y-33273986D01*
X50436002Y-33317443D01*
X50303973Y-33388015D01*
X50188248Y-33482988D01*
X50164450Y-33511986D01*
X46848979Y-36827458D01*
X46819981Y-36851256D01*
X46796183Y-36880254D01*
X46796182Y-36880255D01*
X46725007Y-36966981D01*
X46654435Y-37099011D01*
X46627744Y-37187002D01*
X46620526Y-37210800D01*
X46610979Y-37242272D01*
X46596305Y-37391257D01*
X23555000Y-37391257D01*
X23555000Y-29087494D01*
X23601253Y-29171628D01*
X23874734Y-29497550D01*
X24206312Y-29764146D01*
X24583358Y-29961261D01*
X24991509Y-30081386D01*
X25415219Y-30119947D01*
X25838350Y-30075474D01*
X26244784Y-29949662D01*
X26619041Y-29747302D01*
X26946864Y-29476103D01*
X27215768Y-29146394D01*
X27415510Y-28770733D01*
X27538482Y-28363431D01*
X27580000Y-27940000D01*
X27579150Y-27879131D01*
X27525826Y-27457024D01*
X27391529Y-27053314D01*
X27181376Y-26683378D01*
X26903371Y-26361305D01*
X26568102Y-26099365D01*
X26559461Y-26095000D01*
X137284067Y-26095000D01*
X137185844Y-26149895D01*
G36*
X57181995Y-36221727D02*
G01*
X57334880Y-36450535D01*
X57529465Y-36645120D01*
X57758273Y-36798005D01*
X58012510Y-36903314D01*
X58282408Y-36957000D01*
X58557592Y-36957000D01*
X58711571Y-36926372D01*
X58747002Y-36961803D01*
X58747001Y-49440676D01*
X58557592Y-49403000D01*
X58282408Y-49403000D01*
X58012510Y-49456686D01*
X57758273Y-49561995D01*
X57529465Y-49714880D01*
X57334880Y-49909465D01*
X57181995Y-50138273D01*
X57150000Y-50215515D01*
X57118005Y-50138273D01*
X56965120Y-49909465D01*
X56770535Y-49714880D01*
X56541727Y-49561995D01*
X56287490Y-49456686D01*
X56017592Y-49403000D01*
X55742408Y-49403000D01*
X55472510Y-49456686D01*
X55218273Y-49561995D01*
X54989465Y-49714880D01*
X54794880Y-49909465D01*
X54641995Y-50138273D01*
X54610000Y-50215515D01*
X54578005Y-50138273D01*
X54425120Y-49909465D01*
X54230535Y-49714880D01*
X54001727Y-49561995D01*
X53747490Y-49456686D01*
X53477592Y-49403000D01*
X53202408Y-49403000D01*
X52932510Y-49456686D01*
X52678273Y-49561995D01*
X52449465Y-49714880D01*
X52254880Y-49909465D01*
X52101995Y-50138273D01*
X52070000Y-50215515D01*
X52038005Y-50138273D01*
X51885120Y-49909465D01*
X51690535Y-49714880D01*
X51461727Y-49561995D01*
X51207490Y-49456686D01*
X50937592Y-49403000D01*
X50662408Y-49403000D01*
X50392510Y-49456686D01*
X50138273Y-49561995D01*
X49909465Y-49714880D01*
X49714880Y-49909465D01*
X49561995Y-50138273D01*
X49456686Y-50392510D01*
X49403000Y-50662408D01*
X49403000Y-50937592D01*
X49456686Y-51207490D01*
X49561995Y-51461727D01*
X49714880Y-51690535D01*
X49909465Y-51885120D01*
X50138273Y-52038005D01*
X50392510Y-52143314D01*
X50662408Y-52197000D01*
X50937592Y-52197000D01*
X51207490Y-52143314D01*
X51461727Y-52038005D01*
X51690535Y-51885120D01*
X51885120Y-51690535D01*
X52038005Y-51461727D01*
X52070000Y-51384485D01*
X52101995Y-51461727D01*
X52254880Y-51690535D01*
X52449465Y-51885120D01*
X52678273Y-52038005D01*
X52932510Y-52143314D01*
X53202408Y-52197000D01*
X53477592Y-52197000D01*
X53747490Y-52143314D01*
X54001727Y-52038005D01*
X54230535Y-51885120D01*
X54425120Y-51690535D01*
X54578005Y-51461727D01*
X54610000Y-51384485D01*
X54641995Y-51461727D01*
X54794880Y-51690535D01*
X54989465Y-51885120D01*
X55218273Y-52038005D01*
X55472510Y-52143314D01*
X55742408Y-52197000D01*
X55948198Y-52197000D01*
X50289003Y-57856196D01*
X50259999Y-57879999D01*
X50204871Y-57947174D01*
X50165026Y-57995724D01*
X50111332Y-58096178D01*
X50094454Y-58127754D01*
X50050997Y-58271015D01*
X50040000Y-58382668D01*
X50040000Y-58382678D01*
X50036324Y-58420000D01*
X50040000Y-58457322D01*
X50040001Y-69153629D01*
X50017879Y-69168410D01*
X49873716Y-69312573D01*
X49760448Y-69482091D01*
X49682427Y-69670449D01*
X49642653Y-69870408D01*
X49642653Y-70074286D01*
X49682427Y-70274245D01*
X49760448Y-70462603D01*
X49873716Y-70632121D01*
X50017879Y-70776284D01*
X50187397Y-70889552D01*
X50375755Y-70967573D01*
X50575714Y-71007347D01*
X50779592Y-71007347D01*
X50979551Y-70967573D01*
X51167909Y-70889552D01*
X51337427Y-70776284D01*
X51481590Y-70632121D01*
X51594858Y-70462603D01*
X51672879Y-70274245D01*
X51712653Y-70074286D01*
X51712653Y-69870408D01*
X51672879Y-69670449D01*
X51594858Y-69482091D01*
X51560000Y-69429922D01*
X51560000Y-66983857D01*
X51715598Y-67048308D01*
X51950333Y-67095000D01*
X52189667Y-67095000D01*
X52424402Y-67048308D01*
X52645518Y-66956719D01*
X52844517Y-66823752D01*
X53013752Y-66654517D01*
X53146719Y-66455518D01*
X53238308Y-66234402D01*
X53285000Y-65999667D01*
X53285000Y-65760333D01*
X53281594Y-65743208D01*
X53427412Y-65597389D01*
X53395000Y-65760333D01*
X53395000Y-65999667D01*
X53441692Y-66234402D01*
X53533281Y-66455518D01*
X53666248Y-66654517D01*
X53835483Y-66823752D01*
X54034482Y-66956719D01*
X54255598Y-67048308D01*
X54490333Y-67095000D01*
X54729667Y-67095000D01*
X54964402Y-67048308D01*
X55185518Y-66956719D01*
X55384517Y-66823752D01*
X55553752Y-66654517D01*
X55686719Y-66455518D01*
X55778308Y-66234402D01*
X55825000Y-65999667D01*
X55825000Y-65760333D01*
X55821594Y-65743208D01*
X55967412Y-65597389D01*
X55935000Y-65760333D01*
X55935000Y-65999667D01*
X55981692Y-66234402D01*
X56073281Y-66455518D01*
X56206248Y-66654517D01*
X56375483Y-66823752D01*
X56574482Y-66956719D01*
X56795598Y-67048308D01*
X57030333Y-67095000D01*
X57269667Y-67095000D01*
X57504402Y-67048308D01*
X57725518Y-66956719D01*
X57924517Y-66823752D01*
X58032816Y-66715453D01*
X59034152Y-66715453D01*
X59079024Y-66937002D01*
X59296974Y-67035888D01*
X59530028Y-67090353D01*
X59769231Y-67098306D01*
X60005388Y-67059440D01*
X60229426Y-66975248D01*
X60300976Y-66937002D01*
X60345848Y-66715453D01*
X59690000Y-66059605D01*
X59034152Y-66715453D01*
X58032816Y-66715453D01*
X58093752Y-66654517D01*
X58110206Y-66629892D01*
X58119229Y-66629003D01*
X58262490Y-66585546D01*
X58394519Y-66514974D01*
X58510244Y-66420001D01*
X58534047Y-66390997D01*
X58570405Y-66354639D01*
X58594752Y-66419426D01*
X58632998Y-66490976D01*
X58854547Y-66535848D01*
X59510395Y-65880000D01*
X59869605Y-65880000D01*
X60525453Y-66535848D01*
X60747002Y-66490976D01*
X60845888Y-66273026D01*
X60900353Y-66039972D01*
X60908306Y-65800769D01*
X60869440Y-65564612D01*
X60785248Y-65340574D01*
X60747002Y-65269024D01*
X60525453Y-65224152D01*
X59869605Y-65880000D01*
X59510395Y-65880000D01*
X59496253Y-65865858D01*
X59675858Y-65686253D01*
X59690000Y-65700395D01*
X60345848Y-65044547D01*
X60300976Y-64822998D01*
X60164133Y-64760911D01*
X63274827Y-61650218D01*
X63314482Y-61646312D01*
X63434180Y-61610002D01*
X63500000Y-61574820D01*
X63565820Y-61610002D01*
X63685518Y-61646312D01*
X63810000Y-61658572D01*
X63849250Y-61655500D01*
X64008000Y-61496750D01*
X64008000Y-60185000D01*
X63988000Y-60185000D01*
X63988000Y-59931000D01*
X64008000Y-59931000D01*
X64008000Y-58619250D01*
X63849250Y-58460500D01*
X63810000Y-58457428D01*
X63685518Y-58469688D01*
X63565820Y-58505998D01*
X63500000Y-58541180D01*
X63434180Y-58505998D01*
X63314482Y-58469688D01*
X63190000Y-58457428D01*
X62540000Y-58457428D01*
X62415518Y-58469688D01*
X62295820Y-58505998D01*
X62230000Y-58541180D01*
X62164180Y-58505998D01*
X62044482Y-58469688D01*
X61920000Y-58457428D01*
X61706730Y-58457428D01*
X60267001Y-57017700D01*
X60267001Y-52017110D01*
X60298273Y-52038005D01*
X60552510Y-52143314D01*
X60822408Y-52197000D01*
X61097592Y-52197000D01*
X61367490Y-52143314D01*
X61621727Y-52038005D01*
X61850535Y-51885120D01*
X62045120Y-51690535D01*
X62198005Y-51461727D01*
X62230000Y-51384485D01*
X62261995Y-51461727D01*
X62414880Y-51690535D01*
X62609465Y-51885120D01*
X62838273Y-52038005D01*
X63092510Y-52143314D01*
X63362408Y-52197000D01*
X63637592Y-52197000D01*
X63791571Y-52166372D01*
X65915001Y-54289803D01*
X65915000Y-58488046D01*
X65854482Y-58469688D01*
X65730000Y-58457428D01*
X65080000Y-58457428D01*
X64955518Y-58469688D01*
X64835820Y-58505998D01*
X64770000Y-58541180D01*
X64704180Y-58505998D01*
X64584482Y-58469688D01*
X64460000Y-58457428D01*
X64420750Y-58460500D01*
X64262000Y-58619250D01*
X64262000Y-59931000D01*
X64282000Y-59931000D01*
X64282000Y-60185000D01*
X64262000Y-60185000D01*
X64262000Y-61496750D01*
X64420750Y-61655500D01*
X64460000Y-61658572D01*
X64584482Y-61646312D01*
X64645000Y-61627954D01*
X64645000Y-62390198D01*
X62366792Y-64668406D01*
X62349667Y-64665000D01*
X62110333Y-64665000D01*
X61875598Y-64711692D01*
X61654482Y-64803281D01*
X61455483Y-64936248D01*
X61286248Y-65105483D01*
X61153281Y-65304482D01*
X61061692Y-65525598D01*
X61015000Y-65760333D01*
X61015000Y-65999667D01*
X61061692Y-66234402D01*
X61153281Y-66455518D01*
X61286248Y-66654517D01*
X61455483Y-66823752D01*
X61654482Y-66956719D01*
X61875598Y-67048308D01*
X62110333Y-67095000D01*
X62349667Y-67095000D01*
X62584402Y-67048308D01*
X62805518Y-66956719D01*
X63004517Y-66823752D01*
X63173752Y-66654517D01*
X63306719Y-66455518D01*
X63398308Y-66234402D01*
X63445000Y-65999667D01*
X63445000Y-65760333D01*
X63441594Y-65743208D01*
X63587412Y-65597390D01*
X63555000Y-65760333D01*
X63555000Y-65999667D01*
X63601692Y-66234402D01*
X63693281Y-66455518D01*
X63826248Y-66654517D01*
X63995483Y-66823752D01*
X64194482Y-66956719D01*
X64415598Y-67048308D01*
X64650333Y-67095000D01*
X64889667Y-67095000D01*
X65124402Y-67048308D01*
X65345518Y-66956719D01*
X65544517Y-66823752D01*
X65713752Y-66654517D01*
X65846719Y-66455518D01*
X65938308Y-66234402D01*
X65985000Y-65999667D01*
X65985000Y-65760333D01*
X65981594Y-65743208D01*
X66127412Y-65597390D01*
X66095000Y-65760333D01*
X66095000Y-65999667D01*
X66141692Y-66234402D01*
X66233281Y-66455518D01*
X66366248Y-66654517D01*
X66535483Y-66823752D01*
X66734482Y-66956719D01*
X66955598Y-67048308D01*
X67190333Y-67095000D01*
X67429667Y-67095000D01*
X67664402Y-67048308D01*
X67885518Y-66956719D01*
X68084517Y-66823752D01*
X68253752Y-66654517D01*
X68386719Y-66455518D01*
X68478308Y-66234402D01*
X68525000Y-65999667D01*
X68525000Y-65760333D01*
X68521146Y-65740958D01*
X68579974Y-65669276D01*
X68580000Y-65669227D01*
X68580026Y-65669276D01*
X68605565Y-65700395D01*
X68638854Y-65740958D01*
X68635000Y-65760333D01*
X68635000Y-65999667D01*
X68681692Y-66234402D01*
X68773281Y-66455518D01*
X68906248Y-66654517D01*
X69075483Y-66823752D01*
X69274482Y-66956719D01*
X69495598Y-67048308D01*
X69730333Y-67095000D01*
X69969667Y-67095000D01*
X70204402Y-67048308D01*
X70425518Y-66956719D01*
X70624517Y-66823752D01*
X70793752Y-66654517D01*
X70926719Y-66455518D01*
X71018308Y-66234402D01*
X71065000Y-65999667D01*
X71065000Y-65760333D01*
X71018308Y-65525598D01*
X70926719Y-65304482D01*
X70793752Y-65105483D01*
X70624517Y-64936248D01*
X70425518Y-64803281D01*
X70204402Y-64711692D01*
X69975000Y-64666061D01*
X69975000Y-61627954D01*
X70035518Y-61646312D01*
X70160000Y-61658572D01*
X70199250Y-61655500D01*
X70358000Y-61496750D01*
X70358000Y-60185000D01*
X70338000Y-60185000D01*
X70338000Y-59931000D01*
X70358000Y-59931000D01*
X70358000Y-59911000D01*
X70612000Y-59911000D01*
X70612000Y-59931000D01*
X70632000Y-59931000D01*
X70632000Y-60185000D01*
X70612000Y-60185000D01*
X70612000Y-61496750D01*
X70770750Y-61655500D01*
X70810000Y-61658572D01*
X70934482Y-61646312D01*
X70995000Y-61627954D01*
X70995000Y-62667677D01*
X70991324Y-62705000D01*
X70995000Y-62742322D01*
X70995000Y-62742332D01*
X71005997Y-62853985D01*
X71030738Y-62935546D01*
X71049454Y-62997246D01*
X71120026Y-63129276D01*
X71159871Y-63177826D01*
X71214999Y-63245001D01*
X71244003Y-63268804D01*
X72673780Y-64698581D01*
X72549972Y-64669647D01*
X72310769Y-64661694D01*
X72074612Y-64700560D01*
X71850574Y-64784752D01*
X71779024Y-64822998D01*
X71734152Y-65044547D01*
X72390000Y-65700395D01*
X72404143Y-65686253D01*
X72583748Y-65865858D01*
X72569605Y-65880000D01*
X72583748Y-65894143D01*
X72446959Y-66030931D01*
X72395513Y-66035998D01*
X72351469Y-66049359D01*
X72196253Y-65894143D01*
X72210395Y-65880000D01*
X71554547Y-65224152D01*
X71332998Y-65269024D01*
X71234112Y-65486974D01*
X71179647Y-65720028D01*
X71171694Y-65959231D01*
X71210560Y-66195388D01*
X71294752Y-66419426D01*
X71332998Y-66490976D01*
X71554545Y-66535847D01*
X71437339Y-66653053D01*
X71519492Y-66735206D01*
X70373271Y-67881428D01*
X70160000Y-67881428D01*
X70035518Y-67893688D01*
X69915820Y-67929998D01*
X69850000Y-67965180D01*
X69784180Y-67929998D01*
X69664482Y-67893688D01*
X69540000Y-67881428D01*
X68890000Y-67881428D01*
X68765518Y-67893688D01*
X68645820Y-67929998D01*
X68580000Y-67965180D01*
X68514180Y-67929998D01*
X68394482Y-67893688D01*
X68270000Y-67881428D01*
X67620000Y-67881428D01*
X67495518Y-67893688D01*
X67375820Y-67929998D01*
X67310000Y-67965180D01*
X67244180Y-67929998D01*
X67124482Y-67893688D01*
X67000000Y-67881428D01*
X66350000Y-67881428D01*
X66225518Y-67893688D01*
X66105820Y-67929998D01*
X66040000Y-67965180D01*
X65974180Y-67929998D01*
X65854482Y-67893688D01*
X65730000Y-67881428D01*
X65080000Y-67881428D01*
X64955518Y-67893688D01*
X64835820Y-67929998D01*
X64770000Y-67965180D01*
X64704180Y-67929998D01*
X64584482Y-67893688D01*
X64460000Y-67881428D01*
X63810000Y-67881428D01*
X63685518Y-67893688D01*
X63565820Y-67929998D01*
X63500000Y-67965180D01*
X63434180Y-67929998D01*
X63314482Y-67893688D01*
X63190000Y-67881428D01*
X62540000Y-67881428D01*
X62415518Y-67893688D01*
X62295820Y-67929998D01*
X62230000Y-67965180D01*
X62164180Y-67929998D01*
X62044482Y-67893688D01*
X61920000Y-67881428D01*
X61270000Y-67881428D01*
X61145518Y-67893688D01*
X61025820Y-67929998D01*
X60960000Y-67965180D01*
X60894180Y-67929998D01*
X60774482Y-67893688D01*
X60650000Y-67881428D01*
X60000000Y-67881428D01*
X59875518Y-67893688D01*
X59755820Y-67929998D01*
X59645506Y-67988963D01*
X59548815Y-68068315D01*
X59469463Y-68165006D01*
X59410498Y-68275320D01*
X59374188Y-68395018D01*
X59361928Y-68519500D01*
X59361928Y-68722000D01*
X56445322Y-68722000D01*
X56407999Y-68718324D01*
X56370676Y-68722000D01*
X56370667Y-68722000D01*
X56259014Y-68732997D01*
X56115753Y-68776454D01*
X55983724Y-68847026D01*
X55983722Y-68847027D01*
X55983723Y-68847027D01*
X55896996Y-68918201D01*
X55896992Y-68918205D01*
X55867999Y-68941999D01*
X55844205Y-68970992D01*
X52206792Y-72608406D01*
X52189667Y-72605000D01*
X51950333Y-72605000D01*
X51715598Y-72651692D01*
X51494482Y-72743281D01*
X51295483Y-72876248D01*
X51126248Y-73045483D01*
X50993281Y-73244482D01*
X50901692Y-73465598D01*
X50855000Y-73700333D01*
X50855000Y-73939667D01*
X50901692Y-74174402D01*
X50993281Y-74395518D01*
X51126248Y-74594517D01*
X51295483Y-74763752D01*
X51494482Y-74896719D01*
X51715598Y-74988308D01*
X51950333Y-75035000D01*
X52189667Y-75035000D01*
X52424402Y-74988308D01*
X52645518Y-74896719D01*
X52844517Y-74763752D01*
X53013752Y-74594517D01*
X53146719Y-74395518D01*
X53238308Y-74174402D01*
X53285000Y-73939667D01*
X53285000Y-73700333D01*
X53281594Y-73683208D01*
X53427412Y-73537390D01*
X53395000Y-73700333D01*
X53395000Y-73939667D01*
X53441692Y-74174402D01*
X53533281Y-74395518D01*
X53666248Y-74594517D01*
X53768465Y-74696734D01*
X53025199Y-75440000D01*
X49844802Y-75440000D01*
X49020000Y-74615199D01*
X49020000Y-40954801D01*
X53048430Y-36926372D01*
X53202408Y-36957000D01*
X53477592Y-36957000D01*
X53747490Y-36903314D01*
X54001727Y-36798005D01*
X54230535Y-36645120D01*
X54425120Y-36450535D01*
X54578005Y-36221727D01*
X54610000Y-36144485D01*
X54641995Y-36221727D01*
X54794880Y-36450535D01*
X54989465Y-36645120D01*
X55218273Y-36798005D01*
X55472510Y-36903314D01*
X55742408Y-36957000D01*
X56017592Y-36957000D01*
X56287490Y-36903314D01*
X56541727Y-36798005D01*
X56770535Y-36645120D01*
X56965120Y-36450535D01*
X57118005Y-36221727D01*
X57150000Y-36144485D01*
X57181995Y-36221727D01*
X57181995Y-36221727D01*
G37*
X57181995Y-36221727D02*
X57334880Y-36450535D01*
X57529465Y-36645120D01*
X57758273Y-36798005D01*
X58012510Y-36903314D01*
X58282408Y-36957000D01*
X58557592Y-36957000D01*
X58711571Y-36926372D01*
X58747002Y-36961803D01*
X58747001Y-49440676D01*
X58557592Y-49403000D01*
X58282408Y-49403000D01*
X58012510Y-49456686D01*
X57758273Y-49561995D01*
X57529465Y-49714880D01*
X57334880Y-49909465D01*
X57181995Y-50138273D01*
X57150000Y-50215515D01*
X57118005Y-50138273D01*
X56965120Y-49909465D01*
X56770535Y-49714880D01*
X56541727Y-49561995D01*
X56287490Y-49456686D01*
X56017592Y-49403000D01*
X55742408Y-49403000D01*
X55472510Y-49456686D01*
X55218273Y-49561995D01*
X54989465Y-49714880D01*
X54794880Y-49909465D01*
X54641995Y-50138273D01*
X54610000Y-50215515D01*
X54578005Y-50138273D01*
X54425120Y-49909465D01*
X54230535Y-49714880D01*
X54001727Y-49561995D01*
X53747490Y-49456686D01*
X53477592Y-49403000D01*
X53202408Y-49403000D01*
X52932510Y-49456686D01*
X52678273Y-49561995D01*
X52449465Y-49714880D01*
X52254880Y-49909465D01*
X52101995Y-50138273D01*
X52070000Y-50215515D01*
X52038005Y-50138273D01*
X51885120Y-49909465D01*
X51690535Y-49714880D01*
X51461727Y-49561995D01*
X51207490Y-49456686D01*
X50937592Y-49403000D01*
X50662408Y-49403000D01*
X50392510Y-49456686D01*
X50138273Y-49561995D01*
X49909465Y-49714880D01*
X49714880Y-49909465D01*
X49561995Y-50138273D01*
X49456686Y-50392510D01*
X49403000Y-50662408D01*
X49403000Y-50937592D01*
X49456686Y-51207490D01*
X49561995Y-51461727D01*
X49714880Y-51690535D01*
X49909465Y-51885120D01*
X50138273Y-52038005D01*
X50392510Y-52143314D01*
X50662408Y-52197000D01*
X50937592Y-52197000D01*
X51207490Y-52143314D01*
X51461727Y-52038005D01*
X51690535Y-51885120D01*
X51885120Y-51690535D01*
X52038005Y-51461727D01*
X52070000Y-51384485D01*
X52101995Y-51461727D01*
X52254880Y-51690535D01*
X52449465Y-51885120D01*
X52678273Y-52038005D01*
X52932510Y-52143314D01*
X53202408Y-52197000D01*
X53477592Y-52197000D01*
X53747490Y-52143314D01*
X54001727Y-52038005D01*
X54230535Y-51885120D01*
X54425120Y-51690535D01*
X54578005Y-51461727D01*
X54610000Y-51384485D01*
X54641995Y-51461727D01*
X54794880Y-51690535D01*
X54989465Y-51885120D01*
X55218273Y-52038005D01*
X55472510Y-52143314D01*
X55742408Y-52197000D01*
X55948198Y-52197000D01*
X50289003Y-57856196D01*
X50259999Y-57879999D01*
X50204871Y-57947174D01*
X50165026Y-57995724D01*
X50111332Y-58096178D01*
X50094454Y-58127754D01*
X50050997Y-58271015D01*
X50040000Y-58382668D01*
X50040000Y-58382678D01*
X50036324Y-58420000D01*
X50040000Y-58457322D01*
X50040001Y-69153629D01*
X50017879Y-69168410D01*
X49873716Y-69312573D01*
X49760448Y-69482091D01*
X49682427Y-69670449D01*
X49642653Y-69870408D01*
X49642653Y-70074286D01*
X49682427Y-70274245D01*
X49760448Y-70462603D01*
X49873716Y-70632121D01*
X50017879Y-70776284D01*
X50187397Y-70889552D01*
X50375755Y-70967573D01*
X50575714Y-71007347D01*
X50779592Y-71007347D01*
X50979551Y-70967573D01*
X51167909Y-70889552D01*
X51337427Y-70776284D01*
X51481590Y-70632121D01*
X51594858Y-70462603D01*
X51672879Y-70274245D01*
X51712653Y-70074286D01*
X51712653Y-69870408D01*
X51672879Y-69670449D01*
X51594858Y-69482091D01*
X51560000Y-69429922D01*
X51560000Y-66983857D01*
X51715598Y-67048308D01*
X51950333Y-67095000D01*
X52189667Y-67095000D01*
X52424402Y-67048308D01*
X52645518Y-66956719D01*
X52844517Y-66823752D01*
X53013752Y-66654517D01*
X53146719Y-66455518D01*
X53238308Y-66234402D01*
X53285000Y-65999667D01*
X53285000Y-65760333D01*
X53281594Y-65743208D01*
X53427412Y-65597389D01*
X53395000Y-65760333D01*
X53395000Y-65999667D01*
X53441692Y-66234402D01*
X53533281Y-66455518D01*
X53666248Y-66654517D01*
X53835483Y-66823752D01*
X54034482Y-66956719D01*
X54255598Y-67048308D01*
X54490333Y-67095000D01*
X54729667Y-67095000D01*
X54964402Y-67048308D01*
X55185518Y-66956719D01*
X55384517Y-66823752D01*
X55553752Y-66654517D01*
X55686719Y-66455518D01*
X55778308Y-66234402D01*
X55825000Y-65999667D01*
X55825000Y-65760333D01*
X55821594Y-65743208D01*
X55967412Y-65597389D01*
X55935000Y-65760333D01*
X55935000Y-65999667D01*
X55981692Y-66234402D01*
X56073281Y-66455518D01*
X56206248Y-66654517D01*
X56375483Y-66823752D01*
X56574482Y-66956719D01*
X56795598Y-67048308D01*
X57030333Y-67095000D01*
X57269667Y-67095000D01*
X57504402Y-67048308D01*
X57725518Y-66956719D01*
X57924517Y-66823752D01*
X58032816Y-66715453D01*
X59034152Y-66715453D01*
X59079024Y-66937002D01*
X59296974Y-67035888D01*
X59530028Y-67090353D01*
X59769231Y-67098306D01*
X60005388Y-67059440D01*
X60229426Y-66975248D01*
X60300976Y-66937002D01*
X60345848Y-66715453D01*
X59690000Y-66059605D01*
X59034152Y-66715453D01*
X58032816Y-66715453D01*
X58093752Y-66654517D01*
X58110206Y-66629892D01*
X58119229Y-66629003D01*
X58262490Y-66585546D01*
X58394519Y-66514974D01*
X58510244Y-66420001D01*
X58534047Y-66390997D01*
X58570405Y-66354639D01*
X58594752Y-66419426D01*
X58632998Y-66490976D01*
X58854547Y-66535848D01*
X59510395Y-65880000D01*
X59869605Y-65880000D01*
X60525453Y-66535848D01*
X60747002Y-66490976D01*
X60845888Y-66273026D01*
X60900353Y-66039972D01*
X60908306Y-65800769D01*
X60869440Y-65564612D01*
X60785248Y-65340574D01*
X60747002Y-65269024D01*
X60525453Y-65224152D01*
X59869605Y-65880000D01*
X59510395Y-65880000D01*
X59496253Y-65865858D01*
X59675858Y-65686253D01*
X59690000Y-65700395D01*
X60345848Y-65044547D01*
X60300976Y-64822998D01*
X60164133Y-64760911D01*
X63274827Y-61650218D01*
X63314482Y-61646312D01*
X63434180Y-61610002D01*
X63500000Y-61574820D01*
X63565820Y-61610002D01*
X63685518Y-61646312D01*
X63810000Y-61658572D01*
X63849250Y-61655500D01*
X64008000Y-61496750D01*
X64008000Y-60185000D01*
X63988000Y-60185000D01*
X63988000Y-59931000D01*
X64008000Y-59931000D01*
X64008000Y-58619250D01*
X63849250Y-58460500D01*
X63810000Y-58457428D01*
X63685518Y-58469688D01*
X63565820Y-58505998D01*
X63500000Y-58541180D01*
X63434180Y-58505998D01*
X63314482Y-58469688D01*
X63190000Y-58457428D01*
X62540000Y-58457428D01*
X62415518Y-58469688D01*
X62295820Y-58505998D01*
X62230000Y-58541180D01*
X62164180Y-58505998D01*
X62044482Y-58469688D01*
X61920000Y-58457428D01*
X61706730Y-58457428D01*
X60267001Y-57017700D01*
X60267001Y-52017110D01*
X60298273Y-52038005D01*
X60552510Y-52143314D01*
X60822408Y-52197000D01*
X61097592Y-52197000D01*
X61367490Y-52143314D01*
X61621727Y-52038005D01*
X61850535Y-51885120D01*
X62045120Y-51690535D01*
X62198005Y-51461727D01*
X62230000Y-51384485D01*
X62261995Y-51461727D01*
X62414880Y-51690535D01*
X62609465Y-51885120D01*
X62838273Y-52038005D01*
X63092510Y-52143314D01*
X63362408Y-52197000D01*
X63637592Y-52197000D01*
X63791571Y-52166372D01*
X65915001Y-54289803D01*
X65915000Y-58488046D01*
X65854482Y-58469688D01*
X65730000Y-58457428D01*
X65080000Y-58457428D01*
X64955518Y-58469688D01*
X64835820Y-58505998D01*
X64770000Y-58541180D01*
X64704180Y-58505998D01*
X64584482Y-58469688D01*
X64460000Y-58457428D01*
X64420750Y-58460500D01*
X64262000Y-58619250D01*
X64262000Y-59931000D01*
X64282000Y-59931000D01*
X64282000Y-60185000D01*
X64262000Y-60185000D01*
X64262000Y-61496750D01*
X64420750Y-61655500D01*
X64460000Y-61658572D01*
X64584482Y-61646312D01*
X64645000Y-61627954D01*
X64645000Y-62390198D01*
X62366792Y-64668406D01*
X62349667Y-64665000D01*
X62110333Y-64665000D01*
X61875598Y-64711692D01*
X61654482Y-64803281D01*
X61455483Y-64936248D01*
X61286248Y-65105483D01*
X61153281Y-65304482D01*
X61061692Y-65525598D01*
X61015000Y-65760333D01*
X61015000Y-65999667D01*
X61061692Y-66234402D01*
X61153281Y-66455518D01*
X61286248Y-66654517D01*
X61455483Y-66823752D01*
X61654482Y-66956719D01*
X61875598Y-67048308D01*
X62110333Y-67095000D01*
X62349667Y-67095000D01*
X62584402Y-67048308D01*
X62805518Y-66956719D01*
X63004517Y-66823752D01*
X63173752Y-66654517D01*
X63306719Y-66455518D01*
X63398308Y-66234402D01*
X63445000Y-65999667D01*
X63445000Y-65760333D01*
X63441594Y-65743208D01*
X63587412Y-65597390D01*
X63555000Y-65760333D01*
X63555000Y-65999667D01*
X63601692Y-66234402D01*
X63693281Y-66455518D01*
X63826248Y-66654517D01*
X63995483Y-66823752D01*
X64194482Y-66956719D01*
X64415598Y-67048308D01*
X64650333Y-67095000D01*
X64889667Y-67095000D01*
X65124402Y-67048308D01*
X65345518Y-66956719D01*
X65544517Y-66823752D01*
X65713752Y-66654517D01*
X65846719Y-66455518D01*
X65938308Y-66234402D01*
X65985000Y-65999667D01*
X65985000Y-65760333D01*
X65981594Y-65743208D01*
X66127412Y-65597390D01*
X66095000Y-65760333D01*
X66095000Y-65999667D01*
X66141692Y-66234402D01*
X66233281Y-66455518D01*
X66366248Y-66654517D01*
X66535483Y-66823752D01*
X66734482Y-66956719D01*
X66955598Y-67048308D01*
X67190333Y-67095000D01*
X67429667Y-67095000D01*
X67664402Y-67048308D01*
X67885518Y-66956719D01*
X68084517Y-66823752D01*
X68253752Y-66654517D01*
X68386719Y-66455518D01*
X68478308Y-66234402D01*
X68525000Y-65999667D01*
X68525000Y-65760333D01*
X68521146Y-65740958D01*
X68579974Y-65669276D01*
X68580000Y-65669227D01*
X68580026Y-65669276D01*
X68605565Y-65700395D01*
X68638854Y-65740958D01*
X68635000Y-65760333D01*
X68635000Y-65999667D01*
X68681692Y-66234402D01*
X68773281Y-66455518D01*
X68906248Y-66654517D01*
X69075483Y-66823752D01*
X69274482Y-66956719D01*
X69495598Y-67048308D01*
X69730333Y-67095000D01*
X69969667Y-67095000D01*
X70204402Y-67048308D01*
X70425518Y-66956719D01*
X70624517Y-66823752D01*
X70793752Y-66654517D01*
X70926719Y-66455518D01*
X71018308Y-66234402D01*
X71065000Y-65999667D01*
X71065000Y-65760333D01*
X71018308Y-65525598D01*
X70926719Y-65304482D01*
X70793752Y-65105483D01*
X70624517Y-64936248D01*
X70425518Y-64803281D01*
X70204402Y-64711692D01*
X69975000Y-64666061D01*
X69975000Y-61627954D01*
X70035518Y-61646312D01*
X70160000Y-61658572D01*
X70199250Y-61655500D01*
X70358000Y-61496750D01*
X70358000Y-60185000D01*
X70338000Y-60185000D01*
X70338000Y-59931000D01*
X70358000Y-59931000D01*
X70358000Y-59911000D01*
X70612000Y-59911000D01*
X70612000Y-59931000D01*
X70632000Y-59931000D01*
X70632000Y-60185000D01*
X70612000Y-60185000D01*
X70612000Y-61496750D01*
X70770750Y-61655500D01*
X70810000Y-61658572D01*
X70934482Y-61646312D01*
X70995000Y-61627954D01*
X70995000Y-62667677D01*
X70991324Y-62705000D01*
X70995000Y-62742322D01*
X70995000Y-62742332D01*
X71005997Y-62853985D01*
X71030738Y-62935546D01*
X71049454Y-62997246D01*
X71120026Y-63129276D01*
X71159871Y-63177826D01*
X71214999Y-63245001D01*
X71244003Y-63268804D01*
X72673780Y-64698581D01*
X72549972Y-64669647D01*
X72310769Y-64661694D01*
X72074612Y-64700560D01*
X71850574Y-64784752D01*
X71779024Y-64822998D01*
X71734152Y-65044547D01*
X72390000Y-65700395D01*
X72404143Y-65686253D01*
X72583748Y-65865858D01*
X72569605Y-65880000D01*
X72583748Y-65894143D01*
X72446959Y-66030931D01*
X72395513Y-66035998D01*
X72351469Y-66049359D01*
X72196253Y-65894143D01*
X72210395Y-65880000D01*
X71554547Y-65224152D01*
X71332998Y-65269024D01*
X71234112Y-65486974D01*
X71179647Y-65720028D01*
X71171694Y-65959231D01*
X71210560Y-66195388D01*
X71294752Y-66419426D01*
X71332998Y-66490976D01*
X71554545Y-66535847D01*
X71437339Y-66653053D01*
X71519492Y-66735206D01*
X70373271Y-67881428D01*
X70160000Y-67881428D01*
X70035518Y-67893688D01*
X69915820Y-67929998D01*
X69850000Y-67965180D01*
X69784180Y-67929998D01*
X69664482Y-67893688D01*
X69540000Y-67881428D01*
X68890000Y-67881428D01*
X68765518Y-67893688D01*
X68645820Y-67929998D01*
X68580000Y-67965180D01*
X68514180Y-67929998D01*
X68394482Y-67893688D01*
X68270000Y-67881428D01*
X67620000Y-67881428D01*
X67495518Y-67893688D01*
X67375820Y-67929998D01*
X67310000Y-67965180D01*
X67244180Y-67929998D01*
X67124482Y-67893688D01*
X67000000Y-67881428D01*
X66350000Y-67881428D01*
X66225518Y-67893688D01*
X66105820Y-67929998D01*
X66040000Y-67965180D01*
X65974180Y-67929998D01*
X65854482Y-67893688D01*
X65730000Y-67881428D01*
X65080000Y-67881428D01*
X64955518Y-67893688D01*
X64835820Y-67929998D01*
X64770000Y-67965180D01*
X64704180Y-67929998D01*
X64584482Y-67893688D01*
X64460000Y-67881428D01*
X63810000Y-67881428D01*
X63685518Y-67893688D01*
X63565820Y-67929998D01*
X63500000Y-67965180D01*
X63434180Y-67929998D01*
X63314482Y-67893688D01*
X63190000Y-67881428D01*
X62540000Y-67881428D01*
X62415518Y-67893688D01*
X62295820Y-67929998D01*
X62230000Y-67965180D01*
X62164180Y-67929998D01*
X62044482Y-67893688D01*
X61920000Y-67881428D01*
X61270000Y-67881428D01*
X61145518Y-67893688D01*
X61025820Y-67929998D01*
X60960000Y-67965180D01*
X60894180Y-67929998D01*
X60774482Y-67893688D01*
X60650000Y-67881428D01*
X60000000Y-67881428D01*
X59875518Y-67893688D01*
X59755820Y-67929998D01*
X59645506Y-67988963D01*
X59548815Y-68068315D01*
X59469463Y-68165006D01*
X59410498Y-68275320D01*
X59374188Y-68395018D01*
X59361928Y-68519500D01*
X59361928Y-68722000D01*
X56445322Y-68722000D01*
X56407999Y-68718324D01*
X56370676Y-68722000D01*
X56370667Y-68722000D01*
X56259014Y-68732997D01*
X56115753Y-68776454D01*
X55983724Y-68847026D01*
X55983722Y-68847027D01*
X55983723Y-68847027D01*
X55896996Y-68918201D01*
X55896992Y-68918205D01*
X55867999Y-68941999D01*
X55844205Y-68970992D01*
X52206792Y-72608406D01*
X52189667Y-72605000D01*
X51950333Y-72605000D01*
X51715598Y-72651692D01*
X51494482Y-72743281D01*
X51295483Y-72876248D01*
X51126248Y-73045483D01*
X50993281Y-73244482D01*
X50901692Y-73465598D01*
X50855000Y-73700333D01*
X50855000Y-73939667D01*
X50901692Y-74174402D01*
X50993281Y-74395518D01*
X51126248Y-74594517D01*
X51295483Y-74763752D01*
X51494482Y-74896719D01*
X51715598Y-74988308D01*
X51950333Y-75035000D01*
X52189667Y-75035000D01*
X52424402Y-74988308D01*
X52645518Y-74896719D01*
X52844517Y-74763752D01*
X53013752Y-74594517D01*
X53146719Y-74395518D01*
X53238308Y-74174402D01*
X53285000Y-73939667D01*
X53285000Y-73700333D01*
X53281594Y-73683208D01*
X53427412Y-73537390D01*
X53395000Y-73700333D01*
X53395000Y-73939667D01*
X53441692Y-74174402D01*
X53533281Y-74395518D01*
X53666248Y-74594517D01*
X53768465Y-74696734D01*
X53025199Y-75440000D01*
X49844802Y-75440000D01*
X49020000Y-74615199D01*
X49020000Y-40954801D01*
X53048430Y-36926372D01*
X53202408Y-36957000D01*
X53477592Y-36957000D01*
X53747490Y-36903314D01*
X54001727Y-36798005D01*
X54230535Y-36645120D01*
X54425120Y-36450535D01*
X54578005Y-36221727D01*
X54610000Y-36144485D01*
X54641995Y-36221727D01*
X54794880Y-36450535D01*
X54989465Y-36645120D01*
X55218273Y-36798005D01*
X55472510Y-36903314D01*
X55742408Y-36957000D01*
X56017592Y-36957000D01*
X56287490Y-36903314D01*
X56541727Y-36798005D01*
X56770535Y-36645120D01*
X56965120Y-36450535D01*
X57118005Y-36221727D01*
X57150000Y-36144485D01*
X57181995Y-36221727D01*
M02*
