G04 #@! TF.GenerationSoftware,KiCad,Pcbnew,(5.1.2-1)-1*
G04 #@! TF.CreationDate,2020-07-06T20:22:29+09:00*
G04 #@! TF.ProjectId,usb_7seg,7573625f-3773-4656-972e-6b696361645f,rev?*
G04 #@! TF.SameCoordinates,Original*
G04 #@! TF.FileFunction,Legend,Top*
G04 #@! TF.FilePolarity,Positive*
%FSLAX46Y46*%
G04 Gerber Fmt 4.6, Leading zero omitted, Abs format (unit mm)*
G04 Created by KiCad (PCBNEW (5.1.2-1)-1) date 2020-07-06 20:22:29*
%MOMM*%
%LPD*%
G04 APERTURE LIST*
%ADD10C,0.120000*%
%ADD11C,0.200000*%
%ADD12C,0.100000*%
%ADD13C,0.127000*%
%ADD14C,0.066040*%
%ADD15C,0.150000*%
%ADD16C,0.254000*%
%ADD17C,0.101600*%
%ADD18C,0.076200*%
G04 APERTURE END LIST*
D10*
X84070000Y-33680000D02*
X134370000Y-33680000D01*
X134370000Y-52680000D02*
X134370000Y-33680000D01*
X84070000Y-52730000D02*
X134370000Y-52730000D01*
X84070000Y-52680000D02*
X84070000Y-33680000D01*
X126880000Y-81180000D02*
X132120000Y-81180000D01*
X126880000Y-83920000D02*
X132120000Y-83920000D01*
X126880000Y-81180000D02*
X126880000Y-81495000D01*
X126880000Y-83605000D02*
X126880000Y-83920000D01*
X132120000Y-81180000D02*
X132120000Y-81495000D01*
X132120000Y-83605000D02*
X132120000Y-83920000D01*
X129278748Y-81840000D02*
X129801252Y-81840000D01*
X129278748Y-83260000D02*
X129801252Y-83260000D01*
D11*
X82105000Y-65300000D02*
X82105000Y-73785000D01*
X49975000Y-65915000D02*
X49975000Y-73785000D01*
X75010000Y-61370000D02*
X75010000Y-68170000D01*
X75010000Y-68170000D02*
X59610000Y-68170000D01*
X59610000Y-68170000D02*
X59610000Y-61370000D01*
X59610000Y-61370000D02*
X75010000Y-61370000D01*
X74970000Y-59095000D02*
X74970000Y-61020000D01*
D10*
X113570000Y-81180000D02*
X113570000Y-83920000D01*
X113570000Y-83920000D02*
X120110000Y-83920000D01*
X120110000Y-83920000D02*
X120110000Y-81180000D01*
X120110000Y-81180000D02*
X113570000Y-81180000D01*
X112800000Y-82550000D02*
X113570000Y-82550000D01*
X120880000Y-82550000D02*
X120110000Y-82550000D01*
X117101252Y-83260000D02*
X116578748Y-83260000D01*
X117101252Y-81840000D02*
X116578748Y-81840000D01*
D12*
X131445000Y-57531000D02*
G75*
G03X131445000Y-57531000I-254000J0D01*
G01*
D13*
X128099820Y-62814200D02*
X135453120Y-62814200D01*
X128099820Y-71813420D02*
X128099820Y-62814200D01*
X135453120Y-71813420D02*
X128099820Y-71813420D01*
X135453120Y-62819280D02*
X135453120Y-71813420D01*
X133357620Y-58420000D02*
X113030000Y-58420000D01*
X134028180Y-59090560D02*
X133357620Y-58420000D01*
X134028180Y-76217780D02*
X134028180Y-59090560D01*
X113030000Y-76217780D02*
X134028180Y-76217780D01*
X113030000Y-58420000D02*
X113030000Y-76217780D01*
D14*
X131445000Y-70739000D02*
X134112000Y-70739000D01*
X134112000Y-70739000D02*
X134112000Y-72517000D01*
X131445000Y-72517000D02*
X134112000Y-72517000D01*
X131445000Y-70739000D02*
X131445000Y-72517000D01*
X127378460Y-70739000D02*
X130048000Y-70739000D01*
X130048000Y-70739000D02*
X130048000Y-72517000D01*
X127378460Y-72517000D02*
X130048000Y-72517000D01*
X127378460Y-70739000D02*
X127378460Y-72517000D01*
X127378460Y-62103000D02*
X130048000Y-62103000D01*
X130048000Y-62103000D02*
X130048000Y-63881000D01*
X127378460Y-63881000D02*
X130048000Y-63881000D01*
X127378460Y-62103000D02*
X127378460Y-63881000D01*
X131445000Y-62103000D02*
X134112000Y-62103000D01*
X134112000Y-62103000D02*
X134112000Y-63881000D01*
X131445000Y-63881000D02*
X134112000Y-63881000D01*
X131445000Y-62103000D02*
X131445000Y-63881000D01*
X113665000Y-64770000D02*
X116205000Y-64770000D01*
X116205000Y-64770000D02*
X116205000Y-70485000D01*
X113665000Y-70485000D02*
X116205000Y-70485000D01*
X113665000Y-64770000D02*
X113665000Y-70485000D01*
X130810000Y-64770000D02*
X133350000Y-64770000D01*
X133350000Y-64770000D02*
X133350000Y-69850000D01*
X130810000Y-69850000D02*
X133350000Y-69850000D01*
X130810000Y-64770000D02*
X130810000Y-69850000D01*
D10*
X32000000Y-33680000D02*
X82300000Y-33680000D01*
X82300000Y-52680000D02*
X82300000Y-33680000D01*
X32000000Y-52730000D02*
X82300000Y-52730000D01*
X32000000Y-52680000D02*
X32000000Y-33680000D01*
D15*
X107438095Y-30542380D02*
X107438095Y-31351904D01*
X107485714Y-31447142D01*
X107533333Y-31494761D01*
X107628571Y-31542380D01*
X107819047Y-31542380D01*
X107914285Y-31494761D01*
X107961904Y-31447142D01*
X108009523Y-31351904D01*
X108009523Y-30542380D01*
X108390476Y-30542380D02*
X109009523Y-30542380D01*
X108676190Y-30923333D01*
X108819047Y-30923333D01*
X108914285Y-30970952D01*
X108961904Y-31018571D01*
X109009523Y-31113809D01*
X109009523Y-31351904D01*
X108961904Y-31447142D01*
X108914285Y-31494761D01*
X108819047Y-31542380D01*
X108533333Y-31542380D01*
X108438095Y-31494761D01*
X108390476Y-31447142D01*
X129333333Y-80407142D02*
X129285714Y-80454761D01*
X129142857Y-80502380D01*
X129047619Y-80502380D01*
X128904761Y-80454761D01*
X128809523Y-80359523D01*
X128761904Y-80264285D01*
X128714285Y-80073809D01*
X128714285Y-79930952D01*
X128761904Y-79740476D01*
X128809523Y-79645238D01*
X128904761Y-79550000D01*
X129047619Y-79502380D01*
X129142857Y-79502380D01*
X129285714Y-79550000D01*
X129333333Y-79597619D01*
X130285714Y-80502380D02*
X129714285Y-80502380D01*
X130000000Y-80502380D02*
X130000000Y-79502380D01*
X129904761Y-79645238D01*
X129809523Y-79740476D01*
X129714285Y-79788095D01*
X129373333Y-81257142D02*
X129325714Y-81304761D01*
X129182857Y-81352380D01*
X129087619Y-81352380D01*
X128944761Y-81304761D01*
X128849523Y-81209523D01*
X128801904Y-81114285D01*
X128754285Y-80923809D01*
X128754285Y-80780952D01*
X128801904Y-80590476D01*
X128849523Y-80495238D01*
X128944761Y-80400000D01*
X129087619Y-80352380D01*
X129182857Y-80352380D01*
X129325714Y-80400000D01*
X129373333Y-80447619D01*
X129754285Y-80447619D02*
X129801904Y-80400000D01*
X129897142Y-80352380D01*
X130135238Y-80352380D01*
X130230476Y-80400000D01*
X130278095Y-80447619D01*
X130325714Y-80542857D01*
X130325714Y-80638095D01*
X130278095Y-80780952D01*
X129706666Y-81352380D01*
X130325714Y-81352380D01*
D16*
X66614523Y-71089761D02*
X65344523Y-71089761D01*
X66493571Y-69759285D02*
X66554047Y-69819761D01*
X66614523Y-70001190D01*
X66614523Y-70122142D01*
X66554047Y-70303571D01*
X66433095Y-70424523D01*
X66312142Y-70485000D01*
X66070238Y-70545476D01*
X65888809Y-70545476D01*
X65646904Y-70485000D01*
X65525952Y-70424523D01*
X65405000Y-70303571D01*
X65344523Y-70122142D01*
X65344523Y-70001190D01*
X65405000Y-69819761D01*
X65465476Y-69759285D01*
X66614523Y-68549761D02*
X66614523Y-69275476D01*
X66614523Y-68912619D02*
X65344523Y-68912619D01*
X65525952Y-69033571D01*
X65646904Y-69154523D01*
X65707380Y-69275476D01*
X67884523Y-66009761D02*
X66614523Y-66009761D01*
X67763571Y-64679285D02*
X67824047Y-64739761D01*
X67884523Y-64921190D01*
X67884523Y-65042142D01*
X67824047Y-65223571D01*
X67703095Y-65344523D01*
X67582142Y-65405000D01*
X67340238Y-65465476D01*
X67158809Y-65465476D01*
X66916904Y-65405000D01*
X66795952Y-65344523D01*
X66675000Y-65223571D01*
X66614523Y-65042142D01*
X66614523Y-64921190D01*
X66675000Y-64739761D01*
X66735476Y-64679285D01*
X66735476Y-64195476D02*
X66675000Y-64135000D01*
X66614523Y-64014047D01*
X66614523Y-63711666D01*
X66675000Y-63590714D01*
X66735476Y-63530238D01*
X66856428Y-63469761D01*
X66977380Y-63469761D01*
X67158809Y-63530238D01*
X67884523Y-64255952D01*
X67884523Y-63469761D01*
D15*
X116673333Y-80632380D02*
X116340000Y-80156190D01*
X116101904Y-80632380D02*
X116101904Y-79632380D01*
X116482857Y-79632380D01*
X116578095Y-79680000D01*
X116625714Y-79727619D01*
X116673333Y-79822857D01*
X116673333Y-79965714D01*
X116625714Y-80060952D01*
X116578095Y-80108571D01*
X116482857Y-80156190D01*
X116101904Y-80156190D01*
X117625714Y-80632380D02*
X117054285Y-80632380D01*
X117340000Y-80632380D02*
X117340000Y-79632380D01*
X117244761Y-79775238D01*
X117149523Y-79870476D01*
X117054285Y-79918095D01*
X116673333Y-84652380D02*
X116340000Y-84176190D01*
X116101904Y-84652380D02*
X116101904Y-83652380D01*
X116482857Y-83652380D01*
X116578095Y-83700000D01*
X116625714Y-83747619D01*
X116673333Y-83842857D01*
X116673333Y-83985714D01*
X116625714Y-84080952D01*
X116578095Y-84128571D01*
X116482857Y-84176190D01*
X116101904Y-84176190D01*
X117054285Y-83747619D02*
X117101904Y-83700000D01*
X117197142Y-83652380D01*
X117435238Y-83652380D01*
X117530476Y-83700000D01*
X117578095Y-83747619D01*
X117625714Y-83842857D01*
X117625714Y-83938095D01*
X117578095Y-84080952D01*
X117006666Y-84652380D01*
X117625714Y-84652380D01*
D17*
X134323666Y-68431833D02*
X135043333Y-68431833D01*
X135128000Y-68389500D01*
X135170333Y-68347166D01*
X135212666Y-68262500D01*
X135212666Y-68093166D01*
X135170333Y-68008500D01*
X135128000Y-67966166D01*
X135043333Y-67923833D01*
X134323666Y-67923833D01*
X135212666Y-67034833D02*
X135212666Y-67542833D01*
X135212666Y-67288833D02*
X134323666Y-67288833D01*
X134450666Y-67373500D01*
X134535333Y-67458166D01*
X134577666Y-67542833D01*
D18*
X124071742Y-70532171D02*
X124100771Y-70445085D01*
X124100771Y-70299942D01*
X124071742Y-70241885D01*
X124042714Y-70212857D01*
X123984657Y-70183828D01*
X123926600Y-70183828D01*
X123868542Y-70212857D01*
X123839514Y-70241885D01*
X123810485Y-70299942D01*
X123781457Y-70416057D01*
X123752428Y-70474114D01*
X123723400Y-70503142D01*
X123665342Y-70532171D01*
X123607285Y-70532171D01*
X123549228Y-70503142D01*
X123520200Y-70474114D01*
X123491171Y-70416057D01*
X123491171Y-70270914D01*
X123520200Y-70183828D01*
X124071742Y-69690342D02*
X124100771Y-69748400D01*
X124100771Y-69864514D01*
X124071742Y-69922571D01*
X124013685Y-69951600D01*
X123781457Y-69951600D01*
X123723400Y-69922571D01*
X123694371Y-69864514D01*
X123694371Y-69748400D01*
X123723400Y-69690342D01*
X123781457Y-69661314D01*
X123839514Y-69661314D01*
X123897571Y-69951600D01*
X124071742Y-69167828D02*
X124100771Y-69225885D01*
X124100771Y-69342000D01*
X124071742Y-69400057D01*
X124013685Y-69429085D01*
X123781457Y-69429085D01*
X123723400Y-69400057D01*
X123694371Y-69342000D01*
X123694371Y-69225885D01*
X123723400Y-69167828D01*
X123781457Y-69138800D01*
X123839514Y-69138800D01*
X123897571Y-69429085D01*
X124071742Y-68645314D02*
X124100771Y-68703371D01*
X124100771Y-68819485D01*
X124071742Y-68877542D01*
X124013685Y-68906571D01*
X123781457Y-68906571D01*
X123723400Y-68877542D01*
X123694371Y-68819485D01*
X123694371Y-68703371D01*
X123723400Y-68645314D01*
X123781457Y-68616285D01*
X123839514Y-68616285D01*
X123897571Y-68906571D01*
X124100771Y-68093771D02*
X123491171Y-68093771D01*
X124071742Y-68093771D02*
X124100771Y-68151828D01*
X124100771Y-68267942D01*
X124071742Y-68326000D01*
X124042714Y-68355028D01*
X123984657Y-68384057D01*
X123810485Y-68384057D01*
X123752428Y-68355028D01*
X123723400Y-68326000D01*
X123694371Y-68267942D01*
X123694371Y-68151828D01*
X123723400Y-68093771D01*
X123694371Y-67542228D02*
X124100771Y-67542228D01*
X123694371Y-67803485D02*
X124013685Y-67803485D01*
X124071742Y-67774457D01*
X124100771Y-67716400D01*
X124100771Y-67629314D01*
X124071742Y-67571257D01*
X124042714Y-67542228D01*
X124100771Y-67251942D02*
X123694371Y-67251942D01*
X123491171Y-67251942D02*
X123520200Y-67280971D01*
X123549228Y-67251942D01*
X123520200Y-67222914D01*
X123491171Y-67251942D01*
X123549228Y-67251942D01*
X123694371Y-66961657D02*
X124100771Y-66961657D01*
X123752428Y-66961657D02*
X123723400Y-66932628D01*
X123694371Y-66874571D01*
X123694371Y-66787485D01*
X123723400Y-66729428D01*
X123781457Y-66700400D01*
X124100771Y-66700400D01*
X124100771Y-66323028D02*
X124071742Y-66381085D01*
X124042714Y-66410114D01*
X123984657Y-66439142D01*
X123810485Y-66439142D01*
X123752428Y-66410114D01*
X123723400Y-66381085D01*
X123694371Y-66323028D01*
X123694371Y-66235942D01*
X123723400Y-66177885D01*
X123752428Y-66148857D01*
X123810485Y-66119828D01*
X123984657Y-66119828D01*
X124042714Y-66148857D01*
X124071742Y-66177885D01*
X124100771Y-66235942D01*
X124100771Y-66323028D01*
X123491171Y-65916628D02*
X124100771Y-65510228D01*
X123491171Y-65510228D02*
X124100771Y-65916628D01*
X124100771Y-65278000D02*
X123491171Y-65278000D01*
X123926600Y-65016742D02*
X123926600Y-64726457D01*
X124100771Y-65074800D02*
X123491171Y-64871600D01*
X124100771Y-64668400D01*
X123491171Y-64349085D02*
X123491171Y-64232971D01*
X123520200Y-64174914D01*
X123578257Y-64116857D01*
X123694371Y-64087828D01*
X123897571Y-64087828D01*
X124013685Y-64116857D01*
X124071742Y-64174914D01*
X124100771Y-64232971D01*
X124100771Y-64349085D01*
X124071742Y-64407142D01*
X124013685Y-64465200D01*
X123897571Y-64494228D01*
X123694371Y-64494228D01*
X123578257Y-64465200D01*
X123520200Y-64407142D01*
X123491171Y-64349085D01*
D15*
X55368095Y-30542380D02*
X55368095Y-31351904D01*
X55415714Y-31447142D01*
X55463333Y-31494761D01*
X55558571Y-31542380D01*
X55749047Y-31542380D01*
X55844285Y-31494761D01*
X55891904Y-31447142D01*
X55939523Y-31351904D01*
X55939523Y-30542380D01*
X56368095Y-30637619D02*
X56415714Y-30590000D01*
X56510952Y-30542380D01*
X56749047Y-30542380D01*
X56844285Y-30590000D01*
X56891904Y-30637619D01*
X56939523Y-30732857D01*
X56939523Y-30828095D01*
X56891904Y-30970952D01*
X56320476Y-31542380D01*
X56939523Y-31542380D01*
M02*
